<svg width="28" height="28" viewBox="0 0 28 28" fill="none" xmlns="http://www.w3.org/2000/svg">
<path d="M24 3H4C2.34315 3 1 4.34315 1 6V24C1 25.6569 2.34315 27 4 27H24C25.6569 27 27 25.6569 27 24V6C27 4.34315 25.6569 3 24 3Z" stroke="#002858" stroke-width="2" stroke-linejoin="round"/>
<path d="M5.13625 4H22.8638C24.5777 4 26 5.42216 26 7.2V8.83855C25.4895 8.36182 24.7824 8 24 8H4C3.21763 8 2.51049 8.36182 2 8.83855V7.2C2 5.42216 3.4223 4 5.13625 4Z" stroke="#002858" stroke-width="2"/>
<path d="M17 12.5C17 12.7761 16.7761 13 16.5 13C16.2239 13 16 12.7761 16 12.5C16 12.2239 16.2239 12 16.5 12C16.7761 12 17 12.2239 17 12.5Z" stroke="#002858" stroke-width="2"/>
<path d="M22 12.5C22 12.7761 21.7761 13 21.5 13C21.2239 13 21 12.7761 21 12.5C21 12.2239 21.2239 12 21.5 12C21.7761 12 22 12.2239 22 12.5Z" stroke="#002858" stroke-width="2"/>
<path d="M17 17.5C17 17.7761 16.7761 18 16.5 18C16.2239 18 16 17.7761 16 17.5C16 17.2239 16.2239 17 16.5 17C16.7761 17 17 17.2239 17 17.5Z" stroke="#002858" stroke-width="2"/>
<path d="M22 17.5C22 17.7761 21.7761 18 21.5 18C21.2239 18 21 17.7761 21 17.5C21 17.2239 21.2239 17 21.5 17C21.7761 17 22 17.2239 22 17.5Z" stroke="#002858" stroke-width="2"/>
<path d="M7 17.5C7 17.7761 6.77614 18 6.5 18C6.22386 18 6 17.7761 6 17.5C6 17.2239 6.22386 17 6.5 17C6.77614 17 7 17.2239 7 17.5Z" stroke="#002858" stroke-width="2"/>
<path d="M12 17.5C12 17.7761 11.7761 18 11.5 18C11.2239 18 11 17.7761 11 17.5C11 17.2239 11.2239 17 11.5 17C11.7761 17 12 17.2239 12 17.5Z" stroke="#002858" stroke-width="2"/>
<path d="M7 22.5C7 22.7761 6.77614 23 6.5 23C6.22386 23 6 22.7761 6 22.5C6 22.2239 6.22386 22 6.5 22C6.77614 22 7 22.2239 7 22.5Z" stroke="#002858" stroke-width="2"/>
<path d="M12 22.5C12 22.7761 11.7761 23 11.5 23C11.2239 23 11 22.7761 11 22.5C11 22.2239 11.2239 22 11.5 22C11.7761 22 12 22.2239 12 22.5Z" stroke="#002858" stroke-width="2"/>
<path d="M17 22.5C17 22.7761 16.7761 23 16.5 23C16.2239 23 16 22.7761 16 22.5C16 22.2239 16.2239 22 16.5 22C16.7761 22 17 22.2239 17 22.5Z" stroke="#002858" stroke-width="2"/>
<path d="M6 1V3" stroke="#002858" stroke-width="2" stroke-linecap="round" stroke-linejoin="round"/>
<path d="M22 1V3" stroke="#002858" stroke-width="2" stroke-linecap="round" stroke-linejoin="round"/>
</svg>
