<svg version="1.2" xmlns="http://www.w3.org/2000/svg" viewBox="0 0 271 328" width="271" height="328"><style>.a{fill:#f7a561}.b{fill:#ffbe83}.c{fill:#ff9c85}.d{fill:#7772d3}.e{fill:#ea6d59}.f{fill:#6876aa}.g{fill:#7b9b75}.h{fill:#fff}.i{fill:#aaa0af}.j{fill:#e55b4c}.k{fill:#ef7467}.l{fill:#4d4d8c}</style><rect class="a" x="25.1" y="128.8" width="70.2" height="23.1" rx="6.9"></rect><rect class="a" x="35.7" y="108.4" width="49" height="23.1" rx="6.9"></rect><rect class="a" x="42.8" y="93.5" width="34.7" height="16.3" rx="4.5"></rect><rect class="b" x="28.1" y="129" width="70.2" height="23.1" rx="6.9"></rect><rect class="b" x="38.7" y="108.6" width="49" height="23.1" rx="6.9"></rect><rect class="b" x="45.8" y="93.7" width="34.7" height="16.3" rx="4.5"></rect><path fill-rule="evenodd" class="b" d="m211.2 128.9q-0.2 0-0.4 0c-5.3-0.6-13.9-13.8-14.2-14.4-0.2-0.2-0.1-0.4 0-0.6 0.1-0.1 0.4-0.2 0.6-0.1 0.6 0.3 15.8 7.3 16.7 12.2 0.1 0.8-0.1 1.5-0.8 2.1q-0.8 0.8-1.9 0.8zm-12.8-13.4c2.4 3.5 8.6 12 12.5 12.4 0.6 0.1 1.1-0.1 1.5-0.5 0.4-0.4 0.6-0.8 0.5-1.3-0.6-3.2-9.5-8.2-14.5-10.6z"/><path  d="m171.5 2.9q13.7-5.5 17.2 22.9 3.5 28.5 3.1 39.6l-41.3 0.3 3.3-38.2z"/><path class="c" d="m158 277.7l0.1 15.5-28-1-0.1-14.3z"/><path class="c" d="m199.7 276.3l0.1 15.4-26-0.9v-14.4z"/><path class="d" d="m200.1 119.2c1.1 9.9 15.2 158.5 14.1 161.3-0.6 1.7-78.3 1.8-99 1.8-2.6 0-4.7-2.3-4.4-4.9 1.3-12.1 5.2-45 11.6-83.6q9.2-55.7 15.5-85.9 58.8-19 62.2 11.3z"/><path class="e" d="m167.8 315.7q0.1-0.9 0.5-2c0.7-3 1.9-6.6 1.9-8.4v-1.9c0-2 0.8-14.8 2.6-16.3q1.8-1.6 27 0 2.2 0.6 3.1 3.3c0.9 2.7 2.3 8.5 3.2 11.2 0.7 2 3.3 5.9 4.6 7.8q0.9 1.2 1.4 2.5c0.4 0.9 1 2.2 1.5 3.5q0 0.2 0.1 0.4c1 2.7 1.9 5.4 1.5 6-0.9 1.1-3.5 2.1-15.7 3.3-12.8 1.2-27.4-0.4-29.2-1.1-1.8-0.8-2.7-3.9-2.7-6.6q0-0.7 0.2-1.7z"/><path class="e" d="m85.5 315.2c1.1-4.2 3.4-8.7 6.9-9.4q6.7-1.1 12.8 0l22.3-18.4q34.3-0.9 34.4 1 0.2 2-0.3 6.2 0 12.3-0.5 20.7c-0.2 3.5-0.6 6.3-1.1 7.1-1.6 2.8-73.1 1.1-74.8 0.4-0.8-0.3-0.7-3.8 0.3-7.6z"/><path class="b" d="m85.5 315.2c28.6 3.2 62 1.1 75.6 0.1-0.2 3.5-0.6 6.3-1.1 7.1-1.6 2.8-73.1 1.1-74.8 0.4-0.8-0.3-0.7-3.8 0.3-7.6z"/><path class="b" d="m167.8 315.7q0.1-0.9 0.5-2c13.6 4 34.1 3.1 45.4 2.1 1 2.7 1.9 5.4 1.5 6-0.9 1.1-3.5 2.1-15.7 3.3-12.8 1.2-27.4-0.4-29.2-1.1-1.8-0.8-2.7-3.9-2.7-6.6q0-0.7 0.2-1.7z"/><path class="b" d="m199.2 300.6q-0.1 0-0.2-0.1c-0.1 0-9.9-2.6-14.8-1.7l-5.1 0.9c-0.2 0-0.4-0.1-0.5-0.3-0.1-0.2-0.1-0.4 0.1-0.6 0.3-0.3 9.2-8.1 14.5-5.8 0.3 0.1 0.4 0.4 0.3 0.7-0.1 0.2-0.4 0.4-0.7 0.2-3.5-1.5-9.3 2.4-12 4.5l3.2-0.6c5.2-1 14.9 1.7 15.3 1.8 0.3 0 0.4 0.3 0.4 0.6-0.1 0.2-0.3 0.4-0.5 0.4z"/><path class="b" d="m110.6 301.9c-0.3 0-0.5-0.2-0.5-0.5-0.1-0.2 0.1-0.5 0.4-0.5l11.8-1.4-3.9-4.6c-0.1-0.2-0.1-0.6 0.1-0.7 0.2-0.2 0.5-0.2 0.7 0l4.5 5.4c0.1 0.2 0.1 0.4 0 0.5 0 0.2-0.2 0.3-0.4 0.3l-12.7 1.5q0 0 0 0z"/><path class="f" d="m198 141.1q-0.1 0-0.3-0.1c-8.1-5.9-10.2-14.3-10.3-14.6-0.1-0.3 0.1-0.6 0.4-0.6 0.2-0.1 0.5 0.1 0.6 0.3 0 0.1 2.1 8.4 9.9 14.1 0.2 0.1 0.3 0.5 0.1 0.7q-0.1 0.2-0.4 0.2z"/><path class="g" d="m183 44.6c7.9 1.8 41.4 12.8 43.8 37.6q2.4 24.9-32.1 29.2-6.6 14.3-28.3 13.3-21.7-1-30-9.9-23.4 3.2-30.3-11.7c-3.4-7.2-6.1-15.4 11.4-36.7q17.5-21.2 38.4-22.8 19.1-0.8 27.1 1z"/><path class="b" d="m158.2 43.5q-4.4 7.8-6 17.3-1.7 10-1.8 17.5l26.6-0.9q-1.2-5.3-1.6-11.9-0.4-6.5 0.3-21.8 1.1 0.1 4.7 0.4 3.6 0.4 4.9 1.1 0.3 12.7 2.7 24.8 2.4 12.2 10 23.7l5.1 59c1.7 19.6-13 37-32.6 38.2q-2.8 0.1-5.8 0.1-0.5 0-0.9 0c-21.6-0.5-37.5-20.2-33.7-41.4l8.7-48.9q-2.1-15.7 1.7-31.7 3.8-16 10.4-24.5 1.8-0.5 7.3-1z"/><path class="c" d="m172.6 32.7l0.5 11.3q-1 2.6-7.6 3.4-4.9 0.6-7.6-1.1l0.9-10 11.8-3.1z"/><path  d="m172.6 32q0 0.5-0.3 1.1c-2.3 5.8-11.2 8.4-14 8.8l0.5-5.6z"/><path class="c" d="m174.4 17.7l-1.9 4.2q2.6-1.8 5-0.9c2.3 0.8 4.2 5 1.7 8.9q-2.5 3.9-6.6 2.8-1.8 2.7-6.1 4.5c-4.2 1.8-11.4 3.4-14-4.4q-2.7-7.8 2.8-22.2 9-13.3 19.1 7.1z"/><path  d="m156.5 27.8q-0.2 0-0.3-0.1c-2.4-2-0.2-6.7-0.1-6.8 0.1-0.3 0.4-0.4 0.6-0.3 0.3 0.1 0.4 0.4 0.3 0.7-0.6 1.1-1.6 4.4-0.2 5.7 0.2 0.1 0.2 0.5 0.1 0.7q-0.2 0.1-0.4 0.1z"/><path  d="m173.4 28.5q-0.1 0-0.3-0.1c-0.2-0.2-0.2-0.5 0-0.7l3.6-4.3c0.1-0.2 0.4-0.2 0.7 0 0.2 0.1 0.2 0.4 0 0.7l-3.6 4.2q-0.1 0.2-0.4 0.2z"/><path  d="m177.4 27.2q0 0-2.7-0.2c-0.3-0.1-0.5-0.3-0.4-0.6 0-0.3 0.2-0.5 0.5-0.4l2.7 0.2c0.3 0 0.5 0.3 0.4 0.5 0 0.3-0.2 0.5-0.5 0.5z"/><path  d="m153.4 17.1c-0.2 0-0.4-0.1-0.5-0.4-0.1-0.2 0.1-0.5 0.4-0.6l1.7-0.4c0.3-0.1 0.6 0.1 0.6 0.4 0.1 0.2-0.1 0.5-0.3 0.6l-1.8 0.4q0 0-0.1 0z"/><path  d="m163.3 17.4q0 0-3.6-0.5c-0.3 0-0.5-0.3-0.5-0.5 0.1-0.3 0.3-0.5 0.6-0.5l3.6 0.5c0.3 0 0.5 0.3 0.4 0.6 0 0.2-0.2 0.4-0.5 0.4z"/><path  d="m153.8 22.9q-0.1 0-0.2 0c-0.2-0.1-0.4-0.3-0.3-0.6l0.5-2.3-0.6-0.8c-0.2-0.2-0.2-0.5 0-0.7 0.2-0.2 0.5-0.1 0.7 0.1l0.8 0.9q0.2 0.2 0.2 0.4l-0.7 2.6c0 0.3-0.2 0.4-0.4 0.4z"/><path  d="m160.9 23.1q0 0-0.1 0c-0.3 0-0.4-0.3-0.4-0.6l0.6-2.3-1-1c-0.2-0.2-0.2-0.5 0-0.7 0.2-0.2 0.6-0.2 0.7 0l1.2 1.2c0.1 0.1 0.2 0.3 0.1 0.5l-0.6 2.6c0 0.2-0.2 0.3-0.5 0.3z"/><path  d="m158.6 31.9q-0.2 0-0.3 0c-0.3 0-0.5-0.2-0.5-0.5 0-0.3 0.3-0.5 0.5-0.5 2.9 0.2 3.8-1.7 3.8-1.8 0.1-0.3 0.5-0.4 0.7-0.2 0.2 0.1 0.4 0.4 0.2 0.6 0 0.1-1.1 2.4-4.4 2.4z"/><path  d="m172.5 21.9q-2.4-0.3-4.8-3-2.5-2.7-2.4-7.5-2.4 1.2-5.4 1.4-2.9 0.3-5-1.2-3-1.8-2.7-5.3 0.3-3.5 4.1-3 3-2.6 8.2-2.9 5.2-0.3 7 2.5 4.7-0.2 6.6 1.9 1.9 2.1 2.2 5.4 2.1 0.5 3.1 4.8 1 4.3-3.5 8.5-2.7-3.6-7.4-1.6z"/><path class="h" d="m163.8 48c-4.4 0-7-2-7-2-0.2-0.2-0.3-0.5-0.1-0.7 0.2-0.2 0.5-0.3 0.7-0.1 0.3 0.2 6.4 4.9 16.1-1.4 0.3-0.2 0.6-0.1 0.7 0.1 0.2 0.2 0.1 0.6-0.1 0.7-4 2.6-7.5 3.4-10.3 3.4z"/><path class="i" d="m266.3 163.8h-261.4c-2.4 0-4.4-2-4.4-4.4 0-2.5 2-4.5 4.4-4.5h261.4c2.5 0 4.5 2 4.5 4.5 0 2.4-2 4.4-4.5 4.4z"/><path class="i" d="m23.6 327.3c-3.4 0-6-2.6-6-6v-161.2h11.9v161.2c0 3.4-2.6 6-5.9 6z"/><path class="i" d="m248.4 327.3c-3.3 0-6-2.6-6-6v-161.2h12v161.2c0 3.4-2.7 6-6 6z"/><circle class="j" cx="199.7" cy="129.1" r="7.8"/><circle class="k" cx="211.8" cy="124.9" r="7.8"/><circle class="j" cx="224.8" cy="130.3" r="7.8"/><path class="d" d="m218.6 154.8h-12.7c-9.5 0-17.3-7.8-17.3-17.3v-5.5c0-1 0.8-1.8 1.8-1.8h43.6c1 0 1.8 0.8 1.8 1.8v5.5c0 9.5-7.7 17.3-17.2 17.3z"/><path class="h" d="m144.1 81.1c-0.3 0-0.5-0.2-0.5-0.5 0-0.3 0.2-0.5 0.5-0.5l17.4-1c0.3 0 0.5 0.2 0.5 0.5 0.1 0.3-0.2 0.5-0.4 0.5l-17.5 1q0 0 0 0z"/><path class="d" d="m101.8 154.8h-80.2c-1.3 0-2.3-1-2.3-2.2 0-1.3 1-2.3 2.3-2.3h80.2c1.2 0 2.2 1 2.2 2.3 0 1.2-1 2.2-2.2 2.2z"/><path class="g" d="m182.2 154.9h-68.6c-1.8 0-3.3-1.5-3.3-3.4 0-1.8 1.5-3.3 3.3-3.3h68.6c1.8 0 3.3 1.5 3.3 3.3 0 1.9-1.5 3.4-3.3 3.4z"/><path class="g" d="m138.8 90.2l4.6 24.7q-16.5 2.1-29.4-3.5-12.9-5.7 7.6-21.2z"/><path class="c" d="m148.3 102.9q5.6 8.3-1.8 11.4-7.5 3.1-12.6-7.2z"/><path class="l" d="m174.1 78.9q9.5-19.3 10.8-18 1.4 1.3-17.8 39.8l-3.3-2.5z"/><path class="j" d="m165.3 109.8h-14.5c-7 0-12.8-5.7-12.8-12.8v-9.9h40.1v9.9c0 7.1-5.7 12.8-12.8 12.8z"/><ellipse class="h" cx="156.7" cy="87.1" rx="18.7" ry="1.3"/><path class="c" d="m187 104.9q-3.7 0.4-9.3-1.6-5.6-2.1-7.1-10.5-3.4-1.1-4.5-3.1-1-1.9 2.4-2.9-2.7-1-1.9-2.4 0.8-1.4 4.5-2.2-1.9-0.6-3.1-1.6c-1.2-1-4.4-3.8-3.4-4.9 1-1 14.6 3.9 15.6 4.9q1 1 6.8 14.2z"/><path class="c" d="m182.3 87.8q2.8-9.7 4.3-6.6 1.4 3.1 0.4 13.6l-4.1-1.5z"/><path class="c" d="m134.4 103.2q-6.6 2.7-6.3-1.2c0.4-3.9 10.8-11.5 13.8-8.8q3.1 2.7-7.5 10z"/><path class="c" d="m137.9 107.9q-6.6 2.7-6.2-1.2c0.3-3.9 10.7-11.5 13.7-8.8q3.1 2.7-7.5 10z"/><path class="c" d="m143.9 109.7c-1.3 0.9-2.8 1.5-4.4 1.6-1.5 0.1-2.8-0.2-2.6-1.9 0.4-3.4 9.9-9.7 12.5-7.2 2 1.8-2.9 5.6-5.5 7.5z"/><path  d="m132.3 103.3q-0.3 0-0.4-0.2c-0.2-0.2-0.1-0.5 0.1-0.7l8.2-5.4c0.2-0.1 0.5-0.1 0.7 0.2 0.1 0.2 0.1 0.5-0.1 0.7l-8.2 5.4q-0.2 0-0.3 0z"/><path  d="m136.6 107.9q-0.2 0-0.4-0.2c-0.1-0.3-0.1-0.6 0.2-0.7l8.1-5.4c0.3-0.2 0.6-0.1 0.7 0.1 0.2 0.2 0.1 0.5-0.1 0.7l-8.2 5.4q-0.1 0.1-0.3 0.1z"/><path  d="m177.7 83.5q-0.1 0-6.6-0.8c-0.3 0-0.5-0.2-0.5-0.5 0.1-0.3 0.3-0.5 0.6-0.5l6.5 0.8c0.3 0 0.5 0.2 0.4 0.5 0 0.3-0.2 0.5-0.4 0.5z"/><path  d="m174.8 87.8q0 0-6.4-0.5c-0.3 0-0.5-0.3-0.4-0.5 0-0.3 0.2-0.5 0.5-0.5l6.3 0.5c0.3 0.1 0.5 0.3 0.5 0.6 0 0.2-0.2 0.4-0.5 0.4z"/><path  d="m185.3 93c-0.2 0-0.4-0.1-0.5-0.3l-2.3-6.7c-0.1-0.3 0-0.5 0.3-0.6 0.2-0.1 0.5 0 0.6 0.3l2.4 6.6c0.1 0.3-0.1 0.6-0.3 0.7q-0.1 0-0.2 0z"/><path class="h" d="m135.3 89.7q-0.1 0-0.2-0.1c-0.2-0.1-10.7-6.1-19.9-5.7-0.3 0.1-0.5-0.2-0.5-0.5 0-0.2 0.2-0.5 0.4-0.5 9.5-0.4 20 5.6 20.5 5.8 0.2 0.2 0.3 0.5 0.1 0.7-0.1 0.2-0.2 0.3-0.4 0.3z"/><path class="g" d="m195.8 82.2l-10.5-37q5.5 0.1 20.6 8.9c15.2 8.9 26.5 27.6 17.4 44.3q-9.1 16.7-36.3 15.9v-24.1z"/><path class="h" d="m188.9 88.4q-0.2 0-0.4-0.1c-0.2-0.2-0.2-0.5 0-0.7 0.1-0.1 10.5-10.4 25-14.9 0.2 0 0.5 0.1 0.6 0.4 0.1 0.2-0.1 0.5-0.3 0.6-14.3 4.4-24.5 14.5-24.6 14.6q-0.1 0.1-0.3 0.1z"/><path fill-rule="evenodd" class="h" d="m199.1 80.1q-0.1 0-0.2 0c-0.2-0.2-0.3-0.4-0.2-0.6 0.2-1 2.4-10 6.3-10q0.1 0 0.1 0c0.8 0.1 1.1 0.5 1.3 0.8 0.7 2-5.1 7.9-6.9 9.7q-0.2 0.1-0.4 0.1zm5.9-9.6c-2.1 0-3.9 4.4-4.9 7.4 3-3.1 5.6-6.4 5.3-7.3 0 0-0.2-0.1-0.3-0.1q0 0-0.1 0z"/><path fill-rule="evenodd" class="h" d="m125.2 85q0 0-0.1 0c-0.7-0.2-6.9-2-7.6-4.5-0.1-0.5-0.1-1.2 0.7-2 0.6-0.6 1.4-0.8 2.1-0.7 2.7 0.5 5.1 5.9 5.4 6.5 0.1 0.2 0 0.4-0.1 0.5q-0.1 0.2-0.4 0.2zm-5.3-6.2q-0.5 0-1 0.4c-0.5 0.5-0.5 0.9-0.4 1.1 0.3 1.2 3.4 2.6 5.8 3.4-0.9-1.8-2.6-4.6-4.2-4.9q-0.1 0-0.2 0z"/></svg>