<svg version="1.2" xmlns="http://www.w3.org/2000/svg" viewBox="0 0 320 242" width="320" height="242"><style>.a{fill:#d2cad8}.b{fill:#ff9c85}.c{fill:#fff}.d{fill:#7b9b75}.e{fill:#aaa0af}.f{fill:#988f9e}.g{fill:#ddd7e0}.h{fill:#bbafc0}.i{fill:#6876aa}.j{fill:#ffbe83}.k{fill:#6262c4}.l{fill:#ea6d59}.m{fill:#534579}.n{fill:#7772d3}.o{fill:#f7a561}.p{fill:#7c6053}.q{fill:#aeaeff}</style><rect class="a" x="28.8" y="38.1" width="264.5" height="158.7" rx="17.8"></rect><path class="b" d="m161.1 45.9q-2.9-2.7-2.9-5.1c0-2.5 1.5-1.4 4 0q2.5 1.3 6 9l-12.6 14q-14.5-16.7-16-22.4-1.6-5.6 7.3-5.7z"/><path class="c" d="m118.5 46.4h-70.2c-0.3 0-0.5-0.2-0.5-0.5 0-0.2 0.2-0.5 0.5-0.5h70.2c0.2 0 0.5 0.3 0.5 0.5 0 0.3-0.3 0.5-0.5 0.5z"/><path class="d" d="m201.1 114.2q-27.2 4.8-34-12.7-9.9-24.9 43-47.7z"/><path class="d" d="m192 118l18.1-64.2q37.8-16 54.1 3.2 16.3 19.2-3 89.1z"/><path class="c" d="m195.9 89.8q0 0-0.1 0c-0.3-0.1-0.4-0.4-0.3-0.7 0-0.1 6.2-14.9 13.7-22.5 0.2-0.2 0.5-0.2 0.7 0 0.2 0.2 0.2 0.5 0 0.7-7.3 7.5-13.4 22.1-13.5 22.2-0.1 0.2-0.3 0.3-0.5 0.3z"/><path class="e" d="m305.5 185.6v7.5q0 2.9-0.7 5.7c-2.5 9.2-11 16-21.1 16h-245.4c-10.1 0-18.5-6.8-21-16q-0.8-2.8-0.8-5.7v-7.5c0-12.1 9.8-21.8 21.8-21.8h245.4c12.1 0 21.8 9.7 21.8 21.8z"/><path class="f" d="m36 241.3h-1.1c-2.8 0-5.1-2-5.4-4.8l-3.9-28.9h17.1l-1.2 28.4c-0.2 3-2.6 5.3-5.5 5.3z"/><path class="f" d="m280.7 236l-1.3-28.4h17.2l-3.9 28.9c-0.4 2.8-2.7 4.8-5.4 4.8h-1.2c-2.9 0-5.3-2.3-5.4-5.3z"/><circle class="g" cx="26.8" cy="154.1" r="26.6"/><path class="f" d="m304.8 198.8c-2.5 9.2-11 16-21.1 16h-245.4c-10.1 0-18.5-6.8-21-16z"/><circle class="h" cx="26.8" cy="154.1" r="11.8"/><path fill-rule="evenodd" class="i" d="m199.9 137.9l-0.4-1.2c-0.3-1.1-3.3-10.9-1.3-12.9 0.3-0.3 0.9-0.6 1.7-0.3q1.2 0.4 1.7 1.6c1.7 3.5-1.2 11.3-1.3 11.6zm-0.6-13.6c-0.2 0-0.4 0-0.4 0.1-1.2 1.1-0.1 6.7 1.1 10.8 0.7-2.4 2-7.4 0.9-9.8q-0.4-0.8-1.2-1.1-0.3 0-0.4 0z"/><path class="j" d="m223.7 50.8q3.4-8.4 19.4-8 16.1 0.3 18.1 10.1l-28.1 10.1z"/><ellipse class="f" cx="206.8" cy="174.6" rx="53.9" ry="8.7"/><path class="k" d="m196.7 130.9l19.8 39.9-57.6-8.8 0.1 8.6-46.9 7.5q-35.8-87.7-1.5-90.9 34.3-3.2 81.4 30.8z"/><path class="j" d="m146.4 121.6c-0.2 0-0.4-0.2-0.5-0.4 0 0-3.2-7.3-8.1-13-0.2-0.2-0.2-0.6 0-0.7 0.2-0.2 0.5-0.2 0.7 0 5 5.8 8.3 13.3 8.3 13.4 0.1 0.2 0 0.5-0.2 0.6q-0.1 0.1-0.2 0.1z"/><path class="b" d="m250.1 37.3l-0.3 12.5q-2.3 3.5-9.6 4-5.5 0.3-7.3-1l0.9-6.3 0.9-6.2 13.2-2.5z"/><path  d="m247.7 38.8q-0.1 0.5-0.4 1.2c-2.9 5.9-10.5 7-13.6 7.2l0.9-5.9z"/><path class="b" d="m252.7 22.8l-2.3 4.3q2.9-1.8 5.3-0.7c2.4 1.1 4.2 5.6 1.3 9.6q-2.9 3.9-7.2 2.4-2.1 2.8-6.7 4.4c-4.6 1.5-12.2 2.8-14.5-5.6q-2.2-8.4 4.4-23.2 10.4-13.3 19.7 8.8z"/><path  d="m233.5 32.9c-0.2 0-0.4-0.1-0.4-0.3-1-3.2 1.2-6.5 1.3-6.6 0.2-0.2 0.5-0.3 0.7-0.1 0.2 0.2 0.3 0.5 0.1 0.7 0 0-2 3-1.2 5.7 0.1 0.3-0.1 0.5-0.3 0.6q-0.1 0-0.2 0z"/><path  d="m251 34.1q-0.2 0-0.3-0.2c-0.2-0.1-0.2-0.5-0.1-0.7l4.1-4.2c0.2-0.2 0.5-0.3 0.7-0.1 0.2 0.2 0.2 0.5 0 0.7l-4 4.3q-0.2 0.2-0.4 0.2z"/><path  d="m255.3 32.9q-0.1 0-2.9-0.4c-0.3 0-0.4-0.3-0.4-0.6 0-0.2 0.3-0.4 0.6-0.4l2.8 0.4c0.2 0.1 0.4 0.3 0.4 0.6-0.1 0.3-0.3 0.4-0.5 0.4z"/><path  d="m250.4 27.1q-1.6 1-2.7-0.8-1.1-1.7 1.4-6.9-4.6 1.1-7.5-0.5-2.8-1.5-4.2-5.7-2.1 4.4-8.4 2.4c-6.3-1.9-7.5-10.5-0.8-12.2q6.8-1.8 10.4 1.2 0.9-6.2 9.2-3.1 7.6 2.8 8.8 12.3 4.6 0.2 5.4 5.2 0.9 4.9-4.9 8.5-3.3-2-6.7-0.4z"/><path  d="m240.3 27.4c-0.3 0-0.5-0.3-0.5-0.6l0.4-2.7c0-0.3 0.2-0.5 0.5-0.5 0.3 0.1 0.5 0.3 0.4 0.6l-0.3 2.8c0 0.2-0.3 0.4-0.5 0.4z"/><path  d="m232.1 26.7c-0.4 0-0.6-0.3-0.5-0.5l0.4-2.8c0-0.3 0.2-0.5 0.5-0.4 0.3 0 0.5 0.3 0.5 0.5l-0.4 2.8c-0.1 0.2-0.3 0.4-0.5 0.4z"/><path  d="m242.9 22.1c-0.2 0-0.4-0.1-0.5-0.3-0.6-1.3-2.4-0.9-2.5-0.9-0.2 0.1-0.5-0.1-0.6-0.4 0-0.3 0.1-0.5 0.4-0.6 0.1 0 2.6-0.5 3.6 1.5 0.2 0.2 0.1 0.5-0.2 0.6q-0.1 0.1-0.2 0.1z"/><path  d="m234.8 20.4q-0.2 0-0.4-0.3-0.3-0.5-0.9-0.6c-0.7-0.1-1.5 0.5-1.7 0.7-0.3 0.2-0.6 0.2-0.8 0-0.1-0.2-0.1-0.5 0.1-0.7 0-0.1 1.2-1.1 2.6-1q0.9 0.2 1.6 1.1c0.1 0.2 0.1 0.5-0.2 0.7q-0.1 0.1-0.3 0.1z"/><path class="l" d="m157.2 179c-1.8 6.9-50.2 10.5-52 10.8-1.8 0.3-15.8-0.8-20.3-3.3-3.3-1.8-0.5-13.1 2.6-16.3q3.2-3.3 12.8-4.4l30-16.5 29.5 2.6q-1.5 22.8-2.6 27.1z"/><path class="l" d="m67.1 188.4c-7.1 0.9-28.2-42.8-29.2-44.3-0.9-1.6-5-15-4.3-20.2 0.4-3.7 12-5.3 16.1-3.5q4.2 1.8 8.8 10.3l26.3 21.8 8.4 28.4q-21.7 7-26.1 7.5z"/><path class="m" d="m245.9 147.6q-0.1 0-0.2-0.1c-0.3 0-0.4-0.3-0.4-0.6l1.8-6.5c0-0.3 0.3-0.5 0.6-0.4 0.3 0.1 0.5 0.4 0.4 0.7l-1.7 6.5c-0.1 0.2-0.3 0.4-0.5 0.4z"/><path class="m" d="m194.9 131.3c-0.3-0.1-0.5-0.3-0.5-0.6l0.2-6.9c0-0.3 0.3-0.6 0.5-0.5 0.3 0 0.6 0.2 0.6 0.5l-0.2 6.9c0 0.3-0.3 0.6-0.6 0.6z"/><path class="m" d="m200.7 135.6c-0.3 0-0.6-0.3-0.6-0.6v-7.3c0-0.3 0.3-0.6 0.6-0.6 0.3 0.1 0.5 0.3 0.5 0.6v7.3c0 0.3-0.2 0.6-0.5 0.6z"/><path  d="m237.1 37.1q-0.5 0.1-1-0.1c-0.3-0.1-0.5-0.3-0.4-0.6 0.1-0.3 0.4-0.4 0.6-0.4 2.2 0.6 3.5-1.4 3.5-1.5 0.2-0.3 0.5-0.3 0.7-0.2 0.3 0.1 0.3 0.4 0.2 0.7-0.5 0.8-1.8 2.1-3.6 2.1z"/><path class="n" d="m239.3 180.9c-14.7 4.7-56.1-12.7-63.4-13.5q-6.4-0.7-81.3 19.6l-21.3-48.7q66-22 90.9-27.1 30.9-6.2 97 34.9-7.2 30.1-21.9 34.8z"/><path fill-rule="evenodd" class="j" d="m174.5 167.9q-0.2 0-0.3-0.1c-0.9-0.9-8.5-8.9-7.3-12.1 0.2-0.5 0.8-1.2 2.2-1.3q1.9-0.1 3.3 1.2c3.1 3.1 2.6 11.5 2.6 11.8 0 0.2-0.1 0.4-0.3 0.5q-0.1 0-0.2 0zm-5-12.5q-0.2 0-0.3 0c-1.1 0.1-1.3 0.5-1.3 0.7-0.7 1.8 3.1 6.8 6.2 10.1 0-2.4-0.2-7.7-2.4-9.9q-1-0.9-2.2-0.9z"/><circle class="g" cx="292.7" cy="152.3" r="26.6"/><circle class="h" cx="292.7" cy="152.3" r="11.8"/><path class="c" d="m243.3 69.7c-0.2 0-0.4-0.1-0.4-0.3l-2.9-7.4c-0.1-0.2 0-0.5 0.3-0.6 0.2-0.1 0.5 0 0.6 0.3l2.9 7.4c0.1 0.2 0 0.5-0.3 0.6q-0.1 0-0.2 0z"/><path class="c" d="m226.5 67.5q-0.1 0-0.2-0.1c-0.2-0.1-0.3-0.4-0.2-0.7l3.3-6.2c0.1-0.3 0.4-0.4 0.6-0.3 0.3 0.2 0.4 0.5 0.3 0.7l-3.3 6.3c-0.1 0.2-0.3 0.3-0.5 0.3z"/><path class="d" d="m167.3 47.2l38.7 18q5.7 20.3-20.8 24.1-26.5 3.8-36.5-24.1z"/><path class="o" d="m147.6 80c3.4-11.8 26.7-27.6 39.1-26.3 14.5 1.6 14.7 17.7 16 22.6q1.2 4.9 6.4 5.4c9.4 0.5 27.4 9.8 29.5 28.3 2.3 20-38.2 50-58.7 39.4-16.6-8.5-18.1-29.2-15-38.1q1.5-5-2.5-8c-4.1-2.9-18.9-9.3-14.8-23.3z"/><path class="j" d="m151.2 78.8c3.4-11.8 26.7-27.6 39.2-26.3 14.5 1.6 14.7 17.7 15.9 22.6q1.2 4.8 6.4 5.4c9.4 0.5 27.5 9.8 29.6 28.3 2.2 20-38.3 50-58.8 39.4-16.6-8.5-18-29.2-15-38.1q1.5-5-2.5-8c-4-3-18.9-9.3-14.8-23.3z"/><circle  cx="184.8" cy="84.5" r="10.8"/><path class="p" d="m182.9 74.6l-8.1 5.8c-0.6 0.4-1.4 0.2-1.8-0.4l-29-49.1q-9.5-2.2-10-2.5c-0.5-0.4-6.2-12.6-6.2-13.5 0-0.8 6.5-7.4 8.3-7.6 1.7-0.1 14.3 9.2 14.6 10.2q0.3 1.1-0.1 8.9l32.5 46.5c0.4 0.6 0.3 1.3-0.2 1.7z"/><path class="c" d="m212.7 113.2l-63.6-85.9q0-0.1-0.7-10.5h0.5l0.7 10.3 63.5 85.8z"/><path class="c" d="m197.9 122.7l-52.9-92-10.7-4.6 0.2-0.5 10.8 4.7q0.1 0.1 53 92.2z"/><path class="c" d="m206.3 116.8l-59.3-87.9-10.8-20.4 0.5-0.2 10.7 20.4 59.3 87.9z"/><path class="c" d="m201 121.3l-55-91.5-14.7-8.4 0.2-0.5 14.9 8.6 55.1 91.6z"/><path class="c" d="m209 114.8l-60.6-86.6-6.4-15.5 0.4-0.2 6.4 15.5 60.7 86.5z"/><path class="c" d="m204 119.3l-59.6-93.3-14.9-10.6 0.3-0.4 15 10.7 59.6 93.3z"/><path class="c" d="m195 124.5c-0.5-0.8-0.3-1.8 0.5-2.4l18.3-11.8c0.8-0.5 1.8-0.3 2.4 0.5 0.5 0.8 0.3 1.9-0.5 2.4l-18.3 11.9c-0.8 0.5-1.8 0.2-2.4-0.6z"/><path class="j" d="m148.7 17.9c-0.7 0-1.3-0.5-1.3-1.3v-2.7c0-0.8 0.6-1.4 1.3-1.4 0.8 0 1.3 0.6 1.3 1.4v2.7c0 0.8-0.5 1.3-1.3 1.3z"/><path class="j" d="m142.2 13.8c-0.7 0-1.3-0.6-1.3-1.3v-2.8c0-0.7 0.6-1.3 1.3-1.3 0.7 0 1.3 0.6 1.3 1.3v2.8c0 0.7-0.6 1.3-1.3 1.3z"/><path class="j" d="m136.4 10c-0.7 0-1.3-0.5-1.3-1.3v-2.7c0-0.8 0.6-1.4 1.3-1.4 0.7 0 1.3 0.6 1.3 1.4v2.7c0 0.8-0.6 1.3-1.3 1.3z"/><path class="j" d="m134.9 26.9l-2.8 0.4c-0.7 0.1-1.3-0.4-1.5-1.1-0.1-0.7 0.4-1.4 1.2-1.5l2.7-0.4c0.7-0.1 1.4 0.4 1.5 1.1 0.1 0.8-0.4 1.4-1.1 1.5z"/><path class="j" d="m132.4 21.5l-2.7-0.1c-0.8-0.1-1.3-0.7-1.3-1.4 0.1-0.7 0.7-1.3 1.4-1.2l2.8 0.1c0.7 0.1 1.3 0.7 1.2 1.4 0 0.8-0.7 1.3-1.4 1.2z"/><path class="j" d="m128.8 15.9l-2.7-0.7c-0.7-0.2-1.1-0.9-0.9-1.6 0.2-0.7 1-1.1 1.6-0.9l2.7 0.7c0.7 0.2 1.1 0.9 0.9 1.6-0.2 0.7-0.9 1.1-1.6 0.9z"/><path class="q" d="m177.3 120.9c0-2.3 1.9-4.2 4.2-4.2h2.6c2.4 0 4.3 1.9 4.3 4.2 0 2.4-1.9 4.3-4.3 4.3h-2.6c-2.3 0-4.2-1.9-4.2-4.3z"/><circle class="l" cx="195.5" cy="135.6" r="7.1"/><path class="b" d="m235 107.3c-8.4 9.5-30.5 9.4-31.7 7.2q-1.1-2.2 1.5-2.8-7.1 0.7-8.1-2.1-0.8-2.3 1.7-3.8-4.8 0-3.6-3.2 1.1-3.3 21.1-8.2-9 2.2-9.7-0.3c-0.6-2.6 8.6-5.8 10.9-6.4q3.1-0.9 19 8.2 7.3 2-1.1 11.4z"/><path class="b" d="m236.1 95.9l10.6 5.7-3.1 17.1-18.5-7z"/><path class="d" d="m255.9 50.7q54 26.5 41.7 68.9-9.9 34.2-69.4 4.2l3.2-32.2 30.7 3.3z"/><path class="c" d="m279.4 94.2c-17-2.8-36-0.8-36.2-0.8-0.3 0-0.5-0.2-0.6-0.4 0-0.3 0.2-0.6 0.5-0.6 0.2 0 19.3-2 36.4 0.8 0.2 0.1 0.4 0.3 0.4 0.6-0.1 0.3-0.3 0.4-0.5 0.4z"/><path fill-rule="evenodd" class="c" d="m263.4 92.4c-0.2 0-0.4-0.2-0.4-0.4-0.1-0.2-0.1-0.4 0.1-0.5 0.3-0.2 6.8-5.6 10.8-5.2q1.3 0.1 2.1 1.1c0.7 0.8 0.6 1.4 0.4 1.8-1.2 2.6-11 3.1-13 3.2q0 0 0 0zm10-5.1c-2.6 0-6.5 2.5-8.4 4 4.2-0.3 9.9-1.1 10.5-2.5 0-0.1 0.1-0.3-0.2-0.7q-0.6-0.7-1.5-0.8-0.2 0-0.4 0z"/><path class="j" d="m231.4 45.9l6.8 5.8 11.9-5.8q2.6 0.6 5 1.6 2.4 1.1 6.1 5.4-2.6 2.1-8.7 3.9-6.2 1.8-18.4 3.9l-3.1-3q-2.8-2.8-5-6.2l-1.4-2.1z"/><path  d="m198.4 106.3c-0.3 0-0.5-0.2-0.5-0.4-0.1-0.2 0-0.5 0.3-0.6l14.6-4.1c0.2-0.1 0.5 0 0.6 0.3 0.1 0.3-0.1 0.5-0.4 0.6l-14.5 4.2q-0.1 0-0.1 0z"/><path  d="m204.8 112.2c-0.3 0-0.5-0.1-0.5-0.3-0.1-0.3 0.1-0.6 0.3-0.7l10.1-2.9c0.3-0.1 0.6 0.1 0.7 0.3 0 0.3-0.1 0.6-0.4 0.7l-10.1 2.9q-0.1 0-0.1 0z"/><path class="b" d="m140.1 38.1q9-11.1 11.6-8.2 2.5 2.8-6.5 9.2 9.6-8.1 10.9-5.5 1.4 2.6-6.6 12.5 6.2-8.2 9.3-6.8 3.1 1.5-6.6 11.8l-8.8-7.6z"/><path  d="m142.2 42q-0.2 0-0.4-0.1c-0.2-0.2-0.2-0.5 0-0.7l7.1-6.8c0.2-0.2 0.5-0.2 0.7 0 0.2 0.2 0.2 0.5 0 0.7l-7.1 6.8q-0.1 0.1-0.3 0.1z"/><path  d="m146.9 48q-0.2 0-0.4-0.1c-0.2-0.2-0.2-0.5 0-0.7l6.1-6c0.2-0.2 0.5-0.2 0.7 0 0.2 0.2 0.2 0.5 0 0.7l-6.1 6q-0.1 0.1-0.3 0.1z"/></svg>