<svg width="24" height="24" viewBox="0 0 24 24" fill="none" xmlns="http://www.w3.org/2000/svg">
<circle cx="12.0002" cy="12" r="2.18182" stroke="#002858" stroke-width="1.5" stroke-linecap="round" stroke-linejoin="round"/>
<path fill-rule="evenodd" clip-rule="evenodd" d="M17.3818 14.1818C17.1837 14.6306 17.2788 15.1548 17.6218 15.5055L17.6655 15.5491C17.9386 15.8219 18.0921 16.1921 18.0921 16.5782C18.0921 16.9642 17.9386 17.3344 17.6655 17.6073C17.3926 17.8804 17.0224 18.0339 16.6364 18.0339C16.2503 18.0339 15.8801 17.8804 15.6073 17.6073L15.5636 17.5636C15.213 17.2206 14.6888 17.1256 14.24 17.3236C13.8004 17.512 13.5146 17.9435 13.5127 18.4218V18.5455C13.5127 19.3488 12.8615 20 12.0582 20C11.2549 20 10.6036 19.3488 10.6036 18.5455V18.48C10.5921 17.9874 10.2806 17.5519 9.81818 17.3818C9.36939 17.1837 8.84523 17.2788 8.49455 17.6218L8.45091 17.6655C8.17808 17.9386 7.80787 18.0921 7.42182 18.0921C7.03577 18.0921 6.66555 17.9386 6.39273 17.6655C6.1196 17.3926 5.96613 17.0224 5.96613 16.6364C5.96613 16.2503 6.1196 15.8801 6.39273 15.6073L6.43636 15.5636C6.77939 15.213 6.87443 14.6888 6.67636 14.24C6.48795 13.8004 6.05647 13.5146 5.57818 13.5127H5.45455C4.65122 13.5127 4 12.8615 4 12.0582C4 11.2549 4.65122 10.6036 5.45455 10.6036H5.52C6.0126 10.5921 6.4481 10.2806 6.61818 9.81818C6.81625 9.36939 6.72121 8.84523 6.37818 8.49455L6.33455 8.45091C6.06142 8.17808 5.90795 7.80787 5.90795 7.42182C5.90795 7.03577 6.06142 6.66555 6.33455 6.39273C6.60737 6.1196 6.97759 5.96613 7.36364 5.96613C7.74969 5.96613 8.1199 6.1196 8.39273 6.39273L8.43636 6.43636C8.78704 6.77939 9.31121 6.87443 9.76 6.67636H9.81818C10.2578 6.48795 10.5435 6.05647 10.5455 5.57818V5.45455C10.5455 4.65122 11.1967 4 12 4C12.8033 4 13.4545 4.65122 13.4545 5.45455V5.52C13.4565 5.99829 13.7422 6.42977 14.1818 6.61818C14.6306 6.81625 15.1548 6.72121 15.5055 6.37818L15.5491 6.33455C15.8219 6.06142 16.1921 5.90795 16.5782 5.90795C16.9642 5.90795 17.3344 6.06142 17.6073 6.33455C17.8804 6.60737 18.0339 6.97759 18.0339 7.36364C18.0339 7.74969 17.8804 8.1199 17.6073 8.39273L17.5636 8.43636C17.2206 8.78704 17.1256 9.31121 17.3236 9.76V9.81818C17.512 10.2578 17.9435 10.5435 18.4218 10.5455H18.5455C19.3488 10.5455 20 11.1967 20 12C20 12.8033 19.3488 13.4545 18.5455 13.4545H18.48C18.0017 13.4565 17.5702 13.7422 17.3818 14.1818Z" stroke="#002858" stroke-width="1.5" stroke-linecap="round" stroke-linejoin="round"/>
</svg>
