<svg version="1.2" xmlns="http://www.w3.org/2000/svg" viewBox="0 0 957 829" width="957" height="829"><defs><linearGradient id="P" gradientUnits="userSpaceOnUse"/><linearGradient id="g1" x1="559.9" y1="320.8" x2="621.2" y2="302.9" href="#P"><stop stop-color="#fff"/><stop offset="1" stop-color="#0c0c0c" stop-opacity="0"/></linearGradient><linearGradient id="g2" x1="870.5" y1="582.9" x2="924.5" y2="567.2" href="#P"><stop stop-color="#fff"/><stop offset="1" stop-color="#0c0c0c" stop-opacity="0"/></linearGradient><linearGradient id="g3" x1="458" y1="12.3" x2="514.8" y2="-4.2" href="#P"><stop stop-color="#fff"/><stop offset="1" stop-color="#0c0c0c" stop-opacity="0"/></linearGradient><linearGradient id="g4" x1="25.5" y1="25.3" x2="79.6" y2="9.6" href="#P"><stop stop-color="#fff"/><stop offset="1" stop-color="#0c0c0c" stop-opacity="0"/></linearGradient><linearGradient id="g5" x1="211.3" y1="771.4" x2="265.4" y2="755.7" href="#P"><stop stop-color="#fff"/><stop offset="1" stop-color="#0c0c0c" stop-opacity="0"/></linearGradient><linearGradient id="g6" x1="265.6" y1="137.3" x2="366" y2="108.1" href="#P"><stop stop-color="#ff2e56"/><stop offset="1" stop-color="#0c0c0c" stop-opacity="0"/></linearGradient><linearGradient id="g7" x1="666.3" y1="472.8" x2="724.3" y2="455.9" href="#P"><stop stop-color="#ffbd32"/><stop offset="1" stop-color="#0c0c0c" stop-opacity="0"/></linearGradient><linearGradient id="g8" x1="17.1" y1="144.3" x2="71.5" y2="128.4" href="#P"><stop stop-color="#434fa9"/><stop offset="1" stop-color="#0c0c0c" stop-opacity="0"/></linearGradient><linearGradient id="g9" x1="914.4" y1="176.3" x2="958.6" y2="163.5" href="#P"><stop stop-color="#434fa9"/><stop offset="1" stop-color="#0c0c0c" stop-opacity="0"/></linearGradient><linearGradient id="g10" x1="376.7" y1="643.2" x2="429.8" y2="627.8" href="#P"><stop stop-color="#984da7"/><stop offset="1" stop-color="#0c0c0c" stop-opacity="0"/></linearGradient><linearGradient id="g11" x1="817.7" y1="309.9" x2="870.8" y2="294.4" href="#P"><stop stop-color="#984da7"/><stop offset="1" stop-color="#0c0c0c" stop-opacity="0"/></linearGradient></defs><style>.a{mix-blend-mode:screen;fill:url(#g1)}.b{mix-blend-mode:screen;fill:url(#g2)}.c{mix-blend-mode:screen;fill:url(#g3)}.d{mix-blend-mode:screen;fill:url(#g4)}.e{mix-blend-mode:screen;fill:url(#g5)}.f{mix-blend-mode:screen;fill:url(#g6)}.g{mix-blend-mode:screen;fill:url(#g7)}.h{mix-blend-mode:screen;fill:url(#g8)}.i{mix-blend-mode:screen;fill:url(#g9)}.j{mix-blend-mode:screen;fill:url(#g10)}.k{mix-blend-mode:screen;fill:url(#g11)}</style><path class="a" d="m547 382.8c-1.7 1.7-4.4 2.8-5.3 1.8-1-0.9 0.1-3.5 1.9-5.3q1.7-1.7 76.7-73.3-71.6 75.1-73.3 76.8z"/><path class="b" d="m859 638c-1.5 1.5-3.8 2.4-4.7 1.6-0.8-0.8 0.1-3.1 1.7-4.7q1.5-1.5 67.6-64.6-63.1 66.1-64.6 67.7z"/><path class="c" d="m445.9 70.1c-1.6 1.6-4 2.6-4.9 1.7-0.9-0.9 0.1-3.3 1.7-4.9q1.6-1.6 71.2-68-66.4 69.6-68 71.2z"/><path class="d" d="m14 80.4c-1.5 1.5-3.8 2.5-4.7 1.7-0.8-0.9 0.1-3.2 1.7-4.7q1.5-1.5 67.7-64.8-63.2 66.3-64.7 67.8z"/><path class="e" d="m199.7 826.5c-1.5 1.5-3.8 2.5-4.6 1.7-0.9-0.9 0.1-3.2 1.6-4.7q1.5-1.5 67.8-64.8-63.2 66.3-64.8 67.8z"/><path class="f" d="m245 236.9c-2.8 2.8-7.1 4.6-8.7 3-1.5-1.5 0.2-5.8 3.1-8.6q2.8-2.9 125.7-120.2-117.3 123-120.1 125.8z"/><path class="g" d="m654.1 531.6c-1.7 1.6-4.2 2.7-5.1 1.8-0.9-0.9 0.2-3.4 1.8-5q1.6-1.7 72.6-69.4-67.7 71-69.3 72.6z"/><path class="h" d="m5.5 199.7c-1.5 1.5-3.9 2.5-4.7 1.6-0.9-0.8 0.1-3.1 1.6-4.7q1.6-1.5 68.2-65.1-63.6 66.7-65.1 68.2z"/><path class="i" d="m904.9 221.8c-1.3 1.3-3.2 2.1-3.8 1.4-0.7-0.7 0.1-2.6 1.3-3.8q1.2-1.3 55.3-52.8-51.6 54-52.8 55.2z"/><path class="j" d="m365.3 697.4c-1.5 1.5-3.8 2.5-4.6 1.6-0.8-0.8 0.1-3.1 1.6-4.6q1.5-1.5 66.6-63.5-62.1 65-63.6 66.5z"/><path class="k" d="m806.4 364.1c-1.5 1.5-3.8 2.4-4.6 1.6-0.9-0.8 0.1-3.1 1.6-4.6q1.5-1.5 66.5-63.6-62 65.1-63.5 66.6z"/></svg>