<svg version="1.2" xmlns="http://www.w3.org/2000/svg" viewBox="0 0 202 308" width="202" height="308"><style>.a{fill:#7772d3}.b{fill:#ff9c85}.c{fill:#fff0e3}.d{fill:#ea6d59}.e{fill:#ffbf69}.f{fill:#fff}.g{fill:#ffbe83}.h{fill:#7c6053}.i{fill:#7b9b75}</style><path class="a" d="m144 69q-5-28.5-3.7-29.3 1.4-0.7 6.4 25.6z"/><path class="b" d="m127.4 78.3q7.2-15.5 16.6-14.4c9.5 1.2 11.9 14.1 7.3 14.4q-4.6 0.3-7.3-4.9-8.5 34.4-18.5 22.6-9.9-11.8 1.9-17.7z"/><path class="a" d="m80.7 51.8q13.5 12.9 26.9 16.4 13.3 3.6 27.8-1.8v33.6q-48.4 21.5-66.3-11.5-17.9-33 11.6-36.7z"/><path class="c" d="m152.8 138l-34.2-0.1c-1.1 0-1.9-1.1-1.5-2.1l39.2-104.5c0.2-0.6 0.8-1 1.4-1h34.2c1.1 0 1.9 1.1 1.5 2.2l-39.2 104.5c-0.2 0.6-0.8 1-1.4 1z"/><path  d="m61.8 15.4q0.2 13.5-3.4 19.3c-3.6 5.9-13.3-1.8-14.6-10q-1.4-8.2 2.9-8.2 0.3-8.1 11.7-11.1 11.3-3.1 14.6 5.2z"/><path class="b" d="m48.7 263.7l-1.8 11.7h-21.9l-0.3-11.7z"/><path class="b" d="m105.7 242.9l7.9 14.3-20.8 13.9-8-14.8z"/><path class="d" d="m121.3 244.4c-1.7 0.7-39.6 19.1-40.6 19.1q-1 0-16-63.3-5.3 68.1-6.3 68.1c-1.1 0-42.5-0.8-42.5-2.2 0-1.5 7.8-106.4 8.4-116.4q0.7-9.9 3.3-31.2l-2-22.5 13-9.7q36.3-13.4 42.7 15.6c1.2 5.6 5.3 22.3 8.5 32.2 12.5 44 32.8 109.7 31.5 110.3z"/><path class="b" d="m48.9 132.7q-2 7.7-12.5 8.3-10.5 0.6-19.7-10.1l12.5-12.9q6.6 1.9 7.7 3.2 1.1 1.4 5.1 7.4z"/><path class="a" d="m14.4 133.5q-13.4-17.7-13.4-36.6c0-33 23.1-46.9 39.9-51.5 16.9-4.5 33.5-0.9 39.8 6.4q6.3 7.3 0.9 52.6-8.2 1.7-23.5 1.9-15.3 0.2-23.1-1.6l3.7 12.2z"/><path class="e" d="m54.2 298.1c0 2.4-0.8 5.2-2.5 5.9-1.7 0.7-15.2 2.2-27.1 1.1-11.4-1-14.1-6.1-13.1-8.5 0.5-1.2 1-2.4 1.3-3.2q0.5-1.1 1.3-2.2c1.2-1.7 3.7-5.2 4.3-7 0.8-2.5 2.1-7.7 2.9-10.1q0.8-2.4 2.9-2.9 23.3-1.6 25-0.2c1.7 1.4 2.5 12.8 2.5 14.6v1.7c0 2 1.7 6.5 2.3 9.3q0.2 0.9 0.2 1.5z"/><path class="b" d="m69.8 38v0.3l-0.2 5.2-0.1 4q0.3 0.9-4.4 0.7-6.3-0.4-8.3-3.1l-0.3-9.5 1.9 0.4z"/><path  d="m69.8 38.3l-0.2 5.2c-3.1-0.4-8.6-1.7-10.9-6.5q-0.3-0.6-0.3-1l11.4 2.2z"/><path class="b" d="m71.6 13.7q6 13.3 3.9 20.9c-2 7.5-8.9 6.4-13 4.9q-4.1-1.4-6-3.9-3.9 1.3-6.5-2.2c-2.5-3.5-1-7.6 1.2-8.6q2.2-0.9 4.8 0.6l-2.1-3.9q8.5-19.8 17.7-7.8z"/><path  d="m71.1 30.8q0 0-0.1 0c-0.3-0.1-0.4-0.4-0.4-0.7 0.8-2.4-1-5-1-5.1-0.2-0.2-0.1-0.5 0.1-0.7 0.2-0.1 0.5-0.1 0.7 0.2 0.1 0.1 2.1 3 1.2 5.9-0.1 0.2-0.3 0.4-0.5 0.4z"/><path  d="m55.4 31.8q-0.2 0-0.4-0.2l-3.6-3.8c-0.2-0.2-0.2-0.6 0-0.8 0.2-0.1 0.6-0.1 0.7 0.1l3.7 3.8c0.2 0.2 0.2 0.5 0 0.7q-0.2 0.2-0.4 0.2z"/><path  d="m51.6 30.7c-0.3 0-0.5-0.1-0.5-0.4-0.1-0.3 0.1-0.5 0.4-0.6l2.5-0.3c0.3-0.1 0.5 0.1 0.6 0.4 0 0.3-0.2 0.5-0.4 0.5l-2.6 0.4q0 0 0 0z"/><path fill-rule="evenodd" d="m66.9 34.9q-0.6 0-1.2-0.3c-1.7-0.8-2.3-2.8-2.3-2.8 0-0.2 0-0.4 0.1-0.5 0.2-0.2 0.4-0.2 0.5-0.2l5.3 1.8c0.1 0 0.3 0.2 0.3 0.3 0 0.2 0 0.4-0.1 0.5-0.1 0.1-1.2 1.2-2.6 1.2zm-2.1-2.4c0.3 0.4 0.8 0.9 1.4 1.2 0.7 0.4 1.4 0.1 1.9-0.2z"/><path  d="m62.7 21q-0.1 0-0.2 0c-0.2-0.2-0.3-0.5-0.2-0.7 0.9-1.8 3.2-1.4 3.3-1.3 0.3 0 0.4 0.3 0.4 0.5-0.1 0.3-0.3 0.5-0.6 0.4-0.1 0-1.6-0.3-2.2 0.8-0.1 0.2-0.3 0.3-0.5 0.3z"/><path  d="m70 19.5q-0.2 0-0.3-0.1c-0.2-0.2-0.3-0.5-0.1-0.7 0.3-0.6 0.8-0.9 1.4-1 1.2-0.1 2.3 0.9 2.4 0.9 0.2 0.2 0.2 0.5 0 0.7-0.2 0.2-0.5 0.2-0.7 0-0.2-0.2-0.9-0.7-1.6-0.6q-0.4 0.1-0.7 0.5-0.2 0.3-0.4 0.3z"/><path  d="m72.5 25.2c-0.3 0-0.5-0.2-0.5-0.4l-0.4-2.5q0-0.2 0.1-0.4l1-1.2c0.1-0.2 0.4-0.2 0.7-0.1 0.2 0.2 0.2 0.5 0 0.7l-0.8 1 0.4 2.3c0 0.3-0.2 0.5-0.5 0.6q0 0 0 0z"/><path  d="m65.1 25.8c-0.3 0-0.5-0.2-0.5-0.4l-0.4-2.5q0-0.3 0.2-0.5l1.4-1.3c0.2-0.2 0.5-0.2 0.7 0 0.2 0.2 0.2 0.5 0 0.7l-1.2 1.2 0.3 2.2c0 0.3-0.2 0.5-0.5 0.6q0 0 0 0z"/><path  d="m51.6 21.4l0.2-3.4q3-7.6 3.6-8.2c0.6-0.5 10.3-2.3 11.1-2.3q0.8 0 6.5 3.1l0.9 9.3-1.3-3.9q-1.4-0.1-3.5-0.7-2.1-0.6-3-3.4 0 2.1-2.2 6.3-2.1 4.2-7.9 7.2z"/><path class="e" d="m89.3 266.4q22.6-13.8 24.9-13.9 2.4 0 27.8 2.8 8.4-2 13.6 0.3c5.1 2.3 6.6 8.1 6.1 9.3-0.6 1.1-54.6 34.1-56.5 33.9-1.9-0.3-11.9-19.8-15.9-32.4z"/><path class="e" d="m81.6 105.2c-0.3 0-0.5-0.2-0.5-0.5-0.1-0.3-1.2-9.1-0.8-11.1 0.1-0.6 0.4-1.5 0.8-2.5 1-2.4 2.4-6.1 2.8-11.5 0.7-7.5-1.9-17.4-2-17.5 0-0.2 0.1-0.5 0.4-0.6 0.3 0 0.5 0.1 0.6 0.4 0.1 0.4 2.7 10.2 2 17.8-0.5 5.5-1.9 9.3-2.8 11.7-0.4 1-0.7 1.8-0.8 2.4-0.3 1.5 0.5 8.3 0.8 10.8 0 0.3-0.2 0.5-0.4 0.6q-0.1 0-0.1 0z"/><path class="e" d="m33.3 103.8c-0.2 0-0.4-0.1-0.5-0.4 0-0.1-3.4-13-11.7-16.6-0.3-0.1-0.4-0.4-0.3-0.7 0.1-0.2 0.4-0.3 0.6-0.2 8.8 3.7 12.2 16.7 12.4 17.3 0 0.2-0.1 0.5-0.4 0.6q0 0-0.1 0z"/><path fill-rule="evenodd" class="e" d="m29 94.1c-0.2 0-0.3-0.1-0.4-0.3-0.4-0.6-4.1-6.6-3.2-9.4 0.2-0.6 0.6-1.1 1.2-1.3 0.8-0.3 1.3-0.1 1.6 0.2 2.1 1.5 1.4 9.4 1.3 10.3 0 0.2-0.2 0.4-0.4 0.4q0 0.1-0.1 0.1zm-1.7-10.2q-0.1 0-0.3 0.1-0.5 0.2-0.6 0.7c-0.6 1.6 1 5 2.2 7.2 0.2-3.1 0.1-7-1-7.8q-0.1-0.1-0.3-0.2z"/><path class="e" d="m66.9 48.8c-6.4 0-11.6-3.5-11.9-3.7-0.2-0.2-0.3-0.5-0.1-0.7 0.2-0.2 0.5-0.3 0.7-0.1 0.1 0 7.2 4.8 14.7 3.1 0.3-0.1 0.6 0.1 0.6 0.4 0.1 0.2-0.1 0.5-0.4 0.6q-1.8 0.4-3.6 0.4z"/><path class="f" d="m64.1 198.2c-0.3 0-0.5-0.2-0.5-0.5 0.7-24.8 0.7-65.7 0.7-66.1 0-0.3 0.2-0.5 0.5-0.5 0.2 0 0.5 0.2 0.5 0.5 0 0.4 0 41.3-0.7 66.1 0 0.3-0.2 0.5-0.5 0.5z"/><path class="f" d="m41.7 286.9q-0.1 0-0.3-0.1c-5.7-4.6-14.3 0-14.4 0-0.3 0.1-0.6 0.1-0.7-0.2-0.1-0.2 0-0.5 0.2-0.7 0.4-0.2 9.3-4.9 15.5 0.1 0.3 0.2 0.3 0.5 0.1 0.7q-0.1 0.2-0.4 0.2z"/><path class="f" d="m42.5 281.4q-0.2 0-0.3-0.1c-5.7-4.5-14.4 0-14.5 0-0.2 0.2-0.5 0.1-0.7-0.2-0.1-0.2 0-0.5 0.3-0.7 0.3-0.2 9.3-4.8 15.5 0.1 0.2 0.2 0.2 0.5 0.1 0.7q-0.2 0.2-0.4 0.2z"/><path class="f" d="m118.6 259.5c-0.2 0-0.4-0.1-0.5-0.2-0.1-0.3 0-0.6 0.2-0.7l8.8-5.3c0.2-0.1 0.5-0.1 0.7 0.2 0.1 0.2 0.1 0.5-0.2 0.7l-8.8 5.2q-0.1 0.1-0.2 0.1z"/><path class="f" d="m129.9 259.5q-0.3 0-0.4-0.2c-0.2-0.2-0.1-0.5 0.1-0.7l5.5-3.9c0.2-0.2 0.5-0.2 0.7 0.1 0.1 0.2 0.1 0.5-0.2 0.7l-5.4 3.9q-0.2 0.1-0.3 0.1z"/><path  d="m47.9 19.6c-9.4 2.4-19.9-12.3-11.9-17.8q8-5.5 15 10.6 6.4 4.9-3.1 7.2z"/><path class="b" d="m54.2 131.6q4.9 6 0 6.9-4.9 0.9-8.9 0-2.6 5.7-10.3 3.3-7.7-2.5-7.4-7.7z"/><path class="g" d="m160.9 138l-34.2-0.1c-1.1 0-1.9-1.1-1.5-2.1l39.2-104.5c0.2-0.6 0.8-1 1.5-1h34.1c1.1 0 1.9 1.1 1.5 2.2l-39.1 104.5c-0.3 0.6-0.9 1-1.5 1z"/><path class="h" d="m73.9 307.5q-0.4 0-0.7-0.2c-1.1-0.4-1.5-1.6-1.1-2.6l77.4-185.8c0.4-1 1.5-1.5 2.6-1.1 1 0.4 1.5 1.6 1 2.6l-77.3 185.9c-0.3 0.7-1.1 1.2-1.9 1.2z"/><path class="h" d="m171.1 121.1h-38.5c-1.1 0-2-0.9-2-2 0-1.1 0.9-2 2-2h38.5c1.1 0 2 0.9 2 2 0 1.1-0.9 2-2 2z"/><path class="h" d="m191 307.1c-0.9 0-1.7-0.6-1.9-1.6l-39.8-185.4c-0.2-1.1 0.5-2.2 1.6-2.4 1.1-0.2 2.1 0.5 2.4 1.6l39.7 185.4c0.2 1.1-0.5 2.1-1.5 2.4q-0.3 0-0.5 0z"/><path class="h" d="m166.7 193.6h-45.4c-1.1 0-2-0.9-2-2 0-1.1 0.9-2 2-2h45.4c1.1 0 2 0.9 2 2 0 1.1-0.9 2-2 2z"/><path fill-rule="evenodd" class="g" d="m52.9 136.5c-17.1 3.2-31.6 2.4-32.3-1.7-0.8-4 12.5-9.8 29.6-12.9 17.2-3.1 31.6-2.4 32.4 1.7 0.7 4-12.6 9.8-29.7 12.9zm-10.9-7.9c-0.3-1.3-3-1.9-6-1.3-3.1 0.6-5.4 2.1-5.2 3.3 0.3 1.3 2.9 1.9 6 1.3 3.1-0.5 5.4-2 5.2-3.3z"/><path class="b" d="m40 127.6q8.1 3.8 5.6 7.4-2.4 3.5-11.6-5.8z"/><path class="a" d="m63.7 125.5q-2.9 1.6-6-0.2-2.7 2.5-5.3 1.6-2.5-1 1.1-3.1c8.8-4.3 13.2 0.1 10.2 1.7z"/><path class="c" d="m58.4 129.6q2.7-2 6.1-0.6 2.3-2.8 5-2.2 2.6 0.6-0.7 3.2c-8.2 5.3-13.1 1.6-10.4-0.4z"/><path class="i" d="m76.3 122.8q2.8 1.4 1 2.3-1.8 0.9-4-0.8-2.3 1.6-4.6 0.6c-2.3-1 0.6-4.6 7.6-2.1z"/></svg>