<svg version="1.2" xmlns="http://www.w3.org/2000/svg" viewBox="0 0 198 322" width="198" height="322"><style>.a{fill:#ff9c85}.b{fill:#7772d3}.c{fill:#6f8c69}.d{fill:#ffbe83}.e{fill:#7b9b75}.f{fill:#fff}.g{fill:#aaa0af}.h{fill:#ef7467}.i{fill:#3e3e6d}.j{fill:#4d4d8c}.k{fill:#d2cad8}</style><path class="a" d="m128.7 117.5q1.1 9.1-3.2 11.5-4.3 2.4-9.6 1.9 0.5 4.9-0.8 5.3c-1.4 0.3-10.4-0.9-12-2.7q-1.6-1.8-4.7-13.9-9.1 6.5-10.1 5.4c-1-1 5.9-11 10.7-13.1q4.8-2.1 23.1 0.2z"/><path  d="m98.7 119.7q-0.2 0-0.4-0.2c-0.1-0.3-0.1-0.6 0.1-0.7l4.4-3c0.2-0.2 0.5-0.1 0.7 0.1 0.1 0.2 0.1 0.5-0.1 0.7l-4.4 3q-0.1 0.1-0.3 0.1z"/><path  d="m112.6 132.5c-0.2 0-0.4-0.2-0.5-0.4-0.1-0.2 0.1-0.5 0.3-0.6l2.6-0.9-1.6-1.5c-0.1-0.2-0.1-0.5 0.1-0.7 0.2-0.2 0.5-0.2 0.7 0l2 2.1q0.2 0.2 0.2 0.5-0.1 0.2-0.4 0.3l-3.2 1.1q-0.1 0.1-0.2 0.1z"/><path class="a" d="m57 58.8l12.7-2.3q10.4 9 6.5 14.5-3.9 5.5-21.3 6.7z"/><path class="a" d="m75 66.1q-8.6 0-12-12.6-8.8 0.9-8.8-1.8c0-2.6 7.8-6.4 11.7-4q3.9 2.3 12.9 10 4.8 8.4-3.8 8.4z"/><path  d="m74.7 66.6c-7.7 0-10.4-8.2-10.4-8.3-0.1-0.2 0-0.5 0.3-0.6 0.3-0.1 0.6 0.1 0.6 0.3 0.2 0.4 3 8.9 11.4 7.4 0.2 0 0.5 0.1 0.5 0.4 0.1 0.3-0.1 0.6-0.4 0.6q-1 0.2-2 0.2z"/><path class="b" d="m79.5 55.7q23.6 1.8 36-0.4 12.5-2.2 30.7-12.3 15.2 41.7-18.1 50.1-33.4 8.3-57.3-17.4z"/><path class="a" d="m178.8 285l-0.7 14.8-23.3-2 0.8-14.8z"/><path class="a" d="m144.7 271.9l2.5 14.6-23.1 3.6-2.4-14.7z"/><path class="c" d="m118.1 293.5q-5.5-15.9 0-14.9 5.5 1 10.9 6.4 17.9-6.1 19.8-6.5 2-0.3 6 20.2l-23.7 20.1q-41.8 2.5-44 0c-2.3-2.5 5.8-14.9 13.3-16q7.5-1 7.5-1z"/><path class="d" d="m159 112.5l22.4 8.7q3.4 55.2 4.4 87.9 1 32.7 0 76.1h-38.1l-1.8-7.8q-32.4 0.4-35.4 0c-3-0.3-10.6-80.1-7.3-94.4q4.4-19.7 24.4-64.3z"/><path class="e" d="m144.7 272.4c-0.2 0-0.4-0.2-0.4-0.4-9.3-58.2-8-117.7-7.8-123l-12.2-4.2c-0.2 0-0.4-0.3-0.3-0.6 0.1-0.3 0.4-0.4 0.7-0.3l12.5 4.3c0.2 0.1 0.3 0.3 0.3 0.5 0 0.6-1.8 62.6 7.7 123.1 0.1 0.3-0.1 0.6-0.4 0.6q0 0-0.1 0z"/><path class="e" d="m148.4 294.1q1.6-8.2 5.6-8.6 4-0.3 9.8 8.6 15.6-1.2 16.7 0c1.1 1.2 1.1 26.9 0 27.3-1.1 0.4-66.1 0.4-69 0-3-0.4 1.2-13.7 7.1-16q5.8-2.3 12.1-2.3z"/><path class="f" d="m130.7 303.6c-0.3 0-0.5-0.3-0.5-0.5 0-0.3 0.2-0.5 0.5-0.5l6.9-0.2c0.3 0 0.5 0.2 0.5 0.5 0 0.3-0.3 0.5-0.5 0.5l-6.9 0.2q0 0 0 0z"/><path class="f" d="m107.9 302.3c-0.2 0-0.5-0.2-0.5-0.4 0-0.3 0.2-0.5 0.4-0.6l7.8-1.1c0.2 0 0.5 0.2 0.5 0.4 0.1 0.3-0.1 0.6-0.4 0.6l-7.7 1.1q-0.1 0-0.1 0z"/><path class="b" d="m125.6 124.1q1.4-47.6 11.2-70.9c8.7-20.8 43.6-13 46.6-5.2q3 7.8 0 79.4-38.7 5.5-57.8-3.3z"/><path class="d" d="m128.1 93.6c-0.4-0.1-0.6-0.3-0.5-0.6l1.7-12.7c0-0.2 0.3-0.4 0.6-0.4 0.2 0 0.4 0.3 0.4 0.6l-1.7 12.7c-0.1 0.2-0.3 0.4-0.5 0.4z"/><path fill-rule="evenodd" class="d" d="m113.4 67.6q-0.7 0-1.2-0.5c-2-2.1-1-10.4-0.9-11.3 0-0.3 0.2-0.4 0.4-0.5 0.2 0 0.4 0.1 0.5 0.3 0.4 0.9 3.9 8.9 2.6 11.2q-0.4 0.7-1.2 0.8-0.1 0-0.2 0zm-1.3-9.8c-0.2 3-0.3 7.4 0.8 8.6 0.2 0.2 0.4 0.2 0.6 0.2q0.3 0 0.4-0.3c0.7-1.2-0.6-5.3-1.8-8.5z"/><path class="e" d="m186.3 273.6h-34.1c-0.3 0-0.5-0.2-0.5-0.5 0-0.3 0.2-0.5 0.5-0.5h34.1c0.2 0 0.5 0.2 0.5 0.5 0 0.3-0.3 0.5-0.5 0.5z"/><path class="e" d="m143.9 267h-35.4c-0.3 0-0.5-0.2-0.5-0.5 0-0.3 0.2-0.5 0.5-0.5h35.4c0.3 0 0.5 0.2 0.5 0.5 0 0.3-0.2 0.5-0.5 0.5z"/><path class="a" d="m166.1 30.6l-0.2 11.1q-2.1 3.1-8.5 3.5-4.8 0.3-6.5-0.8l0.8-5.6 0.7-5.4 11.7-2.4z"/><path  d="m164.1 31q0 0.5-0.3 1.1c-2.6 5.5-9.4 6.5-12.1 6.7l0.7-5.4z"/><path class="a" d="m168.6 16.1l-2.1 4q2.7-1.6 5-0.6c2.2 1 3.8 5.2 1.2 8.8q-2.7 3.7-6.6 2.3-2 2.6-6.2 4.1c-4.2 1.5-11.2 2.7-13.4-5.1q-2.1-7.7 3.9-21.4 9.5-12.4 18.2 7.9z"/><path  d="m151 25.7c-0.2 0-0.4-0.1-0.5-0.3-0.9-3 1.2-6 1.3-6.2 0.1-0.2 0.4-0.2 0.6-0.1 0.3 0.2 0.3 0.5 0.2 0.7 0 0-1.9 2.8-1.1 5.3 0.1 0.2-0.1 0.5-0.4 0.6q0 0-0.1 0z"/><path  d="m167.1 26.7q-0.1 0-0.3-0.2c-0.2-0.2-0.2-0.5 0-0.7l3.7-4c0.2-0.2 0.5-0.2 0.7 0 0.2 0.2 0.2 0.5 0 0.7l-3.7 4q-0.1 0.2-0.4 0.2z"/><path  d="m171.1 25.6q-0.1 0-2.7-0.4c-0.2-0.1-0.4-0.3-0.4-0.6 0.1-0.3 0.3-0.4 0.6-0.4l2.6 0.4c0.2 0 0.4 0.3 0.4 0.5 0 0.3-0.3 0.5-0.5 0.5z"/><path  d="m157.2 20.6c-0.3-0.1-0.5-0.3-0.5-0.6l0.3-2.6c0.1-0.2 0.3-0.4 0.6-0.4 0.3 0 0.5 0.3 0.4 0.5l-0.3 2.6c0 0.3-0.2 0.5-0.5 0.5z"/><path  d="m149.6 20c-0.3-0.1-0.5-0.3-0.5-0.6l0.4-2.6c0-0.2 0.3-0.4 0.5-0.4 0.3 0.1 0.5 0.3 0.5 0.6l-0.4 2.5c0 0.3-0.3 0.5-0.5 0.5z"/><path  d="m158.9 15.9c-0.1 0-0.3-0.1-0.4-0.3-0.6-1.2-2.2-0.8-2.3-0.8-0.3 0.1-0.6-0.1-0.6-0.3-0.1-0.3 0.1-0.6 0.3-0.6 0.1-0.1 2.5-0.6 3.5 1.2 0.1 0.3 0 0.6-0.2 0.7q-0.1 0.1-0.3 0.1z"/><path  d="m149 14.9q-0.1 0-0.3-0.2c-0.2-0.1-0.2-0.4-0.1-0.6 0.1-0.1 0.8-1 1.8-1.1q0.8-0.1 1.6 0.5c0.2 0.2 0.2 0.5 0 0.7-0.2 0.2-0.5 0.3-0.7 0.1-0.2-0.3-0.5-0.4-0.8-0.3-0.5 0-0.9 0.5-1.1 0.7q-0.1 0.2-0.4 0.2z"/><path  d="m165.2 21.1q-3.7-2.5-3.5-6.4 0.2-3.8 1-4.8-4.3-0.2-7.9-1.3-2.4-0.8-3.4-1.6l-1 1.2c-1.1-0.1-3.6-6.7-2-7.9q1.7-1.2 10.5 1.8 9.4-2.2 14.8 4.4 5.5 6.6-0.6 14.5-1.6-3.4-7.9 0.1z"/><path fill-rule="evenodd" d="m154.5 30.3c-1.3 0-2.2-0.9-2.3-0.9-0.1-0.1-0.1-0.3-0.1-0.5 0-0.1 0.1-0.3 0.3-0.3l3.6-1.4q0.2-0.1 0.4 0 0.1 0.1 0.2 0.3c0 0.1 0.3 1-0.1 1.7q-0.3 0.7-1.1 1-0.5 0.1-0.9 0.1zm-0.8-1.2c0.4 0.2 0.9 0.2 1.4 0.1q0.4-0.1 0.5-0.4 0.1-0.2 0.1-0.4z"/><path class="d" d="m154.5 45.8c-2.5 0-4.4-0.3-4.6-0.4-0.3 0-0.5-0.3-0.4-0.5 0-0.3 0.3-0.5 0.5-0.5 0.2 0.1 11.2 1.9 16.1-3.5 0.1-0.2 0.5-0.2 0.7 0 0.2 0.1 0.2 0.5 0 0.7-3.1 3.5-8.4 4.2-12.3 4.2z"/><path class="g" d="m52.9 84.5h-9c-1.1 0-2-0.9-2-2.1 0-1.1 0.9-2 2-2h9c1.2 0 2.1 0.9 2.1 2 0 1.2-0.9 2.1-2.1 2.1z"/><rect class="h" x="43" y="52.6" width="5.6" height="3.3" rx=".8"></rect><rect class="g" x="37.3" y="53" width="4.6" height="2.7" rx=".7"></rect><rect class="g" x="57.5" y="53" width="4.6" height="2.7" rx=".7"></rect><rect class="i" x="35.4" y="54.4" width="29.2" height="26.4" rx="3.5"></rect><rect class="j" x="32.8" y="54.4" width="29.2" height="26.4" rx="3.5"></rect><path class="j" d="m47.4 76.6h-20.4v-18.4h20.4c4.2 0 7.6 3.4 7.6 7.5v3.4c0 4.1-3.4 7.5-7.6 7.5z"/><ellipse class="j" cx="27" cy="67.4" rx="1.6" ry="9.2"/><path class="g" d="m2.8 321.3q-0.2 0-0.5 0c-1.1-0.3-1.7-1.4-1.5-2.4l45.6-186.8v-47.6c0-1.1 0.9-2 2-2 1.1 0 2 0.9 2 2v47.9q0 0.2 0 0.4l-45.7 187c-0.2 0.9-1 1.5-1.9 1.5z"/><path class="g" d="m91 321.9c-0.9 0-1.7-0.6-2-1.5l-42.5-187.6c-0.3-1.1 0.4-2.1 1.5-2.4 1.1-0.2 2.1 0.4 2.4 1.5l42.6 187.6c0.2 1-0.5 2.1-1.6 2.4q-0.2 0-0.4 0z"/><path class="g" d="m55 301.8c-1.1 0-2-0.9-2-1.9l-7.1-161.8c-0.1-1.1 0.8-2 1.9-2 1.1-0.1 2 0.8 2.1 1.9l7.1 161.7c0 1.1-0.8 2-1.9 2.1q-0.1 0-0.1 0z"/><path class="g" d="m63.6 200.8h-30.8c-1.2 0-2-0.9-2-2 0-1.1 0.8-2 2-2h30.8c1.1 0 2 0.9 2 2 0 1.1-0.9 2-2 2z"/><rect class="k" x="39.6" y="128.9" width="18.5" height="18.5" rx="5.6"></rect><path class="b" d="m114.6 108.5q31.1-17.6 42.9-31.9 11.8-14.3 23.5-31.3 20.1 10.8 15.1 46.8-5.5 40.3-69.9 42.4z"/><path class="b" d="m47.8 56.3q0 0-9.9-0.1c-0.2 0-0.5-0.2-0.5-0.5 0-0.3 0.3-0.5 0.5-0.5q0 0 9.9 0.1c0.3 0 0.5 0.3 0.5 0.5 0 0.3-0.2 0.5-0.5 0.5z"/><path fill-rule="evenodd" class="d" d="m141.1 91.8c-0.2 0-0.4-0.1-0.5-0.3-0.1-0.2 0-0.5 0.2-0.7l16.1-8.8c0.8-1 6.1-7.2 9.4-5.9 0.7 0.3 0.8 0.8 0.8 1.1 0 1.8-6.7 4.6-9.7 5.7l-16.1 8.8q-0.1 0.1-0.2 0.1zm24.1-14.9c-1.8 0-4.5 2.4-6.2 4.3 3.9-1.6 7-3.4 7.1-4 0 0-0.1-0.1-0.2-0.1q-0.3-0.2-0.7-0.2z"/><path class="d" d="m162 127.9c-0.3 0-0.5-0.1-0.5-0.4-0.1-0.2 0.1-0.5 0.3-0.6 0.2 0 13-3.4 20.2-11.1 0.2-0.2 0.5-0.2 0.7 0 0.2 0.2 0.2 0.5 0 0.7-7.4 7.9-20.1 11.3-20.6 11.4q-0.1 0-0.1 0z"/></svg>