<svg version="1.2" xmlns="http://www.w3.org/2000/svg" viewBox="0 0 187 306" width="187" height="306"><style>.a{fill:#aaa0af}.b{fill:#d2cad8}.c{fill:#fff}.d{fill:#ff9c85}.e{fill:#7b9b75}.f{fill:#ffae71}.g{fill:#ffbe83}.h{fill:#7772d3}.i{fill:#f98575}.j{fill:#ea6d59}.k{fill:#6565ba}</style><path class="a" d="m54.6 174.6h13.8v93.7h-13.8z"/><path class="a" d="m28.2 269.6c0-2.4 2-4.4 4.4-4.4h57.6c2.4 0 4.3 2 4.3 4.4 0 2.3-1.9 4.3-4.3 4.3h-57.6c-2.4 0-4.4-2-4.4-4.3z"/><circle class="a" cx="91.7" cy="280.5" r="9.3"/><circle class="a" cx="61.5" cy="280.5" r="9.3"/><circle class="a" cx="31.4" cy="280.5" r="9.3"/><path class="b" d="m113.6 168.3q-3 30.4-42.4 28.8c-39.3-1.7-76.7-28.5-70.5-72.6q5.4-38.3 38.4-46.1z"/><path class="c" d="m15.9 165.7q-0.2 0-0.3-0.2c-9.7-8.9-11.5-25.8-11.6-26.6 0-0.2 0.2-0.5 0.5-0.5 0.2 0 0.5 0.2 0.5 0.4 0 0.2 1.8 17.3 11.2 26 0.2 0.2 0.3 0.5 0.1 0.7q-0.2 0.2-0.4 0.2z"/><path class="d" d="m100.2 235.8v25.5l-19.4 7.3-12.2-13.7-2-23.6z"/><path class="d" d="m136.6 230.5v25.5l-20.7 7.3-13-13.7-2.2-23.6z"/><path class="e" d="m94.2 112.3q49.5 24.9 55.6 35 6.1 10.1-0.6 92.5l-43.9 0.6-6.1-46.1-33.3-77.5z"/><path class="e" d="m74 120.5q33.7 27.7 34.6 35.3 0.8 7.6-0.3 88.5l-50.7-2.3-1.2-70.8q-22.9-17.1-23.6-24.3-0.7-7.3 1.3-29.4z"/><path class="f" d="m97.2 284.8q1-41 7.3-40.1 6.4 0.8 12.8 6.8 14.5-7.7 20.9-3.4 6.4 4.3 10 13.7l35.5 23q4.3 6.9 3.1 10.3c-1 2.7-54.9 1.2-78.6 0.4-6.1-0.2-11-4.9-11-10.7z"/><path class="g" d="m129.1 294.4c-0.1 3.5-14.8 6.7-25 6.7-21.7 0.1-38.2-8.7-40.5-13.9-2.2-5.3-0.8-29.1 2.2-35.7q3-6.7 15 6 14.4-11.9 20.1-8.2 5.8 3.8 14.7 25.6c3.4 3.6 13.5 14 13.5 19.5z"/><path class="c" d="m106.6 267.8h-16.6c-0.3 0-0.5-0.2-0.5-0.5 0-0.2 0.2-0.5 0.5-0.5h16.6c0.3 0 0.5 0.3 0.5 0.5 0 0.3-0.2 0.5-0.5 0.5z"/><path class="c" d="m109.4 275.4h-17.7c-0.2 0-0.5-0.3-0.5-0.5 0-0.3 0.3-0.5 0.5-0.5h17.7c0.2 0 0.5 0.2 0.5 0.5 0 0.2-0.3 0.5-0.5 0.5z"/><path class="c" d="m139.5 265.3c-0.3 0-0.5-0.2-0.5-0.5-0.1-0.2 0.1-0.5 0.4-0.5l10.6-1.5c0.3 0 0.5 0.2 0.6 0.5 0 0.2-0.2 0.5-0.5 0.5l-10.6 1.5q0 0 0 0z"/><path class="c" d="m142.1 272.6c-0.2 0-0.4-0.2-0.5-0.4 0-0.3 0.2-0.5 0.5-0.6l17.8-2.7c0.3 0 0.5 0.2 0.6 0.4 0 0.3-0.2 0.6-0.4 0.6l-17.9 2.7q0 0-0.1 0z"/><path class="h" d="m110.5 238.3c-0.2 0-0.5-0.2-0.5-0.5 0.1-0.7 1.9-75.5 0-84.3-1.2-5.9-20.2-24.6-20.4-24.8-0.1-0.1-0.1-0.3-0.1-0.4 0-0.2 0.1-0.3 0.3-0.4l13.7-5c0.2-0.1 0.5 0 0.6 0.3 0.1 0.2 0 0.5-0.3 0.6l-12.9 4.8c3.2 3.2 18.9 19 20.1 24.7 1.9 8.9 0.1 81.5 0 84.6 0 0.2-0.2 0.4-0.5 0.4z"/><path fill-rule="evenodd" class="h" d="m56.8 175.5q-0.1 0-0.3-0.1c-0.1-0.1-0.2-0.2-0.2-0.4 0-0.3 0.8-7.3 4.2-9.6q1.7-1.2 3.9-0.5 1.9 0.6 2 1.9c0.4 3.1-8.3 8.1-9.3 8.7q-0.2 0-0.3 0zm6.1-9.8q-1 0-1.8 0.5c-2.4 1.6-3.3 5.9-3.7 7.9 3.5-2.1 8.2-5.5 8-7.2q-0.1-0.7-1.3-1.1-0.6-0.1-1.2-0.1z"/><path class="h" d="m98.3 231.8q0 0-39.9-2.1c-0.3 0-0.5-0.2-0.5-0.5 0-0.3 0.3-0.5 0.5-0.5l39.9 2.1c0.3 0 0.5 0.2 0.5 0.5 0 0.3-0.2 0.5-0.5 0.5z"/><path class="h" d="m146.3 229.7h-35.6c-0.2 0-0.5-0.2-0.5-0.5 0-0.3 0.3-0.5 0.5-0.5h35.6c0.3 0 0.5 0.2 0.5 0.5 0 0.3-0.2 0.5-0.5 0.5z"/><path class="d" d="m142.7 93.3q9.2-7.7 12.2-5.9 3 1.8-3.3 9.4z"/><path class="i" d="m145.7 112.8q-25.2-0.9-42-10.3-8-42 6.6-29 14.7 13 47.1 23.3 13.4 16.9-11.7 16z"/><path class="j" d="m85.9 50.9q19.8 17.2 34.7 24.4l-7.3 31.7q-23.3 0.1-27.7-10.9-4.3-10.9 0.3-45.2z"/><path class="j" d="m69 45q15.3 1.6 21 10c5.8 8.5 5.3 58 3.5 59.3-0.6 0.5-10.5 12.7-29.1 12.2-18.6-0.5-33.5 1.6-31.5-10.2 0.2-1.3-0.7-58.5 3.8-63.5 4.5-5.1 21.1-9.3 32.3-7.8z"/><path class="d" d="m61.5 36.3l12 2.3 0.9 5.7 0.8 5.7q-1.7 1.2-6.7 0.9-6.7-0.4-8.8-3.6l-0.3-11.4z"/><path  d="m73.5 38.6l0.9 5.7c-2.9-0.2-9.9-1.3-12.6-6.9q-0.3-0.7-0.3-1.1z"/><path class="d" d="m75.5 12.6q6.3 14.2 4.1 22.2c-2.2 7.9-9.4 6.7-13.8 5.2q-4.3-1.5-6.4-4.1-4 1.4-6.8-2.4c-2.7-3.7-1.1-8.1 1.2-9.1q2.4-1 5.1 0.6l-2.2-4.1q9-21 18.8-8.3z"/><path  d="m75 30.7q-0.1 0-0.2 0c-0.2-0.1-0.4-0.4-0.3-0.6 0.8-2.6-1.1-5.4-1.2-5.5-0.1-0.2-0.1-0.5 0.2-0.7 0.2-0.1 0.5-0.1 0.7 0.2 0.1 0.1 2.2 3.2 1.3 6.3-0.1 0.2-0.3 0.3-0.5 0.3z"/><path  d="m58.3 31.7q-0.2 0-0.3-0.1l-3.9-4.1c-0.2-0.2-0.2-0.5 0-0.7 0.2-0.2 0.5-0.2 0.7 0l3.9 4.1c0.2 0.2 0.2 0.5 0 0.7q-0.2 0.1-0.4 0.1z"/><path  d="m54.2 30.7c-0.2 0-0.4-0.2-0.5-0.5 0-0.2 0.2-0.5 0.5-0.5l2.6-0.4c0.3-0.1 0.6 0.1 0.6 0.4 0 0.2-0.1 0.5-0.4 0.5l-2.7 0.4q0 0.1-0.1 0.1z"/><path fill-rule="evenodd" d="m70.5 35.1q-0.6 0-1.2-0.3c-1.8-0.9-2.5-3-2.5-3 0-0.2 0-0.4 0.2-0.5 0.1-0.2 0.3-0.2 0.5-0.2l5.5 1.9c0.2 0 0.3 0.2 0.3 0.3 0.1 0.2 0 0.4-0.1 0.5-0.1 0.1-1.2 1.3-2.7 1.3zm-2.3-2.6c0.4 0.5 0.8 1 1.5 1.4 0.8 0.4 1.6 0.1 2.1-0.3z"/><path  d="m68.5 25.4c-0.2 0-0.4-0.2-0.4-0.4l-0.4-2.7c0-0.2 0.2-0.5 0.4-0.5 0.3-0.1 0.6 0.1 0.6 0.4l0.3 2.6c0.1 0.3-0.1 0.6-0.4 0.6q0 0-0.1 0z"/><path class="g" d="m92.9 91.7c-0.3 0-0.5-0.2-0.5-0.5l-1.4-18.5c-0.1-0.3 0.1-0.5 0.4-0.5 0.3-0.1 0.5 0.2 0.6 0.4l1.4 18.5c0 0.3-0.2 0.5-0.5 0.5q0 0.1 0 0.1z"/><path  d="m76.4 24.8c-0.2 0-0.5-0.2-0.5-0.4l-0.4-2.7c0-0.3 0.2-0.5 0.4-0.6 0.3 0 0.6 0.2 0.6 0.5l0.4 2.6c0 0.3-0.2 0.5-0.4 0.6q-0.1 0-0.1 0z"/><path  d="m66.1 20.3q-0.1 0-0.2 0c-0.3-0.1-0.4-0.4-0.3-0.7 1-1.9 3.4-1.4 3.5-1.4 0.3 0.1 0.5 0.3 0.4 0.6-0.1 0.3-0.3 0.5-0.6 0.4-0.1 0-1.7-0.4-2.4 0.9-0.1 0.1-0.2 0.2-0.4 0.2z"/><path  d="m73.7 18.7q-0.1 0-0.2-0.1c-0.3-0.1-0.3-0.5-0.2-0.7q0.6-0.9 1.6-1c1.2-0.1 2.4 0.9 2.4 0.9 0.3 0.2 0.3 0.5 0.1 0.7-0.2 0.2-0.5 0.3-0.7 0.1-0.3-0.2-1-0.8-1.7-0.7q-0.5 0.1-0.8 0.6-0.2 0.2-0.5 0.2z"/><path class="g" d="m69.9 51.4c-3 0-6.8-0.8-10.5-3.8-0.3-0.1-0.3-0.4-0.1-0.7 0.2-0.2 0.5-0.2 0.7 0 7.2 5.8 14.9 2.7 15 2.7 0.2-0.2 0.5 0 0.6 0.2 0.1 0.3 0 0.6-0.2 0.7-0.1 0-2.3 0.9-5.5 0.9z"/><path  d="m51.5 27.3q-2.2-2.4-2.8-5.7-0.5-3.2 3-5.2-1.2-5.4 1.6-7.9 2.8-2.5 7-2.3 1.8-4.6 7-5.3 5.2-0.7 3.9 5 8.7-4 8.9 1.6c0.1 5.5-12.6 8.1-17.4 9.9q-4.8 1.8-3.8 7.6-5.3-2.4-7.4 2.3z"/><path class="d" d="m44.1 80q21.3 26.9 38.7 30.6 17.4 3.8-3.2 15.9-46.1-0.3-51.6-28.7-3.4-17.7 16.1-17.8z"/><path class="j" d="m61.3 89.4l-28.6 23.4q-12.7-19.3-9.2-39.7 4.7-28.2 34.8-28.2z"/><path fill-rule="evenodd" class="g" d="m56.3 92.3q-0.2 0-0.4-0.2c-0.8-1.2-5-7.1-4.1-9.3 0.1-0.4 0.5-0.8 1.2-0.9q0.9-0.1 1.6 0.5c2.2 1.9 2.2 8.7 2.2 9.4 0 0.2-0.1 0.4-0.3 0.5q-0.1 0-0.2 0zm-3-9.4q-0.1 0-0.2 0c-0.3 0-0.3 0.2-0.4 0.3-0.4 1 1.3 4.3 3.1 6.9-0.2-2.4-0.7-5.9-1.9-6.9q-0.3-0.3-0.6-0.3z"/><path class="g" d="m126.9 140.1h-4c-11.4 0-20.7-9.3-20.7-20.7v-38.8c0-6.3 5.1-11.5 11.5-11.5h22.5c6.4 0 11.5 5.2 11.5 11.5v38.8c0 11.4-9.3 20.7-20.8 20.7z"/><path class="g" d="m137.5 74.9h-25.2v-15.6h25.2z"/><path class="g" d="m140.2 61.8h-30.5c-1.4 0-2.5-1.1-2.5-2.5 0-1.3 1.1-2.5 2.5-2.5h30.5c1.4 0 2.5 1.2 2.5 2.5 0 1.4-1.1 2.5-2.5 2.5z"/><path class="c" d="m107.2 100c-0.3 0-0.5-0.3-0.5-0.5v-15.1c0-0.3 0.2-0.5 0.5-0.5 0.3 0 0.5 0.2 0.5 0.5v15.1c0 0.2-0.2 0.5-0.5 0.5z"/><path class="k" d="m68.4 297q-0.3 0-0.6-0.1c-1.1-0.3-1.7-1.4-1.3-2.5l43.9-147.3c0.3-1 1.4-1.7 2.5-1.3 1.1 0.3 1.7 1.4 1.3 2.5l-43.9 147.3c-0.3 0.9-1.1 1.4-1.9 1.4z"/><path class="k" d="m182.3 297c-0.8 0-1.6-0.5-1.9-1.4l-43.9-147.3c-0.4-1.1 0.2-2.2 1.3-2.5 1.1-0.4 2.2 0.3 2.5 1.3l43.9 147.3c0.4 1.1-0.2 2.2-1.3 2.5q-0.3 0.1-0.6 0.1z"/><path class="k" d="m126.3 305.7c-1.1 0-2-0.9-2-2l-1.4-158.2c0-1.1 0.9-2 2-2 1.1 0 2 0.8 2 1.9l1.4 158.3c0 1.1-0.9 2-2 2q0 0 0 0z"/><path class="d" d="m141.8 98.1c1.5-5.1 18.5-4.2 21.6-0.1q3.2 4.2-6.1 5.8-17-0.5-15.5-5.7z"/><path class="b" d="m157.5 140.9h-65.2c-1.3 0-2.4-1.1-2.4-2.4 0-1.4 1.1-2.5 2.4-2.5h65.2c1.4 0 2.5 1.1 2.5 2.5 0 1.3-1.1 2.4-2.5 2.4z"/><rect class="b" x="99.8" y="138.9" width="50.2" height="13.1" rx="4.3"></rect><path class="d" d="m141.3 105.9c1.4-5.1 18.5-4.2 21.6-0.1q3.2 4.1-6.1 5.8-17-0.5-15.5-5.7z"/><path class="d" d="m141.5 111.7c2-4.3 16.7-0.9 18.9 3.1 1 2.1-0.5 3.1-2.3 3.6-2.1 0.6-4.3 0.5-6.3 0-4.1-1.1-11.9-3.6-10.3-6.7z"/><path  d="m159.7 103.7q0 0-11.2-0.7c-0.3 0-0.5-0.3-0.4-0.5 0-0.3 0.2-0.5 0.5-0.5l11.1 0.7c0.3 0 0.5 0.3 0.5 0.5 0 0.3-0.3 0.5-0.5 0.5z"/><path  d="m155.7 112.1q-0.1-0.1-10.1-1.9c-0.3 0-0.5-0.3-0.4-0.6 0-0.2 0.3-0.4 0.6-0.4l10 1.9c0.3 0 0.5 0.3 0.4 0.5 0 0.3-0.3 0.5-0.5 0.5z"/><path class="d" d="m82.6 111.4q12.6-0.1 14.6 0.9c2.1 0.9 10.3 5.5 10.5 8.2q0.1 2.7-6.7 0 14.3 5.7 15.1 8.3 0.8 2.6-4.8 2.8 2.8 4.1 1.2 5.6-1.6 1.5-4.8 0 3.1 3-2.2 3.3c-5.3 0.2-25.5-4.4-30-19.2q-4.5-14.8 7.1-9.9z"/><path  d="m111.3 132.1q-0.1 0-0.2 0l-15.5-6.1c-0.2-0.1-0.4-0.4-0.3-0.6 0.1-0.3 0.4-0.4 0.7-0.3l15.5 6.1c0.3 0.1 0.4 0.4 0.3 0.6-0.1 0.2-0.3 0.3-0.5 0.3z"/><path  d="m107.7 137.7q-0.1 0-0.2 0l-14.8-5.6c-0.3-0.1-0.4-0.4-0.3-0.6 0.1-0.3 0.4-0.4 0.7-0.3l14.7 5.5c0.3 0.1 0.4 0.4 0.3 0.7 0 0.2-0.2 0.3-0.4 0.3z"/><path  d="m101 121q-0.2 0-0.3-0.1l-2.7-1.6c-0.2-0.2-0.3-0.5-0.1-0.7 0.1-0.3 0.4-0.3 0.7-0.2l2.6 1.7c0.3 0.1 0.3 0.4 0.2 0.7-0.1 0.1-0.3 0.2-0.4 0.2z"/></svg>