<svg width="25" height="25" viewBox="0 0 25 25" fill="none" xmlns="http://www.w3.org/2000/svg">
<path d="M21.2526 4.65796C21.0001 2.88267 19.4709 1.46484 17.627 1.46484C17.0762 1.46484 16.5434 1.58931 16.0527 1.82891C15.2344 0.697363 13.9126 0 12.5 0C11.0874 0 9.76558 0.697363 8.94731 1.82891C8.45664 1.58931 7.92378 1.46484 7.37305 1.46484C5.55488 1.46484 4.04209 2.84546 3.76387 4.65366C1.58018 5.27305 0 7.25718 0 9.57031C0 11.8777 1.57231 13.8576 3.74741 14.4827C3.9999 16.258 5.5291 17.6758 7.37305 17.6758C7.92378 17.6758 8.45664 17.5513 8.94731 17.3117C9.76558 18.4433 11.0874 19.1406 12.5 19.1406C13.9126 19.1406 15.2344 18.4433 16.0527 17.3117C16.5434 17.5513 17.0762 17.6758 17.627 17.6758C19.4451 17.6758 20.9579 16.2952 21.2361 14.487C23.4198 13.8676 25 11.8834 25 9.57031C25 7.26289 23.4277 5.28306 21.2526 4.65796Z" fill="#555BB3"/>
<path d="M16.8947 10.3027H13.965C13.6689 10.3027 13.4014 10.1247 13.2884 9.85068C13.1746 9.57676 13.2376 9.26201 13.4472 9.05244L15.1266 7.37305H13.965C13.5601 7.37305 13.2326 7.04546 13.2326 6.64062C13.2326 6.23579 13.5601 5.9082 13.965 5.9082H16.8947C17.1908 5.9082 17.4583 6.08628 17.5713 6.36025C17.685 6.63418 17.6221 6.94893 17.4125 7.1585L15.7331 8.83789H16.8947C17.2995 8.83789 17.6271 9.16548 17.6271 9.57031C17.6271 9.97515 17.2995 10.3027 16.8947 10.3027Z" fill="#D5797F"/>
<path d="M11.0353 13.2324H8.10561C7.80951 13.2324 7.54198 13.0543 7.429 12.7804C7.31527 12.5064 7.37821 12.1917 7.58778 11.9821L9.26718 10.3027H8.10561C7.70077 10.3027 7.37318 9.97515 7.37318 9.57031C7.37318 9.16548 7.70077 8.83789 8.10561 8.83789H11.0353C11.3314 8.83789 11.5989 9.01597 11.7119 9.28994C11.8256 9.56387 11.7627 9.87861 11.5531 10.0882L9.87372 11.7676H11.0353C11.4401 11.7676 11.7677 12.0952 11.7677 12.5C11.7677 12.9048 11.4401 13.2324 11.0353 13.2324Z" fill="#D5797F"/>
<circle cx="2.24609" cy="24.2676" r="0.732422" fill="#555BB3"/>
<path d="M6.64062 23.5352C5.429 23.5352 4.44336 22.5495 4.44336 21.3379C4.44336 20.1263 5.429 19.1406 6.64062 19.1406C7.85225 19.1406 8.83789 20.1263 8.83789 21.3379C8.83789 22.5495 7.85225 23.5352 6.64062 23.5352Z" fill="#555BB3"/>
</svg>
