<svg version="1.2" xmlns="http://www.w3.org/2000/svg" viewBox="0 0 1503 1004" width="1503" height="1004"><style>.a{fill:#fff}</style><g style="mix-blend-mode:overlay"><circle class="a" cx="1053.9" cy="304.7" r="1.5"/><circle class="a" cx="900.1" cy="374.9" r="1.5"/><circle class="a" cx="1451.8" cy="142" r="1.5"/><circle class="a" cx="1373.9" cy="196.5" r="1.5"/><circle class="a" cx="1322.5" cy="210.5" r="1.5"/><circle class="a" cx="1348.5" cy="209.4" r="1.5"/><circle class="a" cx="1398.9" cy="243.2" r="1.5"/><circle class="a" cx="1330.8" cy="325.4" r="1.5"/><circle class="a" cx="1333" cy="340.2" r="1.5"/><circle class="a" cx="976.7" cy="44.2" r="1.5"/><circle class="a" cx="1015" cy="127" r="1.5"/><circle class="a" cx="1097.3" cy="181.4" r="1.5"/><circle class="a" cx="1153.5" cy="200.8" r="1.5"/><circle class="a" cx="1144" cy="190.8" r="1.5"/><circle class="a" cx="1043.9" cy="125.6" r="1.5"/><circle class="a" cx="996.4" cy="76.6" r="1.5"/><circle class="a" cx="841.5" cy="94" r="1.5"/><circle class="a" cx="703" cy="223.4" r="1.5"/><circle class="a" cx="644.2" cy="192" r="1.5"/><circle class="a" cx="660.9" cy="136.1" r="1.5"/><circle class="a" cx="739.8" cy="131.4" r="1.5"/><circle class="a" cx="743.8" cy="179.2" r="1.5"/><circle class="a" cx="673.1" cy="155.5" r="1.5"/><circle class="a" cx="625.6" cy="57.3" r="1.5"/><circle class="a" cx="665.1" cy="2.9" r="1.5"/><circle class="a" cx="508.6" cy="117.3" r="1.5"/><circle class="a" cx="439.1" cy="316.7" r="1.5"/><circle class="a" cx="334.8" cy="424.7" r="1.5"/><circle class="a" cx="211.1" cy="448.8" r="1.5"/><circle class="a" cx="136.9" cy="380.5" r="1.5"/><circle class="a" cx="81.8" cy="315.9" r="1.5"/><circle class="a" cx="41.7" cy="239.5" r="1.5"/><circle class="a" cx="26.6" cy="222.9" r="1.5"/><circle class="a" cx="890.4" cy="424.2" r="1.5"/><circle class="a" cx="815.2" cy="488" r="1.5"/><circle class="a" cx="855.8" cy="526.5" r="1.5"/><circle class="a" cx="839.9" cy="604.6" r="1.5"/><circle class="a" cx="813.3" cy="650.3" r="1.5"/><circle class="a" cx="994.9" cy="602.7" r="1.5"/><circle class="a" cx="1055.6" cy="529.5" r="1.5"/><circle class="a" cx="1074.2" cy="494.8" r="1.5"/><circle class="a" cx="1097.6" cy="482.9" r="1.5"/><circle class="a" cx="951.1" cy="574.6" r="1.5"/><circle class="a" cx="854.6" cy="585" r="1.5"/><circle class="a" cx="848.4" cy="593.1" r="1.5"/><circle class="a" cx="883.1" cy="601.3" r="1.5"/><circle class="a" cx="862" cy="622.9" r="1.5"/><circle class="a" cx="915.5" cy="629.9" r="1.5"/><circle class="a" cx="877.1" cy="827.6" r="1.5"/><circle class="a" cx="891.4" cy="864.3" r="1.5"/><circle class="a" cx="853.2" cy="910.6" r="1.5"/><circle class="a" cx="841.9" cy="921.1" r="1.5"/><circle class="a" cx="1279.5" cy="508.9" r="1.5"/><circle class="a" cx="1174.2" cy="543.1" r="1.5"/><circle class="a" cx="1235" cy="542.7" r="1.5"/><circle class="a" cx="1252.3" cy="565.8" r="1.5"/><circle class="a" cx="1222.1" cy="588.9" r="1.5"/><circle class="a" cx="1264.2" cy="598.9" r="1.5"/><circle class="a" cx="1205.1" cy="639.9" r="1.5"/><circle class="a" cx="1353.8" cy="543.4" r="1.5"/><circle class="a" cx="1406.1" cy="497.3" r="1.5"/><circle class="a" cx="1414.1" cy="514.9" r="1.5"/><circle class="a" cx="1446.1" cy="624.1" r="1.5"/><circle class="a" cx="1416.3" cy="678.5" r="1.5"/><circle class="a" cx="1446" cy="715" r="1.5"/><circle class="a" cx="1448.6" cy="733.8" r="1.5"/><circle class="a" cx="1337.7" cy="410.6" r="1.5"/><circle class="a" cx="1150.3" cy="416.7" r="1.5"/><circle class="a" cx="1164" cy="373.3" r="1.5"/><circle class="a" cx="1174.1" cy="330.2" r="1.5"/><circle class="a" cx="1188" cy="298.1" r="1.5"/><circle class="a" cx="1200.2" cy="278.4" r="1.5"/><circle class="a" cx="1102.2" cy="351.7" r="1.5"/><circle class="a" cx="1039.7" cy="379.5" r="1.5"/><circle class="a" cx="858.2" cy="275.7" r="1.5"/><circle class="a" cx="895" cy="169.1" r="1.5"/><circle class="a" cx="892.9" cy="266.9" r="1.5"/><circle class="a" cx="872.7" cy="190.4" r="1.5"/><circle class="a" cx="859.5" cy="185.9" r="1.5"/><circle class="a" cx="860.8" cy="221.2" r="1.5"/><circle class="a" cx="894.8" cy="251" r="1.5"/><circle class="a" cx="543.3" cy="232.1" r="1.5"/><circle class="a" cx="466.7" cy="243.2" r="1.5"/><circle class="a" cx="427.8" cy="259.5" r="1.5"/><circle class="a" cx="392.1" cy="259.2" r="1.5"/><circle class="a" cx="339.9" cy="244.9" r="1.5"/><circle class="a" cx="276.3" cy="308.3" r="1.5"/><circle class="a" cx="371" cy="341.7" r="1.5"/><circle class="a" cx="264.4" cy="382.8" r="1.5"/><circle class="a" cx="271.1" cy="387.6" r="1.5"/><circle class="a" cx="262" cy="400" r="1.5"/><circle class="a" cx="302.4" cy="407.2" r="1.5"/><circle class="a" cx="289.5" cy="373.3" r="1.5"/><circle class="a" cx="183.3" cy="205.3" r="1.5"/><circle class="a" cx="138.8" cy="100.4" r="1.5"/><circle class="a" cx="114.5" cy="74.9" r="1.5"/><circle class="a" cx="65.6" cy="64.2" r="1.5"/><circle class="a" cx="56.7" cy="57.2" r="1.5"/><circle class="a" cx="37.9" cy="31.5" r="1.5"/><circle class="a" cx="23.4" cy="46.7" r="1.5"/><circle class="a" cx="1.7" cy="142" r="1.5"/><circle class="a" cx="73.7" cy="167.9" r="1.5"/><circle class="a" cx="140.4" cy="149.1" r="1.5"/><circle class="a" cx="150.2" cy="85.3" r="1.5"/><circle class="a" cx="214.3" cy="29.2" r="1.5"/><circle class="a" cx="223.8" cy="36.4" r="1.5"/><circle class="a" cx="221.9" cy="85.6" r="1.5"/><circle class="a" cx="325.5" cy="58.1" r="1.5"/><circle class="a" cx="471" cy="44.3" r="1.5"/><circle class="a" cx="444" cy="113.4" r="1.5"/><circle class="a" cx="388.1" cy="161.6" r="1.5"/><circle class="a" cx="644.7" cy="123" r="1.5"/><circle class="a" cx="498.7" cy="167.4" r="1.5"/><circle class="a" cx="889.7" cy="59.8" r="1.5"/><circle class="a" cx="981.5" cy="149.1" r="1.5"/><circle class="a" cx="1018.7" cy="184.4" r="1.5"/><circle class="a" cx="1095.5" cy="233.2" r="1.5"/><circle class="a" cx="1096.6" cy="288.1" r="1.5"/><circle class="a" cx="1355.7" cy="261" r="1.5"/><circle class="a" cx="1409.9" cy="298.4" r="1.5"/><circle class="a" cx="1409.5" cy="83.7" r="1.5"/><circle class="a" cx="1409.1" cy="74.5" r="1.5"/><circle class="a" cx="1442.1" cy="205.2" r="1.5"/><circle class="a" cx="1460.4" cy="347.5" r="1.5"/><circle class="a" cx="1444.5" cy="407.4" r="1.5"/><circle class="a" cx="1458.3" cy="422.5" r="1.5"/><circle class="a" cx="1471.6" cy="440.2" r="1.5"/><circle class="a" cx="1123.2" cy="600.7" r="1.5"/><circle class="a" cx="1058.2" cy="662.5" r="1.5"/><circle class="a" cx="951.8" cy="711.7" r="1.5"/><circle class="a" cx="942.9" cy="679.1" r="1.5"/><circle class="a" cx="868.6" cy="730.5" r="1.5"/><circle class="a" cx="815.1" cy="785.5" r="1.5"/><circle class="a" cx="745.8" cy="485.3" r="1.5"/><circle class="a" cx="724.1" cy="557.2" r="1.5"/><circle class="a" cx="681.3" cy="848.8" r="1.5"/><circle class="a" cx="578.4" cy="906.5" r="1.5"/><circle class="a" cx="638.1" cy="958.4" r="1.5"/><circle class="a" cx="854.8" cy="1002.4" r="1.5"/><circle class="a" cx="866.6" cy="950.5" r="1.5"/><circle class="a" cx="725.5" cy="975.3" r="1.5"/><circle class="a" cx="772.9" cy="896.7" r="1.5"/><circle class="a" cx="720.7" cy="991.9" r="1.5"/><circle class="a" cx="1474" cy="648.9" r="1.5"/><circle class="a" cx="1499.2" cy="595.4" r="1.5"/><circle class="a" cx="1459.5" cy="581.5" r="1.5"/><circle class="a" cx="1492.6" cy="305" r="1.5"/><circle class="a" cx="1481.9" cy="269.2" r="1.5"/><circle class="a" cx="1501.6" cy="68.2" r="1.5"/><circle class="a" cx="1496.6" cy="33.4" r="1.5"/><circle class="a" cx="1496.3" cy="16.2" r="1.5"/><circle class="a" cx="1058.5" cy="16.5" r="1.5"/><circle class="a" cx="1024.5" cy="7.4" r="1.5"/><circle class="a" cx="931.7" cy="5.7" r="1.5"/><circle class="a" cx="918.1" cy="34.7" r="1.5"/><circle class="a" cx="934" cy="58.2" r="1.5"/><circle class="a" cx="934.4" cy="87.5" r="1.5"/><circle class="a" cx="924.4" cy="103.8" r="1.5"/><circle class="a" cx="609.9" cy="27.2" r="1.5"/><circle class="a" cx="555.2" cy="12.8" r="1.5"/><circle class="a" cx="546.2" cy="13.6" r="1.5"/><circle class="a" cx="559.8" cy="54.3" r="1.5"/><circle class="a" cx="559.6" cy="68.6" r="1.5"/><circle class="a" cx="601.3" cy="130" r="1.5"/><circle class="a" cx="539" cy="182.5" r="1.5"/><circle class="a" cx="587.2" cy="209.8" r="1.5"/><circle class="a" cx="618.4" cy="275.2" r="1.5"/><circle class="a" cx="687.6" cy="270.8" r="1.5"/><circle class="a" cx="647.2" cy="251.3" r="1.5"/><circle class="a" cx="798.8" cy="280.8" r="1.5"/><circle class="a" cx="766.9" cy="260.4" r="1.5"/><circle class="a" cx="751.8" cy="214.3" r="1.5"/><circle class="a" cx="790.6" cy="191.1" r="1.5"/><circle class="a" cx="823.9" cy="179.5" r="1.5"/><circle class="a" cx="813.8" cy="209.9" r="1.5"/><circle class="a" cx="781" cy="243.6" r="1.5"/><circle class="a" cx="209" cy="358.5" r="1.5"/><circle class="a" cx="157.1" cy="340.4" r="1.5"/><circle class="a" cx="131.1" cy="301.2" r="1.5"/><circle class="a" cx="987.5" cy="200.7" r="1.5"/><circle class="a" cx="967.5" cy="198.4" r="1.5"/><circle class="a" cx="947.8" cy="192.5" r="1.5"/><circle class="a" cx="932.5" cy="205.4" r="1.5"/><circle class="a" cx="986.8" cy="289.5" r="1.5"/><circle class="a" cx="859.6" cy="314.9" r="1.5"/><circle class="a" cx="924.7" cy="305.1" r="1.5"/><circle class="a" cx="1000.9" cy="286.3" r="1.5"/><circle class="a" cx="981.3" cy="354.7" r="1.5"/><circle class="a" cx="973.9" cy="397.5" r="1.5"/><circle class="a" cx="971" cy="423.4" r="1.5"/><circle class="a" cx="848.9" cy="423.1" r="1.5"/><circle class="a" cx="851.6" cy="415.9" r="1.5"/><circle class="a" cx="990.5" cy="416" r="1.5"/><circle class="a" cx="1044.2" cy="421.1" r="1.5"/><circle class="a" cx="1077.5" cy="434.9" r="1.5"/><circle class="a" cx="1131.7" cy="505.9" r="1.5"/><circle class="a" cx="1166.9" cy="492.6" r="1.5"/><circle class="a" cx="1232.4" cy="431.9" r="1.5"/><circle class="a" cx="1202.4" cy="380" r="1.5"/><circle class="a" cx="1201.4" cy="459.3" r="1.5"/><circle class="a" cx="1244" cy="312.6" r="1.5"/><circle class="a" cx="1257.8" cy="366.1" r="1.5"/><circle class="a" cx="1264.1" cy="394.3" r="1.5"/><circle class="a" cx="1296.7" cy="465.3" r="1.5"/><circle class="a" cx="1296.6" cy="453" r="1.5"/><circle class="a" cx="1312" cy="457.6" r="1.5"/><circle class="a" cx="1331.6" cy="499.9" r="1.5"/><circle class="a" cx="1307.3" cy="577" r="1.5"/><circle class="a" cx="1318" cy="642.1" r="1.5"/><circle class="a" cx="1407.7" cy="582.9" r="1.5"/><circle class="a" cx="1390.5" cy="588.3" r="1.5"/><circle class="a" cx="1380.2" cy="640.6" r="1.5"/><circle class="a" cx="1374.7" cy="682.5" r="1.5"/><circle class="a" cx="1349.6" cy="601.5" r="1.5"/><circle class="a" cx="1063.9" cy="628.1" r="1.5"/><circle class="a" cx="1016.6" cy="649" r="1.5"/><circle class="a" cx="882.3" cy="690.3" r="1.5"/><circle class="a" cx="831.6" cy="688" r="1.5"/><circle class="a" cx="794.8" cy="687.3" r="1.5"/><circle class="a" cx="777.6" cy="741.6" r="1.5"/><circle class="a" cx="670" cy="787.7" r="1.5"/><circle class="a" cx="687" cy="764.1" r="1.5"/><circle class="a" cx="746.2" cy="816.8" r="1.5"/><circle class="a" cx="824" cy="816.8" r="1.5"/><circle class="a" cx="846.3" cy="797" r="1.5"/><circle class="a" cx="904.8" cy="783.7" r="1.5"/></g><g style="mix-blend-mode:overlay"><path class="a" d="m1427.5 324.7l0.2 1c0 0.3 0.3 0.5 0.6 0.6l1 0.2-1 0.1c-0.3 0.1-0.6 0.3-0.6 0.6l-0.2 1.1-0.2-1.1c0-0.3-0.3-0.5-0.6-0.6l-1-0.1 1-0.2c0.3-0.1 0.6-0.3 0.6-0.6z"/><path class="a" d="m1302.7 355l0.2 1.1c0 0.3 0.2 0.5 0.5 0.5l1.1 0.2-1.1 0.2c-0.3 0.1-0.5 0.3-0.5 0.6l-0.2 1-0.2-1c-0.1-0.3-0.3-0.5-0.6-0.6l-1-0.2 1-0.2c0.3 0 0.5-0.2 0.6-0.5z"/><path class="a" d="m1276 345l0.2 1c0.1 0.3 0.3 0.5 0.6 0.6l1 0.2-1 0.1c-0.3 0.1-0.5 0.3-0.6 0.6l-0.2 1.1-0.1-1.1c-0.1-0.3-0.3-0.5-0.6-0.6l-1.1-0.1 1.1-0.2c0.3-0.1 0.5-0.3 0.6-0.6z"/><path class="a" d="m1236.3 343.5l0.2 1c0.1 0.3 0.3 0.5 0.6 0.6l1 0.2-1 0.1c-0.3 0.1-0.5 0.3-0.6 0.6l-0.2 1.1-0.2-1.1c0-0.3-0.3-0.5-0.6-0.6l-1-0.1 1-0.2c0.3-0.1 0.6-0.3 0.6-0.6z"/><path class="a" d="m1064.6 343.8l0.2 1.1c0 0.3 0.3 0.5 0.6 0.5l1 0.2-1 0.2c-0.3 0.1-0.6 0.3-0.6 0.6l-0.2 1-0.2-1c-0.1-0.3-0.3-0.5-0.6-0.6l-1-0.2 1-0.2c0.3 0 0.5-0.2 0.6-0.5z"/><path class="a" d="m898.3 409.3l0.2 1c0.1 0.3 0.3 0.6 0.6 0.6l1 0.2-1 0.2c-0.3 0.1-0.5 0.3-0.6 0.6l-0.2 1-0.1-1c-0.1-0.3-0.3-0.5-0.6-0.6l-1.1-0.2 1.1-0.2c0.3 0 0.5-0.3 0.6-0.6z"/><path class="a" d="m897.9 452.6l0.2 1c0 0.3 0.3 0.6 0.6 0.6l1 0.2-1 0.2c-0.3 0-0.6 0.3-0.6 0.6l-0.2 1-0.2-1c0-0.3-0.3-0.6-0.6-0.6l-1-0.2 1-0.2c0.3 0 0.6-0.3 0.6-0.6z"/><path class="a" d="m819.6 506.8l0.2 1c0 0.3 0.3 0.5 0.6 0.6l1 0.2-1 0.2c-0.3 0-0.6 0.2-0.6 0.5l-0.2 1.1-0.2-1.1c0-0.3-0.3-0.5-0.6-0.5l-1-0.2 1-0.2c0.3-0.1 0.6-0.3 0.6-0.6z"/><path class="a" d="m799 430.4l0.2 1c0.1 0.3 0.3 0.5 0.6 0.6l1 0.2-1 0.1c-0.3 0.1-0.5 0.3-0.6 0.6l-0.2 1.1-0.2-1.1c0-0.3-0.2-0.5-0.5-0.6l-1.1-0.1 1.1-0.2c0.3-0.1 0.5-0.3 0.5-0.6z"/><path class="a" d="m755 481.5l0.2 1c0 0.3 0.3 0.5 0.6 0.6l1 0.1-1 0.2c-0.3 0.1-0.6 0.3-0.6 0.6l-0.2 1-0.2-1c0-0.3-0.3-0.5-0.6-0.6l-1-0.2 1-0.1c0.3-0.1 0.6-0.3 0.6-0.6z"/><path class="a" d="m747.8 561.7l0.2 1c0.1 0.3 0.3 0.5 0.6 0.6l1 0.2-1 0.2c-0.3 0-0.5 0.2-0.6 0.5l-0.2 1.1-0.1-1.1c-0.1-0.3-0.3-0.5-0.6-0.5l-1.1-0.2 1.1-0.2c0.3-0.1 0.5-0.3 0.6-0.6z"/><path class="a" d="m765.7 535.9l0.2 1c0.1 0.3 0.3 0.5 0.6 0.6l1 0.2-1 0.2c-0.3 0-0.5 0.3-0.6 0.6l-0.2 1-0.1-1c-0.1-0.3-0.3-0.6-0.6-0.6l-1.1-0.2 1.1-0.2c0.3-0.1 0.5-0.3 0.6-0.6z"/><path class="a" d="m801.1 588.7l0.2 1c0.1 0.3 0.3 0.5 0.6 0.6l1 0.2-1 0.2c-0.3 0-0.5 0.2-0.6 0.5l-0.2 1.1-0.2-1.1c0-0.3-0.2-0.5-0.5-0.5l-1.1-0.2 1.1-0.2c0.3-0.1 0.5-0.3 0.5-0.6z"/><path class="a" d="m727.6 266.6l0.2 1c0 0.3 0.2 0.6 0.5 0.6l1.1 0.2-1.1 0.2c-0.3 0-0.5 0.3-0.5 0.6l-0.2 1-0.2-1c-0.1-0.3-0.3-0.6-0.6-0.6l-1-0.2 1-0.2c0.3 0 0.5-0.3 0.6-0.6z"/><path class="a" d="m744.3 274.8l0.2 1c0 0.3 0.3 0.5 0.6 0.6l1 0.2-1 0.1c-0.3 0.1-0.6 0.3-0.6 0.6l-0.2 1.1-0.2-1.1c0-0.3-0.3-0.5-0.6-0.6l-1-0.1 1-0.2c0.3-0.1 0.6-0.3 0.6-0.6z"/><path class="a" d="m753.5 296l0.2 1.1c0 0.3 0.3 0.5 0.6 0.6l1 0.1-1 0.2c-0.3 0.1-0.6 0.3-0.6 0.6l-0.2 1-0.2-1c0-0.3-0.3-0.5-0.6-0.6l-1-0.2 1-0.1c0.3-0.1 0.6-0.3 0.6-0.6z"/><path class="a" d="m768.1 306l0.2 1.1c0.1 0.3 0.3 0.5 0.6 0.6l1 0.1-1 0.2c-0.3 0.1-0.5 0.3-0.6 0.6l-0.2 1-0.1-1c-0.1-0.3-0.3-0.5-0.6-0.6l-1.1-0.2 1.1-0.1c0.3-0.1 0.5-0.3 0.6-0.6z"/><path class="a" d="m807.2 164.4l0.2 1c0.1 0.3 0.3 0.6 0.6 0.6l1 0.2-1 0.2c-0.3 0-0.5 0.3-0.6 0.6l-0.2 1-0.1-1c-0.1-0.3-0.3-0.6-0.6-0.6l-1.1-0.2 1.1-0.2c0.3 0 0.5-0.3 0.6-0.6z"/><path class="a" d="m713.1 176.1l0.2 1c0.1 0.3 0.3 0.6 0.6 0.6l1 0.2-1 0.2c-0.3 0-0.5 0.3-0.6 0.6l-0.2 1-0.2-1c0-0.3-0.3-0.6-0.6-0.6l-1-0.2 1-0.2c0.3 0 0.6-0.3 0.6-0.6z"/><path class="a" d="m917.6 87l0.2 1c0 0.3 0.2 0.5 0.5 0.6l1.1 0.2-1.1 0.1c-0.3 0.1-0.5 0.3-0.5 0.6l-0.2 1.1-0.2-1.1c-0.1-0.3-0.3-0.5-0.6-0.6l-1-0.1 1-0.2c0.3-0.1 0.5-0.3 0.6-0.6z"/><path class="a" d="m923.5 185.4l0.2 1c0 0.3 0.3 0.5 0.6 0.6l1 0.2-1 0.2c-0.3 0-0.6 0.3-0.6 0.6l-0.2 1-0.2-1c0-0.3-0.3-0.6-0.6-0.6l-1-0.2 1-0.2c0.3-0.1 0.6-0.3 0.6-0.6z"/><path class="a" d="m877 137.7l0.2 1c0.1 0.3 0.3 0.6 0.6 0.6l1 0.2-1 0.2c-0.3 0-0.5 0.3-0.6 0.6l-0.2 1-0.2-1c0-0.3-0.3-0.6-0.6-0.6l-1-0.2 1-0.2c0.3 0 0.6-0.3 0.6-0.6z"/><path class="a" d="m923.4 132.1l0.2 1c0.1 0.3 0.3 0.6 0.6 0.6l1 0.2-1 0.2c-0.3 0-0.5 0.3-0.6 0.6l-0.2 1-0.2-1c0-0.3-0.3-0.6-0.6-0.6l-1-0.2 1-0.2c0.3 0 0.6-0.3 0.6-0.6z"/><path class="a" d="m970.8 144.7l0.2 1.1c0 0.3 0.3 0.5 0.6 0.5l1 0.2-1 0.2c-0.3 0.1-0.6 0.3-0.6 0.6l-0.2 1-0.2-1c0-0.3-0.3-0.5-0.6-0.6l-1-0.2 1-0.2c0.3 0 0.6-0.2 0.6-0.5z"/><path class="a" d="m986.2 117.1l0.2 1c0 0.3 0.3 0.6 0.6 0.6l1 0.2-1 0.2c-0.3 0-0.6 0.3-0.6 0.6l-0.2 1-0.2-1c0-0.3-0.3-0.6-0.6-0.6l-1-0.2 1-0.2c0.3 0 0.6-0.3 0.6-0.6z"/><path class="a" d="m1013.7 179l0.2 1.1c0 0.3 0.3 0.5 0.6 0.5l1 0.2-1 0.2c-0.3 0.1-0.6 0.3-0.6 0.6l-0.2 1-0.2-1c0-0.3-0.3-0.5-0.6-0.6l-1-0.2 1-0.2c0.3 0 0.6-0.2 0.6-0.5z"/><path class="a" d="m1058.7 31.5l0.2 1.1c0.1 0.3 0.3 0.5 0.6 0.5l1 0.2-1 0.2c-0.3 0.1-0.5 0.3-0.6 0.6l-0.2 1-0.1-1c-0.1-0.3-0.3-0.5-0.6-0.6l-1.1-0.2 1.1-0.2c0.3 0 0.5-0.2 0.6-0.5z"/><path class="a" d="m1030.6 180.3l0.2 1.1c0 0.3 0.2 0.5 0.5 0.6l1.1 0.1-1.1 0.2c-0.3 0.1-0.5 0.3-0.5 0.6l-0.2 1-0.2-1c-0.1-0.3-0.3-0.5-0.6-0.6l-1-0.2 1-0.1c0.3-0.1 0.5-0.3 0.6-0.6z"/><path class="a" d="m1060.3 190.3l0.2 1c0 0.3 0.3 0.6 0.6 0.6l1 0.2-1 0.2c-0.3 0-0.6 0.3-0.6 0.6l-0.2 1-0.2-1c0-0.3-0.3-0.6-0.6-0.6l-1-0.2 1-0.2c0.3 0 0.6-0.3 0.6-0.6z"/><path class="a" d="m1082 244.5l0.2 1.1c0 0.3 0.3 0.5 0.6 0.6l1 0.1-1 0.2c-0.3 0.1-0.6 0.3-0.6 0.6l-0.2 1-0.2-1c0-0.3-0.3-0.5-0.6-0.6l-1-0.2 1-0.1c0.3-0.1 0.6-0.3 0.6-0.6z"/><path class="a" d="m1016.5 208.5l0.2 1.1c0.1 0.3 0.3 0.5 0.6 0.6l1 0.1-1 0.2c-0.3 0.1-0.5 0.3-0.6 0.6l-0.2 1-0.1-1c-0.1-0.3-0.3-0.5-0.6-0.6l-1-0.2 1-0.1c0.3-0.1 0.5-0.3 0.6-0.6z"/><path class="a" d="m912.1 232.1l0.2 1c0.1 0.3 0.3 0.5 0.6 0.6l1 0.2-1 0.1c-0.3 0.1-0.5 0.3-0.6 0.6l-0.2 1.1-0.1-1.1c-0.1-0.3-0.3-0.5-0.6-0.6l-1.1-0.1 1.1-0.2c0.3-0.1 0.5-0.3 0.6-0.6z"/><path class="a" d="m943.5 209.4l0.2 1c0.1 0.3 0.3 0.6 0.6 0.6l1 0.2-1 0.2c-0.3 0-0.5 0.3-0.6 0.6l-0.2 1-0.2-1c0-0.3-0.2-0.6-0.5-0.6l-1.1-0.2 1.1-0.2c0.3 0 0.5-0.3 0.5-0.6z"/><path class="a" d="m932.6 244.3l0.2 1.1c0 0.3 0.2 0.5 0.5 0.5l1.1 0.2-1.1 0.2c-0.3 0.1-0.5 0.3-0.5 0.6l-0.2 1-0.2-1c-0.1-0.3-0.3-0.5-0.6-0.6l-1-0.2 1-0.2c0.3 0 0.5-0.2 0.6-0.5z"/><path class="a" d="m987.1 206.6l0.2 1c0.1 0.3 0.3 0.6 0.6 0.6l1 0.2-1 0.2c-0.3 0.1-0.5 0.3-0.6 0.6l-0.2 1-0.1-1c-0.1-0.3-0.3-0.5-0.6-0.6l-1.1-0.2 1.1-0.2c0.3 0 0.5-0.3 0.6-0.6z"/><path class="a" d="m955.6 249.9l0.1 1c0.1 0.3 0.3 0.5 0.6 0.6l1.1 0.2-1.1 0.2c-0.3 0-0.5 0.3-0.6 0.6l-0.1 1-0.2-1c-0.1-0.3-0.3-0.6-0.6-0.6l-1-0.2 1-0.2c0.3-0.1 0.5-0.3 0.6-0.6z"/><path class="a" d="m741.9 245.3l0.1 1c0.1 0.3 0.3 0.6 0.6 0.6l1.1 0.2-1.1 0.2c-0.3 0-0.5 0.3-0.6 0.6l-0.1 1-0.2-1c-0.1-0.3-0.3-0.6-0.6-0.6l-1-0.2 1-0.2c0.3 0 0.5-0.3 0.6-0.6z"/><path class="a" d="m696.4 254.7l0.2 1.1c0.1 0.3 0.3 0.5 0.6 0.6l1 0.1-1 0.2c-0.3 0.1-0.5 0.3-0.6 0.6l-0.2 1-0.1-1c-0.1-0.3-0.3-0.5-0.6-0.6l-1.1-0.2 1.1-0.1c0.3-0.1 0.5-0.3 0.6-0.6z"/><path class="a" d="m652.5 252.2l0.1 1.1c0.1 0.3 0.3 0.5 0.6 0.6l1 0.1-1 0.2c-0.3 0.1-0.5 0.3-0.6 0.6l-0.1 1-0.2-1c-0.1-0.3-0.3-0.5-0.6-0.6l-1-0.2 1-0.1c0.3-0.1 0.5-0.3 0.6-0.6z"/><path class="a" d="m611.6 267.7l0.2 1.1c0.1 0.3 0.3 0.5 0.6 0.5l1 0.2-1 0.2c-0.3 0.1-0.5 0.3-0.6 0.6l-0.2 1-0.2-1c0-0.3-0.3-0.5-0.6-0.6l-1-0.2 1-0.2c0.3 0 0.6-0.2 0.6-0.5z"/><path class="a" d="m659.4 148.1l0.2 1c0 0.3 0.2 0.6 0.5 0.6l1.1 0.2-1.1 0.2c-0.3 0-0.5 0.3-0.5 0.6l-0.2 1-0.2-1c-0.1-0.3-0.3-0.6-0.6-0.6l-1-0.2 1-0.2c0.3 0 0.5-0.3 0.6-0.6z"/><path class="a" d="m685.4 189l0.2 1.1c0.1 0.3 0.3 0.5 0.6 0.6l1 0.1-1 0.2c-0.3 0.1-0.5 0.3-0.6 0.6l-0.2 1-0.2-1c0-0.3-0.2-0.5-0.5-0.6l-1.1-0.2 1.1-0.1c0.3-0.1 0.5-0.3 0.5-0.6z"/><path class="a" d="m632.8 144.7l0.2 1c0.1 0.3 0.3 0.5 0.6 0.6l1 0.2-1 0.2c-0.3 0-0.5 0.2-0.6 0.5l-0.2 1.1-0.2-1.1c0-0.3-0.2-0.5-0.5-0.5l-1.1-0.2 1.1-0.2c0.3-0.1 0.5-0.3 0.5-0.6z"/><path class="a" d="m623.5 167.6l0.2 1c0.1 0.3 0.3 0.6 0.6 0.6l1 0.2-1 0.2c-0.3 0.1-0.5 0.3-0.6 0.6l-0.2 1-0.1-1c-0.1-0.3-0.3-0.5-0.6-0.6l-1-0.2 1-0.2c0.3 0 0.5-0.3 0.6-0.6z"/><path class="a" d="m578 102.7l0.2 1c0.1 0.3 0.3 0.5 0.6 0.6l1 0.2-1 0.2c-0.3 0-0.5 0.3-0.6 0.5l-0.2 1.1-0.1-1.1c-0.1-0.2-0.3-0.5-0.6-0.5l-1.1-0.2 1.1-0.2c0.3-0.1 0.5-0.3 0.6-0.6z"/><path class="a" d="m556.1 169l0.2 1c0 0.3 0.2 0.5 0.5 0.6l1.1 0.2-1.1 0.1c-0.3 0.1-0.5 0.3-0.5 0.6l-0.2 1.1-0.2-1.1c-0.1-0.3-0.3-0.5-0.6-0.6l-1-0.1 1-0.2c0.3-0.1 0.5-0.3 0.6-0.6z"/><path class="a" d="m585.5 128.1l0.2 1c0.1 0.3 0.3 0.6 0.6 0.6l1 0.2-1 0.2c-0.3 0-0.5 0.3-0.6 0.6l-0.2 1-0.2-1c0-0.3-0.2-0.6-0.5-0.6l-1.1-0.2 1.1-0.2c0.3 0 0.5-0.3 0.5-0.6z"/><path class="a" d="m579.9 161.4l0.2 1c0 0.3 0.2 0.5 0.5 0.6l1.1 0.2-1.1 0.1c-0.3 0.1-0.5 0.3-0.5 0.6l-0.2 1.1-0.2-1.1c-0.1-0.3-0.3-0.5-0.6-0.6l-1-0.1 1-0.2c0.3-0.1 0.5-0.3 0.6-0.6z"/><path class="a" d="m548.8-0.1l0.2 1.1c0 0.3 0.3 0.5 0.6 0.5l1 0.2-1 0.2c-0.3 0.1-0.6 0.3-0.6 0.6l-0.2 1-0.2-1c0-0.3-0.3-0.5-0.6-0.6l-1-0.2 1-0.2c0.3 0 0.6-0.2 0.6-0.5z"/><path class="a" d="m563.8 14l0.2 1c0.1 0.3 0.3 0.6 0.6 0.6l1 0.2-1 0.2c-0.3 0-0.5 0.3-0.6 0.6l-0.2 1-0.1-1c-0.1-0.3-0.3-0.6-0.6-0.6l-1.1-0.2 1.1-0.2c0.3 0 0.5-0.3 0.6-0.6z"/><path class="a" d="m571.2 31.7l0.1 1.1c0.1 0.3 0.3 0.5 0.6 0.6l1.1 0.1-1.1 0.2c-0.3 0.1-0.5 0.3-0.6 0.6l-0.1 1-0.2-1c-0.1-0.3-0.3-0.5-0.6-0.6l-1-0.2 1-0.1c0.3-0.1 0.5-0.3 0.6-0.6z"/><path class="a" d="m603.8 10.7l0.2 1c0 0.3 0.3 0.5 0.6 0.6l1 0.2-1 0.1c-0.3 0.1-0.6 0.3-0.6 0.6l-0.2 1.1-0.2-1.1c0-0.3-0.3-0.5-0.6-0.6l-1-0.1 1-0.2c0.3-0.1 0.6-0.3 0.6-0.6z"/><path class="a" d="m589 53.8l0.2 1c0 0.3 0.2 0.6 0.5 0.6l1.1 0.2-1.1 0.2c-0.3 0-0.5 0.3-0.5 0.6l-0.2 1-0.2-1c-0.1-0.3-0.3-0.6-0.6-0.6l-1-0.2 1-0.2c0.3 0 0.5-0.3 0.6-0.6z"/><path class="a" d="m13.7 195.3l0.2 1c0 0.3 0.2 0.5 0.5 0.6l1.1 0.2-1.1 0.1c-0.3 0.1-0.5 0.3-0.5 0.6l-0.2 1.1-0.2-1.1c-0.1-0.3-0.3-0.5-0.6-0.6l-1-0.1 1-0.2c0.3-0.1 0.5-0.3 0.6-0.6z"/><path class="a" d="m23.1 256.8l0.2 1.1c0 0.3 0.3 0.5 0.6 0.6l1 0.1-1 0.2c-0.3 0.1-0.6 0.3-0.6 0.6l-0.2 1-0.2-1c0-0.3-0.3-0.5-0.6-0.6l-1-0.2 1-0.1c0.3-0.1 0.6-0.3 0.6-0.6z"/><path class="a" d="m12.6 268.7l0.2 1c0.1 0.3 0.3 0.5 0.6 0.6l1 0.2-1 0.1c-0.3 0.1-0.5 0.3-0.6 0.6l-0.2 1.1-0.2-1.1c0-0.3-0.3-0.5-0.6-0.6l-1-0.1 1-0.2c0.3-0.1 0.6-0.3 0.6-0.6z"/><path class="a" d="m12.5 279.9l0.2 1c0.1 0.3 0.3 0.6 0.6 0.6l1 0.2-1 0.2c-0.3 0-0.5 0.3-0.6 0.6l-0.2 1-0.2-1c0-0.3-0.3-0.6-0.6-0.6l-1-0.2 1-0.2c0.3 0 0.6-0.3 0.6-0.6z"/><path class="a" d="m62.3 295.6l0.2 1.1c0.1 0.3 0.3 0.5 0.6 0.5l1 0.2-1 0.2c-0.3 0.1-0.5 0.3-0.6 0.6l-0.2 1-0.1-1c-0.1-0.3-0.3-0.5-0.6-0.6l-1.1-0.2 1.1-0.2c0.3 0 0.5-0.2 0.6-0.5z"/><path class="a" d="m53.6 266.1l0.2 1c0.1 0.3 0.3 0.5 0.6 0.6l1 0.2-1 0.2c-0.3 0-0.5 0.2-0.6 0.5l-0.2 1.1-0.1-1.1c-0.1-0.3-0.3-0.5-0.6-0.5l-1.1-0.2 1.1-0.2c0.3-0.1 0.5-0.3 0.6-0.6z"/><path class="a" d="m86.7 318l0.2 1c0 0.3 0.3 0.5 0.6 0.6l1 0.2-1 0.1c-0.3 0.1-0.6 0.3-0.6 0.6l-0.2 1.1-0.2-1.1c0-0.3-0.3-0.5-0.6-0.6l-1-0.1 1-0.2c0.3-0.1 0.6-0.3 0.6-0.6z"/><path class="a" d="m146.9 335.6l0.2 1.1c0 0.3 0.3 0.5 0.6 0.6l1 0.1-1 0.2c-0.3 0.1-0.6 0.3-0.6 0.6l-0.2 1-0.2-1c0-0.3-0.3-0.5-0.6-0.6l-1-0.2 1-0.1c0.3-0.1 0.6-0.3 0.6-0.6z"/><path class="a" d="m158.1 369.5l0.1 1.1c0.1 0.3 0.3 0.5 0.6 0.5l1 0.2-1 0.2c-0.3 0.1-0.5 0.3-0.6 0.6l-0.1 1-0.2-1c-0.1-0.3-0.3-0.5-0.6-0.6l-1-0.2 1-0.2c0.3 0 0.5-0.2 0.6-0.5z"/><path class="a" d="m193.5 407.7l0.2 1c0.1 0.3 0.3 0.5 0.6 0.6l1 0.1-1 0.2c-0.3 0.1-0.5 0.3-0.6 0.6l-0.2 1-0.2-1c0-0.3-0.2-0.5-0.5-0.6l-1.1-0.2 1.1-0.1c0.3-0.1 0.5-0.3 0.5-0.6z"/><path class="a" d="m201 357.7l0.2 1c0.1 0.3 0.3 0.6 0.6 0.6l1 0.2-1 0.2c-0.3 0.1-0.5 0.3-0.6 0.6l-0.2 1-0.1-1c-0.1-0.3-0.3-0.5-0.6-0.6l-1.1-0.2 1.1-0.2c0.3 0 0.5-0.3 0.6-0.6z"/><path class="a" d="m305.2 403.2l0.2 1.1c0 0.3 0.3 0.5 0.6 0.5l1 0.2-1 0.2c-0.3 0.1-0.6 0.3-0.6 0.6l-0.2 1-0.2-1c0-0.3-0.3-0.5-0.6-0.6l-1-0.2 1-0.2c0.3 0 0.6-0.2 0.6-0.5z"/><path class="a" d="m270.2 371.5l0.2 1c0 0.3 0.3 0.5 0.6 0.6l1 0.2-1 0.2c-0.3 0-0.6 0.2-0.6 0.5l-0.2 1.1-0.2-1.1c0-0.3-0.3-0.5-0.6-0.5l-1-0.2 1-0.2c0.3-0.1 0.6-0.3 0.6-0.6z"/><path class="a" d="m356 370.1l0.2 1c0 0.3 0.2 0.6 0.5 0.6l1.1 0.2-1.1 0.2c-0.3 0-0.5 0.3-0.5 0.6l-0.2 1-0.2-1c-0.1-0.3-0.3-0.6-0.6-0.6l-1-0.2 1-0.2c0.3 0 0.5-0.3 0.6-0.6z"/><path class="a" d="m316.4 381.6l0.2 1c0.1 0.3 0.3 0.6 0.6 0.6l1 0.2-1 0.2c-0.3 0-0.5 0.3-0.6 0.6l-0.2 1-0.2-1c0-0.3-0.2-0.6-0.5-0.6l-1.1-0.2 1.1-0.2c0.3 0 0.5-0.3 0.5-0.6z"/><path class="a" d="m280 403.6l0.2 1c0 0.3 0.3 0.6 0.6 0.6l1 0.2-1 0.2c-0.3 0.1-0.6 0.3-0.6 0.6l-0.2 1-0.2-1c0-0.3-0.3-0.5-0.6-0.6l-1-0.2 1-0.2c0.3 0 0.6-0.3 0.6-0.6z"/><path class="a" d="m287.4 393.2l0.2 1c0.1 0.3 0.3 0.5 0.6 0.6l1 0.2-1 0.2c-0.3 0-0.5 0.3-0.6 0.6l-0.2 1-0.1-1c-0.1-0.3-0.3-0.6-0.6-0.6l-1.1-0.2 1.1-0.2c0.3-0.1 0.5-0.3 0.6-0.6z"/><path class="a" d="m283.6 368.4l0.2 1c0 0.3 0.2 0.5 0.5 0.6l1.1 0.2-1.1 0.1c-0.3 0.1-0.5 0.3-0.5 0.6l-0.2 1.1-0.2-1.1c-0.1-0.3-0.3-0.5-0.6-0.6l-1-0.1 1-0.2c0.3-0.1 0.5-0.3 0.6-0.6z"/><path class="a" d="m230.2 374.4l0.1 1c0.1 0.3 0.3 0.6 0.6 0.6l1.1 0.2-1.1 0.2c-0.3 0-0.5 0.3-0.6 0.6l-0.1 1-0.2-1c-0.1-0.3-0.3-0.6-0.6-0.6l-1-0.2 1-0.2c0.3 0 0.5-0.3 0.6-0.6z"/><path class="a" d="m394.1 365.8l0.2 1c0.1 0.3 0.3 0.6 0.6 0.6l1 0.2-1 0.2c-0.3 0-0.5 0.3-0.6 0.6l-0.2 1-0.2-1c0-0.3-0.2-0.6-0.5-0.6l-1.1-0.2 1.1-0.2c0.3 0 0.5-0.3 0.5-0.6z"/><path class="a" d="m483.2 253.3l0.2 1c0 0.3 0.2 0.5 0.5 0.6l1.1 0.2-1.1 0.2c-0.3 0-0.5 0.3-0.5 0.6l-0.2 1-0.2-1c-0.1-0.3-0.3-0.6-0.6-0.6l-1-0.2 1-0.2c0.3-0.1 0.5-0.3 0.6-0.6z"/><path class="a" d="m509.8 232l0.2 1c0 0.3 0.3 0.6 0.6 0.6l1 0.2-1 0.2c-0.3 0-0.6 0.3-0.6 0.6l-0.2 1-0.2-1c0-0.3-0.3-0.6-0.6-0.6l-1-0.2 1-0.2c0.3 0 0.6-0.3 0.6-0.6z"/><path class="a" d="m559.1 244.6l0.2 1.1c0.1 0.3 0.3 0.5 0.6 0.6l1 0.1-1 0.2c-0.3 0.1-0.5 0.3-0.6 0.6l-0.2 1-0.1-1c-0.1-0.3-0.3-0.5-0.6-0.6l-1.1-0.2 1.1-0.1c0.3-0.1 0.5-0.3 0.6-0.6z"/><path class="a" d="m570.3 235.3l0.2 1.1c0.1 0.3 0.3 0.5 0.6 0.5l1 0.2-1 0.2c-0.3 0.1-0.5 0.3-0.6 0.6l-0.2 1-0.1-1c-0.1-0.3-0.3-0.5-0.6-0.6l-1.1-0.2 1.1-0.2c0.3 0 0.5-0.2 0.6-0.5z"/><path class="a" d="m429.7 322.4l0.2 1.1c0 0.3 0.2 0.5 0.5 0.5l1.1 0.2-1.1 0.2c-0.3 0.1-0.5 0.3-0.5 0.6l-0.2 1-0.2-1c-0.1-0.3-0.3-0.5-0.6-0.6l-1-0.2 1-0.2c0.3 0 0.5-0.2 0.6-0.5z"/><path class="a" d="m619.7 206.3l0.2 1c0.1 0.3 0.3 0.5 0.6 0.6l1 0.2-1 0.2c-0.3 0-0.5 0.3-0.6 0.6l-0.2 1-0.1-1c-0.1-0.3-0.3-0.6-0.6-0.6l-1.1-0.2 1.1-0.2c0.3-0.1 0.5-0.3 0.6-0.6z"/><path class="a" d="m494.9 252.3l0.2 1c0 0.3 0.2 0.6 0.5 0.6l1.1 0.2-1.1 0.2c-0.3 0-0.5 0.3-0.5 0.6l-0.2 1-0.2-1c-0.1-0.3-0.3-0.6-0.6-0.6l-1-0.2 1-0.2c0.3 0 0.5-0.3 0.6-0.6z"/><path class="a" d="m527.6 284.5l0.2 1c0.1 0.3 0.3 0.5 0.6 0.6l1 0.2-1 0.1c-0.3 0.1-0.5 0.3-0.6 0.6l-0.2 1.1-0.2-1.1c0-0.3-0.2-0.5-0.5-0.6l-1.1-0.1 1.1-0.2c0.3-0.1 0.5-0.3 0.5-0.6z"/><path class="a" d="m659.6 207.6l0.2 1c0.1 0.3 0.3 0.6 0.6 0.6l1 0.2-1 0.2c-0.3 0-0.5 0.3-0.6 0.6l-0.2 1-0.1-1c-0.1-0.3-0.3-0.6-0.6-0.6l-1-0.2 1-0.2c0.3 0 0.5-0.3 0.6-0.6z"/><path class="a" d="m770.7 221l0.2 1.1c0 0.3 0.3 0.5 0.6 0.5l1 0.2-1 0.2c-0.3 0.1-0.6 0.3-0.6 0.6l-0.2 1-0.2-1c0-0.3-0.3-0.5-0.6-0.6l-1-0.2 1-0.2c0.3 0 0.6-0.2 0.6-0.5z"/><path class="a" d="m755.7 277.5l0.2 1c0 0.3 0.3 0.5 0.6 0.6l1 0.2-1 0.1c-0.3 0.1-0.6 0.3-0.6 0.6l-0.2 1.1-0.2-1.1c0-0.3-0.3-0.5-0.6-0.6l-1-0.1 1-0.2c0.3-0.1 0.6-0.3 0.6-0.6z"/><path class="a" d="m878 435.5l0.2 1.1c0.1 0.3 0.3 0.5 0.6 0.6l1 0.1-1 0.2c-0.3 0.1-0.5 0.3-0.6 0.6l-0.2 1-0.1-1c-0.1-0.3-0.3-0.5-0.6-0.6l-1-0.2 1-0.1c0.3-0.1 0.5-0.3 0.6-0.6z"/><path class="a" d="m881.1 422.5l0.2 1c0.1 0.3 0.3 0.5 0.6 0.6l1 0.2-1 0.1c-0.3 0.1-0.5 0.3-0.6 0.6l-0.2 1.1-0.1-1.1c-0.1-0.3-0.3-0.5-0.6-0.6l-1.1-0.1 1.1-0.2c0.3-0.1 0.5-0.3 0.6-0.6z"/><path class="a" d="m801 442.2l0.2 1c0 0.3 0.3 0.5 0.6 0.6l1 0.2-1 0.2c-0.3 0-0.6 0.3-0.6 0.5l-0.2 1.1-0.2-1.1c-0.1-0.2-0.3-0.5-0.6-0.5l-1-0.2 1-0.2c0.3-0.1 0.5-0.3 0.6-0.6z"/><path class="a" d="m869.6 597.1l0.2 1.1c0 0.3 0.3 0.5 0.6 0.5l1 0.2-1 0.2c-0.3 0.1-0.6 0.3-0.6 0.6l-0.2 1-0.2-1c0-0.3-0.3-0.5-0.6-0.6l-1-0.2 1-0.2c0.3 0 0.6-0.2 0.6-0.5z"/><path class="a" d="m884.6 626.5l0.2 1c0 0.3 0.3 0.5 0.6 0.6l1 0.2-1 0.2c-0.3 0-0.6 0.2-0.6 0.5l-0.2 1.1-0.2-1.1c0-0.3-0.3-0.5-0.6-0.5l-1-0.2 1-0.2c0.3-0.1 0.6-0.3 0.6-0.6z"/><path class="a" d="m891.8 635.3l0.2 1c0 0.3 0.3 0.6 0.6 0.6l1 0.2-1 0.2c-0.3 0.1-0.6 0.3-0.6 0.6l-0.2 1-0.2-1c0-0.3-0.3-0.5-0.6-0.6l-1-0.2 1-0.2c0.3 0 0.6-0.3 0.6-0.6z"/><path class="a" d="m865.4 620.6l0.2 1c0.1 0.3 0.3 0.5 0.6 0.6l1 0.2-1 0.1c-0.3 0.1-0.5 0.3-0.6 0.6l-0.2 1.1-0.1-1.1c-0.1-0.3-0.3-0.5-0.6-0.6l-1.1-0.1 1.1-0.2c0.3-0.1 0.5-0.3 0.6-0.6z"/><path class="a" d="m833.9 635.8l0.2 1c0.1 0.3 0.3 0.5 0.6 0.6l1 0.2-1 0.2c-0.3 0-0.5 0.2-0.6 0.5l-0.2 1.1-0.2-1.1c0-0.3-0.3-0.5-0.6-0.5l-1-0.2 1-0.2c0.3-0.1 0.6-0.3 0.6-0.6z"/><path class="a" d="m858.1 688l0.2 1c0.1 0.3 0.3 0.5 0.6 0.6l1 0.2-1 0.1c-0.3 0.1-0.5 0.3-0.6 0.6l-0.2 1.1-0.1-1.1c-0.1-0.3-0.3-0.5-0.6-0.6l-1.1-0.1 1.1-0.2c0.3-0.1 0.5-0.3 0.6-0.6z"/><path class="a" d="m855.3 708.2l0.2 1.1c0 0.3 0.2 0.5 0.5 0.5l1.1 0.2-1.1 0.2c-0.3 0.1-0.5 0.3-0.5 0.6l-0.2 1-0.2-1c-0.1-0.3-0.3-0.5-0.6-0.6l-1-0.2 1-0.2c0.3 0 0.5-0.2 0.6-0.5z"/><path class="a" d="m792.3 711.6l0.2 1c0.1 0.3 0.3 0.5 0.6 0.6l1 0.2-1 0.2c-0.3 0-0.5 0.2-0.6 0.5l-0.2 1.1-0.1-1.1c-0.1-0.3-0.3-0.5-0.6-0.5l-1.1-0.2 1.1-0.2c0.3-0.1 0.5-0.3 0.6-0.6z"/><path class="a" d="m786.2 728.9l0.2 1c0 0.3 0.2 0.6 0.5 0.6l1.1 0.2-1.1 0.2c-0.3 0-0.5 0.3-0.5 0.6l-0.2 1-0.2-1c-0.1-0.3-0.3-0.6-0.6-0.6l-1-0.2 1-0.2c0.3 0 0.5-0.3 0.6-0.6z"/><path class="a" d="m779.9 752.2l0.2 1c0 0.3 0.3 0.6 0.6 0.6l1 0.2-1 0.2c-0.3 0.1-0.6 0.3-0.6 0.6l-0.2 1-0.2-1c0-0.3-0.3-0.5-0.6-0.6l-1-0.2 1-0.2c0.3 0 0.6-0.3 0.6-0.6z"/><path class="a" d="m916.2 727.9l0.2 1.1c0 0.3 0.2 0.5 0.5 0.6l1.1 0.1-1.1 0.2c-0.3 0.1-0.5 0.3-0.5 0.6l-0.2 1-0.2-1c-0.1-0.3-0.3-0.5-0.6-0.6l-1-0.2 1-0.1c0.3-0.1 0.5-0.3 0.6-0.6z"/><path class="a" d="m867.4 760.4l0.2 1c0.1 0.3 0.3 0.5 0.6 0.6l1 0.2-1 0.2c-0.3 0-0.5 0.3-0.6 0.6l-0.2 1-0.2-1c0-0.3-0.2-0.6-0.5-0.6l-1.1-0.2 1.1-0.2c0.3-0.1 0.5-0.3 0.5-0.6z"/><path class="a" d="m772 770.3l0.2 1c0.1 0.3 0.3 0.6 0.6 0.6l1 0.2-1 0.2c-0.3 0.1-0.5 0.3-0.6 0.6l-0.2 1-0.2-1c0-0.3-0.3-0.5-0.6-0.6l-1-0.2 1-0.2c0.3 0 0.6-0.3 0.6-0.6z"/><path class="a" d="m858.6 819.4l0.1 1.1c0.1 0.3 0.3 0.5 0.6 0.6l1.1 0.1-1.1 0.2c-0.3 0.1-0.5 0.3-0.6 0.6l-0.1 1-0.2-1c-0.1-0.3-0.3-0.5-0.6-0.6l-1-0.2 1-0.1c0.3-0.1 0.5-0.3 0.6-0.6z"/><path class="a" d="m878.4 834.2l0.2 1.1c0 0.3 0.2 0.5 0.5 0.6l1.1 0.1-1.1 0.2c-0.3 0.1-0.5 0.3-0.5 0.6l-0.2 1-0.2-1c-0.1-0.3-0.3-0.5-0.6-0.6l-1-0.2 1-0.1c0.3-0.1 0.5-0.3 0.6-0.6z"/><path class="a" d="m867 898.5l0.2 1c0 0.3 0.2 0.5 0.5 0.6l1.1 0.2-1.1 0.1c-0.3 0.1-0.5 0.3-0.5 0.6l-0.2 1.1-0.2-1.1c-0.1-0.3-0.3-0.5-0.6-0.6l-1-0.1 1-0.2c0.3-0.1 0.5-0.3 0.6-0.6z"/><path class="a" d="m811.9 821.7l0.2 1c0 0.3 0.3 0.6 0.6 0.6l1 0.2-1 0.2c-0.3 0-0.6 0.3-0.6 0.6l-0.2 1-0.2-1c0-0.3-0.3-0.6-0.6-0.6l-1-0.2 1-0.2c0.3 0 0.6-0.3 0.6-0.6z"/><path class="a" d="m778.7 817.4l0.2 1c0 0.3 0.2 0.6 0.5 0.6l1.1 0.2-1.1 0.2c-0.3 0-0.5 0.3-0.5 0.6l-0.2 1-0.2-1c-0.1-0.3-0.3-0.6-0.6-0.6l-1-0.2 1-0.2c0.3 0 0.5-0.3 0.6-0.6z"/><path class="a" d="m690 824.3l0.2 1c0.1 0.3 0.3 0.5 0.6 0.6l1 0.2-1 0.2c-0.3 0-0.5 0.2-0.6 0.5l-0.2 1.1-0.2-1.1c0-0.3-0.3-0.5-0.6-0.5l-1-0.2 1-0.2c0.3-0.1 0.6-0.3 0.6-0.6z"/><path class="a" d="m628.4 848.2l0.2 1c0.1 0.3 0.3 0.5 0.6 0.6l1 0.2-1 0.2c-0.3 0-0.5 0.2-0.6 0.5l-0.2 1.1-0.2-1.1c0-0.3-0.2-0.5-0.5-0.5l-1.1-0.2 1.1-0.2c0.3-0.1 0.5-0.3 0.5-0.6z"/><path class="a" d="m583.8 863.1l0.1 1c0.1 0.3 0.3 0.6 0.6 0.6l1 0.2-1 0.2c-0.3 0.1-0.5 0.3-0.6 0.6l-0.1 1-0.2-1c-0.1-0.3-0.3-0.5-0.6-0.6l-1-0.2 1-0.2c0.3 0 0.5-0.3 0.6-0.6z"/><path class="a" d="m639.8 865l0.2 1c0.1 0.3 0.3 0.5 0.6 0.6l1 0.2-1 0.1c-0.3 0.1-0.5 0.3-0.6 0.6l-0.2 1.1-0.1-1.1c-0.1-0.3-0.3-0.5-0.6-0.6l-1.1-0.1 1.1-0.2c0.3-0.1 0.5-0.3 0.6-0.6z"/><path class="a" d="m734.8 913.4l0.2 1c0 0.3 0.3 0.5 0.6 0.6l1 0.2-1 0.2c-0.3 0-0.6 0.2-0.6 0.5l-0.2 1.1-0.2-1.1c-0.1-0.3-0.3-0.5-0.6-0.5l-1-0.2 1-0.2c0.3-0.1 0.5-0.3 0.6-0.6z"/><path class="a" d="m676.3 954.6l0.2 1c0 0.3 0.2 0.6 0.5 0.6l1.1 0.2-1.1 0.2c-0.3 0-0.5 0.3-0.5 0.6l-0.2 1-0.2-1c-0.1-0.3-0.3-0.6-0.6-0.6l-1-0.2 1-0.2c0.3 0 0.5-0.3 0.6-0.6z"/><path class="a" d="m979.1 633.1l0.2 1c0.1 0.3 0.3 0.5 0.6 0.6l1 0.2-1 0.2c-0.3 0-0.5 0.2-0.6 0.5l-0.2 1.1-0.2-1.1c0-0.3-0.2-0.5-0.5-0.5l-1.1-0.2 1.1-0.2c0.3-0.1 0.5-0.3 0.5-0.6z"/><path class="a" d="m943.8 640.1l0.1 1c0.1 0.3 0.3 0.5 0.6 0.6l1.1 0.2-1.1 0.2c-0.3 0-0.5 0.3-0.6 0.6l-0.1 1-0.2-1c-0.1-0.3-0.3-0.6-0.6-0.6l-1-0.2 1-0.2c0.3-0.1 0.5-0.3 0.6-0.6z"/><path class="a" d="m1095.9 550.8l0.2 1.1c0.1 0.3 0.3 0.5 0.6 0.6l1 0.1-1 0.2c-0.3 0.1-0.5 0.3-0.6 0.6l-0.2 1-0.1-1c-0.1-0.3-0.3-0.5-0.6-0.6l-1.1-0.2 1.1-0.1c0.3-0.1 0.5-0.3 0.6-0.6z"/><path class="a" d="m1166.3 627.4l0.2 1c0.1 0.3 0.3 0.6 0.6 0.6l1 0.2-1 0.2c-0.3 0-0.5 0.3-0.6 0.6l-0.2 1-0.1-1c-0.1-0.3-0.3-0.6-0.6-0.6l-1.1-0.2 1.1-0.2c0.3 0 0.5-0.3 0.6-0.6z"/><path class="a" d="m1185.4 588l0.2 1c0.1 0.3 0.3 0.5 0.6 0.6l1 0.2-1 0.2c-0.3 0-0.5 0.2-0.6 0.5l-0.2 1.1-0.2-1.1c0-0.3-0.3-0.5-0.6-0.5l-1-0.2 1-0.2c0.3-0.1 0.6-0.3 0.6-0.6z"/><path class="a" d="m1075 593.8l0.2 1c0 0.3 0.2 0.5 0.5 0.6l1.1 0.1-1.1 0.2c-0.3 0.1-0.5 0.3-0.5 0.6l-0.2 1-0.2-1c-0.1-0.3-0.3-0.5-0.6-0.6l-1-0.2 1-0.1c0.3-0.1 0.5-0.3 0.6-0.6z"/><path class="a" d="m1040.5 618.9l0.1 1c0.1 0.3 0.3 0.5 0.6 0.6l1.1 0.2-1.1 0.2c-0.3 0-0.5 0.2-0.6 0.5l-0.1 1.1-0.2-1.1c-0.1-0.3-0.3-0.5-0.6-0.5l-1-0.2 1-0.2c0.3-0.1 0.5-0.3 0.6-0.6z"/><path class="a" d="m1151 525.9l0.2 1c0 0.3 0.3 0.5 0.6 0.6l1 0.2-1 0.2c-0.3 0-0.6 0.2-0.6 0.5l-0.2 1.1-0.2-1.1c-0.1-0.3-0.3-0.5-0.6-0.5l-1-0.2 1-0.2c0.3-0.1 0.5-0.3 0.6-0.6z"/><path class="a" d="m1137.9 611.4l0.2 1.1c0.1 0.3 0.3 0.5 0.6 0.6l1 0.1-1 0.2c-0.3 0.1-0.5 0.3-0.6 0.6l-0.2 1-0.2-1c0-0.3-0.2-0.5-0.5-0.6l-1.1-0.2 1.1-0.1c0.3-0.1 0.5-0.3 0.5-0.6z"/><path class="a" d="m1133.2 571l0.2 1c0.1 0.3 0.3 0.6 0.6 0.6l1 0.2-1 0.2c-0.3 0-0.5 0.3-0.6 0.6l-0.2 1-0.1-1c-0.1-0.3-0.3-0.6-0.6-0.6l-1.1-0.2 1.1-0.2c0.3 0 0.5-0.3 0.6-0.6z"/><path class="a" d="m1254.8 473.5l0.1 1c0.1 0.3 0.3 0.5 0.6 0.6l1.1 0.2-1.1 0.1c-0.3 0.1-0.5 0.3-0.6 0.6l-0.1 1.1-0.2-1.1c-0.1-0.3-0.3-0.5-0.6-0.6l-1-0.1 1-0.2c0.3-0.1 0.5-0.3 0.6-0.6z"/><path class="a" d="m1370.7 535.8l0.2 1.1c0.1 0.3 0.3 0.5 0.6 0.6l1 0.1-1 0.2c-0.3 0.1-0.5 0.3-0.6 0.6l-0.2 1-0.2-1c0-0.3-0.3-0.5-0.6-0.6l-1-0.2 1-0.1c0.3-0.1 0.6-0.3 0.6-0.6z"/><path class="a" d="m1379.5 578.3l0.2 1.1c0 0.2 0.2 0.5 0.5 0.5l1.1 0.2-1.1 0.2c-0.3 0.1-0.5 0.3-0.5 0.6l-0.2 1-0.2-1c-0.1-0.3-0.3-0.5-0.6-0.6l-1-0.2 1-0.2c0.3 0 0.5-0.3 0.6-0.5z"/><path class="a" d="m1458.4 579.5l0.2 1.1c0 0.3 0.2 0.5 0.5 0.5l1.1 0.2-1.1 0.2c-0.3 0.1-0.5 0.3-0.5 0.6l-0.2 1-0.2-1c-0.1-0.3-0.3-0.5-0.6-0.6l-1-0.2 1-0.2c0.3 0 0.5-0.2 0.6-0.5z"/><path class="a" d="m1414.2 607.7l0.1 1c0.1 0.3 0.3 0.5 0.6 0.6l1.1 0.2-1.1 0.2c-0.3 0-0.5 0.2-0.6 0.5l-0.1 1.1-0.2-1.1c-0.1-0.3-0.3-0.5-0.6-0.5l-1-0.2 1-0.2c0.3-0.1 0.5-0.3 0.6-0.6z"/><path class="a" d="m1389.9 628.9l0.2 1c0 0.3 0.3 0.6 0.6 0.6l1 0.2-1 0.2c-0.3 0-0.6 0.3-0.6 0.6l-0.2 1-0.2-1c0-0.3-0.3-0.6-0.6-0.6l-1-0.2 1-0.2c0.3 0 0.6-0.3 0.6-0.6z"/><path class="a" d="m1446 615.3l0.2 1c0.1 0.3 0.3 0.5 0.6 0.6l1 0.2-1 0.1c-0.3 0.1-0.5 0.3-0.6 0.6l-0.2 1.1-0.1-1.1c-0.1-0.3-0.3-0.5-0.6-0.6l-1.1-0.1 1.1-0.2c0.3-0.1 0.5-0.3 0.6-0.6z"/><path class="a" d="m1410.6 647.7l0.2 1.1c0 0.3 0.3 0.5 0.6 0.6l1 0.1-1 0.2c-0.3 0.1-0.6 0.3-0.6 0.6l-0.2 1-0.2-1c0-0.3-0.3-0.5-0.6-0.6l-1-0.2 1-0.1c0.3-0.1 0.6-0.3 0.6-0.6z"/><path class="a" d="m1458.6 705.3l0.2 1.1c0.1 0.3 0.3 0.5 0.6 0.5l1 0.2-1 0.2c-0.3 0.1-0.5 0.3-0.6 0.6l-0.2 1-0.1-1c-0.1-0.3-0.3-0.5-0.6-0.6l-1.1-0.2 1.1-0.2c0.3 0 0.5-0.2 0.6-0.5z"/><path class="a" d="m1468.7 762.7l0.2 1c0 0.3 0.3 0.5 0.6 0.6l1 0.2-1 0.1c-0.3 0.1-0.6 0.3-0.6 0.6l-0.2 1.1-0.2-1.1c0-0.3-0.3-0.5-0.6-0.6l-1-0.1 1-0.2c0.3-0.1 0.6-0.3 0.6-0.6z"/><path class="a" d="m1430.5 681.2l0.2 1c0.1 0.3 0.3 0.5 0.6 0.6l1 0.2-1 0.1c-0.3 0.1-0.5 0.3-0.6 0.6l-0.2 1.1-0.1-1.1c-0.1-0.3-0.3-0.5-0.6-0.6l-1.1-0.1 1.1-0.2c0.3-0.1 0.5-0.3 0.6-0.6z"/><path class="a" d="m1436.2 720.6l0.2 1c0 0.3 0.3 0.6 0.6 0.6l1 0.2-1 0.2c-0.3 0-0.6 0.3-0.6 0.6l-0.2 1-0.2-1c0-0.3-0.3-0.6-0.6-0.6l-1-0.2 1-0.2c0.3 0 0.6-0.3 0.6-0.6z"/><path class="a" d="m1474.6 655.1l0.2 1.1c0 0.3 0.3 0.5 0.6 0.6l1 0.1-1 0.2c-0.3 0.1-0.6 0.3-0.6 0.6l-0.2 1-0.2-1c-0.1-0.3-0.3-0.5-0.6-0.6l-1-0.2 1-0.1c0.3-0.1 0.5-0.3 0.6-0.6z"/><path class="a" d="m1303.6 564.3l0.2 1.1c0 0.3 0.2 0.5 0.5 0.6l1.1 0.1-1.1 0.2c-0.3 0.1-0.5 0.3-0.5 0.6l-0.2 1-0.2-1c-0.1-0.3-0.3-0.5-0.6-0.6l-1-0.2 1-0.1c0.3-0.1 0.5-0.3 0.6-0.6z"/><path class="a" d="m1340.1 646.9l0.1 1.1c0.1 0.3 0.3 0.5 0.6 0.5l1 0.2-1 0.2c-0.3 0.1-0.5 0.3-0.6 0.6l-0.1 1-0.2-1c-0.1-0.3-0.3-0.5-0.6-0.6l-1-0.2 1-0.2c0.3 0 0.5-0.2 0.6-0.5z"/><path class="a" d="m1305 616.3l0.2 1c0.1 0.3 0.3 0.5 0.6 0.6l1 0.2-1 0.1c-0.3 0.1-0.5 0.3-0.6 0.6l-0.2 1-0.2-1c0-0.3-0.2-0.5-0.5-0.6l-1.1-0.1 1.1-0.2c0.3-0.1 0.5-0.3 0.5-0.6z"/><path class="a" d="m1329.2 492.4l0.2 1.1c0.1 0.3 0.3 0.5 0.6 0.5l1 0.2-1 0.2c-0.3 0.1-0.5 0.3-0.6 0.6l-0.2 1-0.2-1c0-0.3-0.3-0.5-0.6-0.6l-1-0.2 1-0.2c0.3 0 0.6-0.2 0.6-0.5z"/><path class="a" d="m1267.5 553.2l0.2 1.1c0.1 0.3 0.3 0.5 0.6 0.6l1 0.1-1 0.2c-0.3 0.1-0.5 0.3-0.6 0.6l-0.2 1-0.2-1c0-0.3-0.2-0.5-0.5-0.6l-1.1-0.2 1.1-0.1c0.3-0.1 0.5-0.3 0.5-0.6z"/><path class="a" d="m1365 437.9l0.2 1.1c0.1 0.3 0.3 0.5 0.6 0.5l1 0.2-1 0.2c-0.3 0.1-0.5 0.3-0.6 0.6l-0.2 1-0.1-1c-0.1-0.3-0.3-0.5-0.6-0.6l-1.1-0.2 1.1-0.2c0.3 0 0.5-0.2 0.6-0.5z"/><path class="a" d="m1394.7 480.4l0.2 1c0 0.3 0.3 0.6 0.6 0.6l1 0.2-1 0.2c-0.3 0-0.6 0.3-0.6 0.6l-0.2 1-0.2-1c-0.1-0.3-0.3-0.6-0.6-0.6l-1-0.2 1-0.2c0.3 0 0.5-0.3 0.6-0.6z"/><path class="a" d="m1416 382.1l0.2 1c0 0.3 0.2 0.6 0.5 0.6l1.1 0.2-1.1 0.2c-0.3 0-0.5 0.3-0.5 0.6l-0.2 1-0.2-1c-0.1-0.3-0.3-0.6-0.6-0.6l-1-0.2 1-0.2c0.3 0 0.5-0.3 0.6-0.6z"/><path class="a" d="m1463.3 365.6l0.1 1.1c0.1 0.3 0.3 0.5 0.6 0.5l1.1 0.2-1.1 0.2c-0.3 0.1-0.5 0.3-0.6 0.6l-0.1 1-0.2-1c-0.1-0.3-0.3-0.5-0.6-0.6l-1-0.2 1-0.2c0.3 0 0.5-0.2 0.6-0.5z"/><path class="a" d="m1457.8 467l0.2 1c0 0.3 0.2 0.6 0.5 0.6l1.1 0.2-1.1 0.2c-0.3 0-0.5 0.3-0.5 0.6l-0.2 1-0.2-1c-0.1-0.3-0.3-0.6-0.6-0.6l-1-0.2 1-0.2c0.3 0 0.5-0.3 0.6-0.6z"/><path class="a" d="m1414.1 307.8l0.2 1.1c0 0.3 0.3 0.5 0.6 0.5l1 0.2-1 0.2c-0.3 0.1-0.6 0.3-0.6 0.6l-0.2 1-0.2-1c0-0.3-0.3-0.5-0.6-0.6l-1-0.2 1-0.2c0.3 0 0.6-0.2 0.6-0.5z"/><path class="a" d="m1376.2 311.7l0.2 1c0.1 0.3 0.3 0.5 0.6 0.6l1 0.2-1 0.2c-0.3 0-0.5 0.2-0.6 0.5l-0.2 1.1-0.2-1.1c0-0.3-0.3-0.5-0.6-0.5l-1-0.2 1-0.2c0.3-0.1 0.6-0.3 0.6-0.6z"/><path class="a" d="m1371.1 340l0.2 1c0.1 0.3 0.3 0.5 0.6 0.6l1 0.2-1 0.2c-0.3 0-0.5 0.3-0.6 0.6l-0.2 1-0.2-1c0-0.3-0.2-0.6-0.5-0.6l-1.1-0.2 1.1-0.2c0.3-0.1 0.5-0.3 0.5-0.6z"/><path class="a" d="m1451.7 249.1l0.2 1.1c0 0.3 0.3 0.5 0.6 0.5l1 0.2-1 0.2c-0.3 0.1-0.6 0.3-0.6 0.6l-0.2 1-0.2-1c0-0.3-0.3-0.5-0.6-0.6l-1-0.2 1-0.2c0.3 0 0.6-0.2 0.6-0.5z"/><path class="a" d="m1439.4 288.6l0.1 1.1c0.1 0.3 0.3 0.5 0.6 0.5l1.1 0.2-1.1 0.2c-0.3 0.1-0.5 0.3-0.6 0.6l-0.1 1-0.2-1c-0.1-0.3-0.3-0.5-0.6-0.6l-1-0.2 1-0.2c0.3 0 0.5-0.2 0.6-0.5z"/><path class="a" d="m1472.1 179.6l0.1 1c0.1 0.3 0.3 0.6 0.6 0.6l1.1 0.2-1.1 0.2c-0.3 0.1-0.5 0.3-0.6 0.6l-0.1 1-0.2-1c-0.1-0.3-0.3-0.5-0.6-0.6l-1-0.2 1-0.2c0.3 0 0.5-0.3 0.6-0.6z"/><path class="a" d="m1485.9 205.8l0.1 1.1c0.1 0.3 0.3 0.5 0.6 0.6l1.1 0.1-1.1 0.2c-0.3 0.1-0.5 0.3-0.6 0.6l-0.1 1-0.2-1c-0.1-0.3-0.3-0.5-0.6-0.6l-1-0.2 1-0.1c0.3-0.1 0.5-0.3 0.6-0.6z"/><path class="a" d="m1051.8 144l0.1 1.1c0.1 0.3 0.3 0.5 0.6 0.5l1.1 0.2-1.1 0.2c-0.3 0.1-0.5 0.3-0.6 0.6l-0.1 1-0.2-1c-0.1-0.3-0.3-0.5-0.6-0.6l-1-0.2 1-0.2c0.3 0 0.5-0.2 0.6-0.5z"/><path class="a" d="m1049.9 166.9l0.2 1.1c0 0.3 0.2 0.5 0.5 0.5l1.1 0.2-1.1 0.2c-0.3 0.1-0.5 0.3-0.5 0.6l-0.2 1-0.2-1c-0.1-0.3-0.3-0.5-0.6-0.6l-1-0.2 1-0.2c0.3 0 0.5-0.2 0.6-0.5z"/><path class="a" d="m19.4 156.2l0.2 1c0.1 0.3 0.3 0.5 0.6 0.6l1 0.2-1 0.2c-0.3 0-0.5 0.3-0.6 0.6l-0.2 1-0.1-1c-0.1-0.3-0.3-0.6-0.6-0.6l-1.1-0.2 1.1-0.2c0.3-0.1 0.5-0.3 0.6-0.6z"/><path class="a" d="m34.3 185.2l0.2 1c0.1 0.3 0.3 0.5 0.6 0.6l1 0.2-1 0.1c-0.3 0.1-0.5 0.3-0.6 0.6l-0.2 1.1-0.1-1.1c-0.1-0.3-0.3-0.5-0.6-0.6l-1.1-0.1 1.1-0.2c0.3-0.1 0.5-0.3 0.6-0.6z"/><path class="a" d="m49.3 222.4l0.2 1.1c0.1 0.3 0.3 0.5 0.6 0.6l1 0.1-1 0.2c-0.3 0.1-0.5 0.3-0.6 0.6l-0.2 1-0.1-1c-0.1-0.3-0.3-0.5-0.6-0.6l-1.1-0.2 1.1-0.1c0.3-0.1 0.5-0.3 0.6-0.6z"/><path class="a" d="m47 74.5l0.2 1.1c0.1 0.3 0.3 0.5 0.6 0.5l1 0.2-1 0.2c-0.3 0.1-0.5 0.3-0.6 0.6l-0.2 1-0.2-1c0-0.3-0.2-0.5-0.5-0.6l-1.1-0.2 1.1-0.2c0.3 0 0.5-0.2 0.5-0.5z"/><path class="a" d="m32.2 133.3l0.2 1c0 0.3 0.3 0.5 0.6 0.6l1 0.2-1 0.1c-0.3 0.1-0.6 0.3-0.6 0.6l-0.2 1.1-0.2-1.1c-0.1-0.3-0.3-0.5-0.6-0.6l-1-0.1 1-0.2c0.3-0.1 0.5-0.3 0.6-0.6z"/><path class="a" d="m124.2 90.8l0.2 1c0 0.3 0.2 0.6 0.5 0.6l1.1 0.2-1.1 0.2c-0.3 0-0.5 0.3-0.5 0.6l-0.2 1-0.2-1c-0.1-0.3-0.3-0.6-0.6-0.6l-1-0.2 1-0.2c0.3 0 0.5-0.3 0.6-0.6z"/><path class="a" d="m141.9 164.2l0.2 1.1c0.1 0.3 0.3 0.5 0.6 0.5l1 0.2-1 0.2c-0.3 0.1-0.5 0.3-0.6 0.6l-0.2 1-0.1-1c-0.1-0.3-0.3-0.5-0.6-0.6l-1.1-0.2 1.1-0.2c0.3 0 0.5-0.2 0.6-0.5z"/><path class="a" d="m346.9 88l0.2 1c0.1 0.3 0.3 0.5 0.6 0.6l1 0.2-1 0.2c-0.3 0-0.5 0.2-0.6 0.5l-0.2 1.1-0.2-1.1c0-0.3-0.3-0.5-0.6-0.5l-1-0.2 1-0.2c0.3-0.1 0.6-0.3 0.6-0.6z"/><path class="a" d="m372.6 156.9l0.2 1c0 0.3 0.3 0.6 0.6 0.6l1 0.2-1 0.2c-0.3 0-0.6 0.3-0.6 0.6l-0.2 1-0.2-1c0-0.3-0.3-0.6-0.6-0.6l-1-0.2 1-0.2c0.3 0 0.6-0.3 0.6-0.6z"/><path class="a" d="m432.9 54.8l0.1 1c0.1 0.3 0.3 0.5 0.6 0.6l1.1 0.2-1.1 0.1c-0.3 0.1-0.5 0.3-0.6 0.6l-0.1 1-0.2-1c-0.1-0.3-0.3-0.5-0.6-0.6l-1-0.1 1-0.2c0.3-0.1 0.5-0.3 0.6-0.6z"/><path class="a" d="m405.1 152.3l0.2 1c0 0.3 0.3 0.5 0.6 0.6l1 0.2-1 0.2c-0.3 0-0.6 0.2-0.6 0.5l-0.2 1.1-0.2-1.1c0-0.3-0.3-0.5-0.6-0.5l-1-0.2 1-0.2c0.3-0.1 0.6-0.3 0.6-0.6z"/><path class="a" d="m172 118.5l0.2 1c0 0.3 0.3 0.5 0.6 0.6l1 0.2-1 0.1c-0.3 0.1-0.6 0.3-0.6 0.6l-0.2 1.1-0.2-1.1c0-0.3-0.3-0.5-0.6-0.6l-1-0.1 1-0.2c0.3-0.1 0.6-0.3 0.6-0.6z"/><path class="a" d="m267.4 32.9l0.1 1c0.1 0.3 0.3 0.5 0.6 0.6l1.1 0.2-1.1 0.2c-0.3 0-0.5 0.2-0.6 0.5l-0.1 1.1-0.2-1.1c-0.1-0.3-0.3-0.5-0.6-0.5l-1-0.2 1-0.2c0.3-0.1 0.5-0.3 0.6-0.6z"/><path class="a" d="m264.4 230l0.2 1c0 0.3 0.3 0.6 0.6 0.6l1 0.2-1 0.2c-0.3 0-0.6 0.3-0.6 0.6l-0.2 1-0.2-1c0-0.3-0.3-0.6-0.6-0.6l-1-0.2 1-0.2c0.3 0 0.6-0.3 0.6-0.6z"/></g><circle class="a" cx="1140" cy="433.1" r="1.5"/><circle class="a" cx="1087" cy="428" r="1.5"/><circle class="a" cx="1101.3" cy="290.1" r="1.5"/><circle class="a" cx="1030.7" cy="387.9" r="1.5"/><circle class="a" cx="700.1" cy="185.4" r="1.5"/><circle class="a" cx="898.6" cy="215.5" r="1.5"/><circle class="a" cx="548.8" cy="212.5" r="1.5"/><circle class="a" cx="492.9" cy="275.5" r="1.5"/><circle class="a" cx="174.5" cy="358.8" r="1.5"/><circle class="a" cx="548.7" cy="40" r="1.5"/><circle class="a" cx="630.7" cy="185" r="1.5"/><circle class="a" cx="805.6" cy="473.5" r="1.5"/><circle class="a" cx="750.4" cy="558.1" r="1.5"/><circle class="a" cx="1170.5" cy="525.1" r="1.5"/><circle class="a" cx="1151.3" cy="605.1" r="1.5"/><circle class="a" cx="781.8" cy="785.9" r="1.5"/><circle class="a" cx="685.6" cy="866.3" r="1.5"/><circle class="a" cx="829.1" cy="844.8" r="1.5"/><circle class="a" cx="824" cy="645.5" r="1.5"/><circle class="a" cx="875.4" cy="682.2" r="1.5"/><circle class="a" cx="1009.7" cy="602.3" r="1.5"/><circle class="a" cx="903" cy="691.2" r="1.5"/><circle class="a" cx="914.9" cy="599.3" r="1.5"/><circle class="a" cx="1408.2" cy="443.4" r="1.5"/><circle class="a" cx="1443.4" cy="629.2" r="1.5"/><circle class="a" cx="1306.4" cy="475.3" r="1.5"/><circle class="a" cx="1359.7" cy="626.5" r="1.5"/><circle class="a" cx="1397" cy="365.1" r="1.5"/><circle class="a" cx="1364.2" cy="567.9" r="1.5"/><circle class="a" cx="1356.7" cy="671.9" r="1.5"/><circle class="a" cx="1229.7" cy="428.6" r="1.5"/><circle class="a" cx="1116" cy="458.8" r="1.5"/><circle class="a" cx="918.3" cy="380" r="1.5"/><circle class="a" cx="828.8" cy="422.9" r="1.5"/><circle class="a" cx="730.7" cy="236.2" r="1.5"/><circle class="a" cx="840.5" cy="170.4" r="1.5"/><circle class="a" cx="1024.7" cy="121.5" r="1.5"/><circle class="a" cx="1029.3" cy="193.4" r="1.5"/><circle class="a" cx="941.4" cy="147.7" r="1.5"/><circle class="a" cx="838.9" cy="250.8" r="1.5"/><circle class="a" cx="512.8" cy="246.1" r="1.5"/><circle class="a" cx="455.8" cy="281.4" r="1.5"/><circle class="a" cx="884.1" cy="449" r="1.5"/><circle class="a" cx="862.8" cy="573.6" r="1.5"/><circle class="a" cx="828" cy="855.7" r="1.5"/><circle class="a" cx="826.8" cy="977.8" r="1.5"/><circle class="a" cx="637.6" cy="890.2" r="1.5"/><circle class="a" cx="741.2" cy="931.7" r="1.5"/><circle class="a" cx="964.6" cy="601.6" r="1.5"/><circle class="a" cx="1028.8" cy="695.4" r="1.5"/><circle class="a" cx="1074.3" cy="583.1" r="1.5"/><circle class="a" cx="1087.5" cy="512" r="1.5"/><circle class="a" cx="1225.4" cy="461.5" r="1.5"/><circle class="a" cx="1307.5" cy="304.7" r="1.5"/><circle class="a" cx="1444.6" cy="232.4" r="1.5"/><circle class="a" cx="1420.1" cy="296.8" r="1.5"/><circle class="a" cx="1458" cy="311.6" r="1.5"/><circle class="a" cx="1105.9" cy="298.3" r="1.5"/><circle class="a" cx="1061" cy="36.5" r="1.5"/><circle class="a" cx="984" cy="38.2" r="1.5"/><circle class="a" cx="924.3" cy="19.8" r="1.5"/><circle class="a" cx="945.2" cy="126.9" r="1.5"/><circle class="a" cx="932.4" cy="82.6" r="1.5"/><circle class="a" cx="795.3" cy="139.5" r="1.5"/><circle class="a" cx="616.2" cy="137.3" r="1.5"/><circle class="a" cx="595.3" cy="142.1" r="1.5"/><circle class="a" cx="45.9" cy="179.3" r="1.5"/><circle class="a" cx="33.1" cy="303.1" r="1.5"/><circle class="a" cx="75.9" cy="268" r="1.5"/><circle class="a" cx="135.8" cy="316.6" r="1.5"/><circle class="a" cx="263" cy="387.8" r="1.5"/><circle class="a" cx="381.1" cy="396.8" r="1.5"/><circle class="a" cx="343.9" cy="336.5" r="1.5"/><circle class="a" cx="422.5" cy="323" r="1.5"/><circle class="a" cx="344.1" cy="354.1" r="1.5"/><circle class="a" cx="311.6" cy="388.4" r="1.5"/><circle class="a" cx="974" cy="648.4" r="1.5"/><circle class="a" cx="982.9" cy="648.3" r="1.5"/><circle class="a" cx="1181.7" cy="628.9" r="1.5"/><circle class="a" cx="1297.9" cy="516.4" r="1.5"/><circle class="a" cx="1287.5" cy="589.7" r="1.5"/><circle class="a" cx="1417.6" cy="482.2" r="1.5"/><circle class="a" cx="1480" cy="584.5" r="1.5"/><circle class="a" cx="1452.2" cy="408.5" r="1.5"/><circle class="a" cx="1476.1" cy="85.9" r="1.5"/><circle class="a" cx="1458.3" cy="158.3" r="1.5"/><circle class="a" cx="1123.4" cy="181.5" r="1.5"/><circle class="a" cx="1123.5" cy="255.8" r="1.5"/><circle class="a" cx="870.5" cy="768.2" r="1.5"/><circle class="a" cx="882.2" cy="843.2" r="1.5"/><circle class="a" cx="757.1" cy="878.5" r="1.5"/></svg>