<svg width="25" height="26" viewBox="0 0 25 26" fill="none" xmlns="http://www.w3.org/2000/svg">
<circle cx="12.475" cy="12.5246" r="7.86513" fill="#D5797F"/>
<path d="M18.7366 12.8752C18.5434 12.875 18.3868 12.7184 18.3865 12.5251C18.3832 9.26146 15.7384 6.61658 12.4747 6.61327C12.281 6.61327 12.124 6.45625 12.124 6.26257C12.124 6.06888 12.281 5.91187 12.4747 5.91187C16.1255 5.91573 19.0841 8.87431 19.088 12.5251C19.0878 12.6181 19.0508 12.7073 18.9849 12.773C18.919 12.8386 18.8297 12.8754 18.7366 12.8752Z" fill="#EFDCE1"/>
<path d="M12.4748 3.05617C13.0462 3.05685 13.6163 3.10923 14.1782 3.21269C14.1858 3.10347 14.1909 2.99225 14.1909 2.88042C14.1907 1.3171 12.4748 0.0495605 12.4748 0.0495605C12.4748 0.0495605 10.7588 1.3171 10.7588 2.88042C10.7588 2.99305 10.764 3.10347 10.7716 3.21269C11.3335 3.10923 11.9035 3.05685 12.4748 3.05617Z" fill="#555BB3"/>
<path d="M12.4751 21.9929C13.0465 21.9922 13.6166 21.9398 14.1785 21.8365C14.1861 21.9456 14.1911 22.056 14.1911 22.1686C14.1911 23.7317 12.4753 24.9995 12.4753 24.9995C12.4753 24.9995 10.7593 23.7321 10.7593 22.1686C10.7593 22.056 10.7645 21.9456 10.7721 21.8365C11.3339 21.9398 11.9039 21.9921 12.4751 21.9929Z" fill="#555BB3"/>
<path d="M19.17 5.82937C19.5734 6.2339 19.9394 6.67403 20.2636 7.1444C20.3464 7.07266 20.4279 6.99811 20.5075 6.91855C21.6131 5.81294 21.2959 3.70352 21.2959 3.70352C21.2959 3.70352 19.1864 3.38689 18.0808 4.4919C18.0007 4.57206 17.9267 4.65222 17.855 4.73579C18.3253 5.05999 18.7655 5.426 19.17 5.82937Z" fill="#555BB3"/>
<path d="M5.77984 19.2197C6.18429 19.6232 6.62443 19.9892 7.09487 20.3133C7.02313 20.396 6.94858 20.4776 6.86902 20.5572C5.76341 21.6628 3.65399 21.3455 3.65399 21.3455C3.65399 21.3455 3.33676 19.2361 4.44237 18.1305C4.52253 18.0504 4.60269 17.9764 4.68626 17.9047C5.01041 18.3751 5.37643 18.8152 5.77984 19.2197Z" fill="#555BB3"/>
<path d="M21.9434 12.5251C21.9427 13.0964 21.8904 13.6666 21.7871 14.2285C21.8961 14.2361 22.0065 14.2413 22.1192 14.2413C23.6823 14.2413 24.95 12.5253 24.95 12.5253C24.95 12.5253 23.6825 10.8094 22.1192 10.8094C22.0065 10.8094 21.8961 10.8145 21.7871 10.8221C21.8904 11.3839 21.9427 11.9539 21.9434 12.5251Z" fill="#555BB3"/>
<path d="M3.00661 12.5252C3.00731 13.0965 3.05963 13.6666 3.16293 14.2286C3.05391 14.2362 2.94249 14.2414 2.83086 14.2414C1.26754 14.2406 0 12.5252 0 12.5252C0 12.5252 1.26754 10.8093 2.83086 10.8093C2.94349 10.8093 3.05391 10.8143 3.16293 10.822C3.05965 11.3838 3.00733 11.9539 3.00661 12.5252Z" fill="#555BB3"/>
<path d="M19.17 19.2197C18.7655 19.6231 18.3253 19.9891 17.855 20.3133C17.9267 20.396 18.0013 20.4776 18.0808 20.5572C19.1864 21.6628 21.2959 21.3455 21.2959 21.3455C21.2959 21.3455 21.6131 19.2361 20.5075 18.1305C20.4273 18.0504 20.3472 17.9764 20.2636 17.9047C19.9394 18.3751 19.5734 18.8152 19.17 19.2197Z" fill="#555BB3"/>
<path d="M5.77984 5.82937C5.37647 6.2339 5.01046 6.67403 4.68626 7.1444C4.60349 7.07266 4.52193 6.99811 4.44237 6.91855C3.33676 5.81294 3.65399 3.70352 3.65399 3.70352C3.65399 3.70352 5.76341 3.38689 6.86902 4.4919C6.94918 4.57206 7.02313 4.65222 7.09487 4.73579C6.62447 5.05994 6.18433 5.42596 5.77984 5.82937Z" fill="#555BB3"/>
</svg>
