<svg version="1.2" xmlns="http://www.w3.org/2000/svg" viewBox="0 0 369 239" width="369" height="239"><style>.a{fill:#7b9b75}.b{fill:#a6c691}.c{fill:#6262c4}.d{fill:#7772d3}.e{fill:#f7a561}.f{fill:#ffbe83}.g{fill:#ff9c85}.h{fill:#6b5046}.i{fill:#ea6d59}.j{fill:#4d4d8c}.k{fill:#7c6053}.l{fill:#e55b4c}.m{fill:#fff}.n{fill:#aaa0af}.o{fill:#d2cad8}.p{fill:#ef7467}</style><path class="a" d="m59 125.7c8.8 11.5 11.2 24.6 5.2 29.2-5.9 4.5-17.9-1.2-26.8-12.7-8.8-11.6-11.2-24.7-5.2-29.2 5.9-4.6 17.9 1.1 26.8 12.7z"/><path class="a" d="m41.4 184.1c-11.1-2.1-19.3-8.5-18.2-14.2 1.1-5.8 11-8.7 22.2-6.6 11.1 2.1 19.3 8.5 18.2 14.2-1.1 5.7-11 8.7-22.2 6.6z"/><path class="b" d="m73.1 195.5q-0.1 0-0.1-0.1c-0.3 0-0.5-0.3-0.4-0.6 7.1-29.9-24.4-60.2-24.7-60.5-0.2-0.2-0.3-0.5-0.1-0.7 0.2-0.2 0.5-0.2 0.7 0 0.4 0.3 32.3 31 25.1 61.5-0.1 0.2-0.3 0.4-0.5 0.4z"/><path class="a" d="m92 137.2c11.1-11 24.7-15.4 30.4-9.7 5.7 5.7 1.3 19.3-9.8 30.4-11 11-24.6 15.4-30.3 9.7-5.7-5.7-1.3-19.3 9.7-30.4z"/><path class="b" d="m73.1 193.7c-0.3 0-0.5-0.3-0.5-0.6 2.4-14.6-25.1-20-25.4-20-0.3-0.1-0.5-0.4-0.4-0.6 0-0.3 0.3-0.5 0.6-0.4 1.2 0.2 28.7 5.6 26.2 21.2 0 0.2-0.2 0.4-0.5 0.4z"/><path class="b" d="m75 190.7c-0.4-0.1-0.6-0.3-0.5-0.6 6.5-32.9 32.6-53.1 32.9-53.3 0.2-0.1 0.5-0.1 0.7 0.1 0.2 0.3 0.1 0.6-0.1 0.7-0.3 0.2-26.1 20.1-32.6 52.7 0 0.2-0.2 0.4-0.4 0.4z"/><path class="c" d="m93.1 230h-25.3c-1.4 0-2.6-0.9-2.7-2.2l-3.9-36.9c-0.1-1.5 1.1-2.8 2.7-2.8h33.1c1.6 0 2.8 1.3 2.6 2.8l-3.8 36.9c-0.2 1.3-1.3 2.2-2.7 2.2z"/><path class="d" d="m87.5 230h-25.3c-1.4 0-2.6-0.9-2.7-2.2l-3.9-36.9c-0.1-1.5 1.1-2.8 2.7-2.8h33.1c1.6 0 2.8 1.3 2.6 2.8l-3.8 36.9c-0.2 1.3-1.3 2.2-2.7 2.2z"/><path class="b" d="m38.8 204.1q-39.6-29.4-38.3-33 1.4-3.7 33.1 24.3-24.9-36-20-38.4 4.9-2.3 25.2 43-7.8-34.9-5.2-35.1 2.6-0.2 9.1 37.1 1.5-47.3 5.8-45 4.3 2.2-3 45 13-35.3 14.4-30.9 1.3 4.3-11.4 30.9 28.7-42.9 29.4-37.1 0.6 5.8-26 39.2z"/><path class="e" d="m60.2 235.1h-27.1c-1.1 0-2.1-0.9-2.3-2.2l-4-29.9c-0.2-1.6 0.9-3 2.3-3h35.1c1.4 0 2.5 1.4 2.3 3l-4 29.9c-0.2 1.3-1.1 2.2-2.3 2.2z"/><path class="f" d="m56.3 235.1h-27.1c-1.2 0-2.1-0.9-2.3-2.2l-4-29.9c-0.2-1.6 0.9-3 2.3-3h35.1c1.4 0 2.5 1.4 2.3 3l-4 29.9c-0.2 1.3-1.2 2.2-2.3 2.2z"/><path class="g" d="m135.7 100.6q25.9-4 33.6-7 7.7-3 19.2 13l-4.5 13.3q-16.6 1.7-33.3 0.2-9.7-0.8-17.7-4.8z"/><path class="f" d="m138.6 99.7q0 16.9-2.2 17.4-2.1 0.6-4.6-1.5-3.3 6-14.9 3.2-4.6-1.2-3.1-3.6-2.2-0.2-3.7-2.4-1.5-2.2 0.5-1.8-2.2-1.3-0.5-4 1.6-2.7 1.6-2.5 3.6-7.7 12.2-6.6 8.6 1.1 14.7 1.8z"/><path class="g" d="m242.7 171.4l11.7-1.3 3 26.2-10.5 1.2z"/><path class="h" d="m229.6 157.9h20.4v45.6q-10.2 2.2-41.3 3c-31.2 0.8-75.1-5.8-77.8-33.2q-2.4-24.7 20-29.4z"/><path  d="m201.2 43.6q-9.8-22.4 7.5-26.9 19.1-4.9 17.4 22.7 21 1.8 18.3 22.4-2.7 20.7-34.9 15.7l-18.4-7.6q-5.2-11.7 10.1-26.3z"/><path class="i" d="m167.4 94.6q7.4-9.1 11.1-14.4c3.6-5.3 9.5-12.9 17.5-17.7 8-4.9 28-7.4 41.7 1.5 13.7 8.9 20 20.9 22.3 33.9q2.4 13 0 17.7h-39.5l-36.5 1.3q-4-17-16.6-22.3z"/><path class="g" d="m217.5 49.9l2-0.3-0.4 9.7q-1 3.2-7.5 3.6-4.8 0.3-5.5 0l-0.1-5.3-0.2-5.3v-0.3z"/><path  d="m205.8 52.2l11.7-2.3q-0.1 0.5-0.3 1.1c-2.4 4.9-8.1 6.2-11.2 6.6l-0.2-5.3z"/><path class="g" d="m222.1 35.1l-2.2 4q2.7-1.6 5-0.6c2.2 0.9 3.8 5.1 1.1 8.8q-2.6 3.6-6.5 2.3-2 2.5-6.2 4c-4.2 1.5-11.3 2.6-13.4-5.1q-2.1-7.7 4-21.4 9.5-12.4 18.2 8z"/><path  d="m204.4 44.6c-0.2 0-0.4-0.2-0.5-0.4-0.9-2.9 1.2-6 1.3-6.1 0.1-0.2 0.5-0.3 0.7-0.1 0.2 0.2 0.3 0.5 0.1 0.7 0 0-1.9 2.7-1.1 5.2 0.1 0.3-0.1 0.6-0.4 0.7q0 0-0.1 0z"/><path  d="m220.5 45.6q-0.2 0-0.3-0.1c-0.2-0.2-0.2-0.6 0-0.8l3.7-3.9c0.2-0.2 0.5-0.2 0.7 0 0.2 0.2 0.2 0.5 0 0.7l-3.7 3.9q-0.2 0.2-0.4 0.2z"/><path  d="m224.5 44.5q-0.1 0-2.7-0.4c-0.3 0-0.4-0.3-0.4-0.5 0-0.3 0.3-0.5 0.6-0.5l2.6 0.4c0.2 0.1 0.4 0.3 0.4 0.6-0.1 0.3-0.3 0.4-0.5 0.4z"/><path  d="m203 38.8c-0.3 0-0.5-0.3-0.5-0.5l0.4-2.4-0.9-1c-0.1-0.2-0.1-0.5 0.1-0.7 0.2-0.2 0.5-0.1 0.7 0.1l1 1.2q0.1 0.1 0.1 0.4l-0.4 2.5c0 0.3-0.2 0.4-0.5 0.4z"/><path  d="m210.6 39.5c-0.3-0.1-0.5-0.3-0.5-0.6l0.3-2.3-1.2-1.3c-0.2-0.2-0.2-0.5 0-0.7 0.2-0.2 0.5-0.2 0.7 0l1.4 1.4q0.2 0.2 0.1 0.5l-0.3 2.5c0 0.3-0.2 0.5-0.5 0.5z"/><path  d="m207.1 21.4l8.2-2.5 9.1 10 0.5 9.6q-5 0.6-12.3-2.8-7.3-3.4-6.8-10.7z"/><path  d="m223.2 37.5l-3.7 3.6v-4.1z"/><path class="g" d="m193.7 181.8v11.8h-26.3v-10.5z"/><path  d="m201.2 32c-0.2 0-0.4-0.1-0.5-0.3 0-0.3 0.1-0.6 0.4-0.7l2.9-1c0.3 0 0.6 0.1 0.7 0.4 0.1 0.2-0.1 0.5-0.4 0.6l-2.9 1q-0.1 0-0.2 0z"/><path fill-rule="evenodd" d="m209 49.5q-0.3 0-0.5-0.1c-1.6-0.5-2.5-2.1-2.6-2.2q-0.1-0.2 0-0.4 0.1-0.2 0.3-0.3c4.3-1.7 4.8-1.3 5-1.1 0.2 0.1 0.3 0.3 0.3 0.5-0.1 0.6-0.6 2.6-1.7 3.3q-0.4 0.3-0.8 0.3zm-1.8-2.3c0.3 0.4 0.9 1 1.6 1.2q0.2 0.1 0.5 0c0.5-0.4 0.9-1.5 1.1-2.2-0.7 0.1-2 0.5-3.2 1z"/><path class="j" d="m194.6 231.1c-1.7 2-65.7 4.3-68.8 4-3.2-0.4-2.2 0.2-3.2-0.4q-1-0.6-0.1-8.5 0-0.1 0-0.3c0.1-1.2 0.4-8 5.6-11.6q5.6-3.9 15.4-5.7 16.6-11.7 18-12.3c1.4-0.7 2.7-6.8 3.3-7 0.6-0.2 28.9 0.3 30.7 1.5 1.2 0.9 1 21.9 0.1 33.2-0.3 3.9-0.6 6.6-1 7.1z"/><path class="f" d="m194.6 231.1c-1.7 2-65.7 4.3-68.8 4-3.2-0.4-2.2 0.2-3.2-0.4q-1-0.6-0.1-8.5 0-0.1 0-0.3c10.8 0 39.6-0.2 57.7-1.1 6.3-0.3 11.4-0.5 15.4-0.8-0.3 3.9-0.6 6.6-1 7.1z"/><path class="f" d="m164.3 201.2q-0.1 0-0.2-0.1l-5.5-2.7c-0.3-0.1-0.4-0.4-0.3-0.6 0.1-0.3 0.4-0.4 0.7-0.3l5.5 2.7c0.2 0.1 0.4 0.4 0.2 0.7-0.1 0.2-0.2 0.3-0.4 0.3z"/><path class="f" d="m161.1 208.1q-0.1 0-0.1 0l-10.5-4.1c-0.3-0.1-0.4-0.3-0.3-0.6 0.1-0.3 0.4-0.4 0.7-0.3l10.4 4.1c0.3 0.1 0.4 0.4 0.3 0.6-0.1 0.2-0.3 0.3-0.5 0.3z"/><path class="j" d="m288.9 160.1c2.2 1.2 17.3 63.5 17.6 66.6 0.2 3.2 0.6 2.1 0.2 3.2q-0.3 1.1-8.3 1.8-0.1 0-0.2 0c-1.2 0.3-8 1.2-12.5-3.1q-5-4.7-8.7-13.9-14.8-14-15.7-15.2c-0.9-1.2-7.2-1.3-7.5-1.9-0.3-0.5-3.5-28.4-2.6-30.3 0.6-1.4 19.2-5.4 30.5-6.8 3.8-0.5 6.6-0.7 7.2-0.4z"/><path class="f" d="m288.9 160.1c2.2 1.2 17.3 63.5 17.6 66.6 0.2 3.2 0.6 2.1 0.2 3.2q-0.3 1.1-8.3 1.8-0.1 0-0.2 0c-2.2-10.5-8.1-38.7-12.6-56.2-1.6-6.2-2.9-11.1-3.9-15 3.8-0.5 6.6-0.7 7.2-0.4z"/><path class="f" d="m263.5 202.3q0 0-0.1 0c-0.3-0.1-0.4-0.3-0.3-0.6l1.5-6c0.1-0.2 0.3-0.4 0.6-0.3 0.3 0.1 0.4 0.3 0.4 0.6l-1.6 5.9c0 0.3-0.2 0.4-0.5 0.4z"/><path class="f" d="m270.6 209.1c-0.3 0-0.5-0.3-0.5-0.6l1.9-11c0.1-0.3 0.3-0.5 0.6-0.4 0.3 0 0.5 0.3 0.4 0.5l-1.9 11.1c0 0.3-0.2 0.4-0.5 0.4z"/><path class="k" d="m157.4 187.8q-17.7-50.2-8.7-66.2 9-16 54.2-5.4l49.3 2.4q6.1 29.3-6.6 37.4-12.7 8.2-50.9 5.3l4.8 26.5z"/><path class="i" d="m254.8 105.6v17.7l-63.8-9.2-2.5-24.1z"/><path class="g" d="m191.4 123.3q33.5-5.8 36-7.7 6.1-4.5 33.4-2.8-0.4 15.1-10.8 22.8-10.3 7.7-53.6 2.7z"/><path class="i" d="m227.4 59.6q16.8 2.1 25.7 14.7 8.9 12.5 10.7 42.6l-36.4-1.3z"/><path class="f" d="m197.3 121.4q3.5 18.6 1.2 19-0.9 0.1-3.1-0.7-15.1 6-19.2 4.2-4.2-1.8-6.4-12.2-3.6-0.3-3.9-3.4-0.4-3 8.4-6.1 7.8-5.4 11.3-5.1 3.5 0.4 11.7 4.3z"/><path class="l" d="m132.4 110.4q-3 0-4.8-1.6c-1.8-1.5-2.3-3.8-2.4-4.8-1.2 0.2-4.1 0.6-7.9-0.2q-1.9-0.3-2.1-1.4c-0.2-1.8 3.9-4.2 5.1-4.9 0.3-0.1 0.6 0 0.7 0.2 0.1 0.2 0 0.5-0.2 0.7-2.3 1.2-4.7 3.1-4.6 3.9 0.1 0.2 0.5 0.4 1.2 0.5 4.9 0.9 8.1 0.1 8.2 0.1q0.2-0.1 0.4 0 0.2 0.2 0.2 0.4c0 0.1 0 3 2 4.8q2.1 1.7 5.8 1.2c0.2 0 0.5 0.1 0.5 0.4 0.1 0.3-0.1 0.5-0.4 0.6q-0.9 0.1-1.7 0.1z"/><path class="l" d="m174.3 122.7c-0.3 0-0.5-0.1-0.5-0.4-0.1-0.3 0.1-0.5 0.4-0.5l12.1-1.8c0.3 0 0.5 0.2 0.6 0.5 0 0.2-0.2 0.5-0.5 0.5l-12.1 1.7q0 0 0 0z"/><path fill-rule="evenodd" class="f" d="m194.7 161.8q-0.1 0-0.2 0c-1.1-0.6-10.4-5.4-11.2-8.9-0.1-0.7 0-1.2 0.3-1.7q1.3-1.7 3-1.5c4.2 0.6 8.4 11 8.6 11.4 0.1 0.2 0 0.5-0.1 0.6q-0.2 0.1-0.4 0.1zm-8.5-11.1q-0.9 0-1.8 1.1-0.2 0.4-0.1 0.8c0.5 2.3 6.1 5.8 9.4 7.6-1.5-3.4-4.6-9.1-7.2-9.5q-0.1 0-0.3 0z"/><path class="m" d="m191.4 113c-0.3 0-0.5-0.2-0.5-0.5v-9.5c-7.6-8-0.3-22.4 0-23 0.1-0.3 0.4-0.4 0.7-0.3 0.2 0.2 0.3 0.5 0.2 0.7-0.1 0.2-7.4 14.6-0.1 22q0.2 0.2 0.2 0.4v9.7c0 0.3-0.3 0.5-0.5 0.5z"/><path class="m" d="m209.4 63.8c-3.2 0-5.9-0.8-6.1-0.8-0.3-0.1-0.5-0.4-0.4-0.7 0.1-0.2 0.4-0.4 0.6-0.3 0.1 0 10.6 3 15.2-3 0.2-0.3 0.5-0.3 0.7-0.1 0.2 0.1 0.3 0.5 0.1 0.7-2.6 3.4-6.6 4.2-10.1 4.2z"/><path fill-rule="evenodd" class="m" d="m227.4 116.1c-0.2 0-0.3-0.1-0.4-0.3-1.3-2.2-7.3-13.7-4.1-15.6q0.7-0.4 1.3-0.1c2.6 1.4 3.5 13.1 3.7 15.5 0 0.2-0.1 0.4-0.3 0.5q-0.1 0-0.2 0zm-3.8-15.1q-0.1 0-0.2 0c-1.5 0.9 0.8 7.1 3.3 12.1-0.5-5-1.6-11.4-2.9-12.1q-0.1 0-0.2 0z"/><path class="n" d="m113.1 130.4l-1.4-1.4c0.1-0.1 10.7-11.4 6.2-22.3q-1.5-3.8-4.8-4.8c-5.3-1.6-12.4 3.1-12.5 3.2l-1.1-1.7c0.3-0.2 7.9-5.3 14.2-3.4 2.7 0.8 4.8 2.8 6.1 6 5 12.1-6.2 23.9-6.7 24.4z"/><path class="n" d="m118.7 134.7l-32.1 10-6-38.8 21.5-6.7c0.8-0.2 1.6 0.1 2 0.9l15.6 32.3c0.4 0.9 0 2-1 2.3z"/><path class="o" d="m115.5 135.7l-30.9 9.6c-0.8 0.2-1.6-0.3-1.8-1.1l-5.5-36c-0.2-0.7 0.3-1.3 0.9-1.5l20.6-6.4c0.7-0.3 1.4 0.1 1.7 0.7l15.8 32.7c0.4 0.8 0 1.7-0.8 2z"/><path class="o" d="m63.7 112l18.5 4.7 1.9 12-23.4-13.9z"/><path class="f" d="m110.3 103.4q6.7-3.7 8.5-1 1.7 2.6-2.3 4.4 5.6-1.5 6 2.7 0.1 1.8-5.5 3.7 7.7 0.5 7.1 3.3c-0.5 2.9-6 3.2-9.1 2.4q-3.1-0.7-2.5-4.2-5.2 1.6-5.4-1.1-0.1-2.6 0.8-3.9-1.9-4.1 2.4-6.3z"/><path class="l" d="m108.8 110.2c-0.3 0-0.5-0.1-0.5-0.4-0.1-0.2 0.1-0.5 0.4-0.6 0 0 9-1.9 10.3-5.9 0.2-0.7 0-0.9-0.1-0.9-1-0.9-5.5 0.3-8.4 1.5-0.3 0.1-0.6 0-0.7-0.3-0.1-0.2 0-0.5 0.3-0.6 1.3-0.5 7.7-3 9.5-1.4 0.3 0.3 0.7 0.9 0.3 2-1.4 4.6-10.6 6.5-11 6.6q-0.1 0-0.1 0z"/><path class="l" d="m120.1 119.7c-0.3 0-0.5-0.2-0.5-0.5-0.1-0.3 0.1-0.5 0.4-0.5 0 0 2.2-0.3 3.6-1.9 0.3-0.4 0.8-1.1 0.6-1.4-0.7-1.3-6.8-1.1-10.9-0.4-0.3 0-0.5-0.2-0.5-0.4-0.1-0.3 0.1-0.6 0.3-0.6 2.2-0.5 7.8-2.3 8.7-4.6 0.2-0.5 0.1-0.7-0.1-0.9-0.6-0.9-3.5-1.2-5.1-1.2-0.3 0-0.5-0.2-0.6-0.5 0-0.3 0.3-0.5 0.5-0.5 0.5 0 4.8-0.1 6.1 1.6 0.2 0.4 0.5 1 0.1 1.9-0.6 1.6-2.7 2.8-4.8 3.7 3-0.2 6.4 0 7.2 1.4q0.6 1.1-0.8 2.5c-1.7 1.9-4.1 2.2-4.2 2.3q0 0 0 0z"/><path class="m" d="m82.6 122.7c-0.3 0-0.5-0.1-0.5-0.4l-2-12.3c-0.1-0.3 0.1-0.6 0.4-0.6 0.3 0 0.5 0.1 0.6 0.4l1.9 12.4c0.1 0.2-0.1 0.5-0.4 0.5q0 0 0 0z"/><path class="a" d="m225 142.8q-2.2-5.8-11.1-2.6l-5.8-7.6q8.5-0.5 4.9-5.4-3.5-4.9-8.4-2.2 0 0-3.1-2.9-3.1-3-5.4-9.5 0 0 3.6-1.6 3.6-1.6 12.9-2 11.5 6.2 14.2 4.9 2.7-1.3-7.5-5.3 0 0 8.4 0.4 8.4 0.5 17.8 2.7 0 0-2.7 1.7c-2.7 1.8 2.2 8.3 8.5 7.2q6.2-1.2 1.3-7.2 4.9 2.7 9.3 8.7c4.4 5.9 15.5 31-7 34.8q-22.6 3.9-33-6 5.4-2.3 3.1-8.1z"/><path class="a" d="m319.4 139.1q-0.9 18.3-20.2 17.7c-20.1-0.7-21.4-23-19.6-29q1.7-5.9 4.8-9.4-3.4 7.9 1.8 7c5.3-0.9 8.6-9.2 5.9-9.9q-2.6-0.6-2.6-0.6 6.8-4.4 13.3-7.2 6.6-2.8 6.6-2.8-7 6.1-4.5 6.4 2.5 0.3 9.9-8 7.4-2.4 10.7-2.1 3.3 0.2 3.3 0.2 0.1 5.8-1.5 9-1.6 3.3-1.6 3.3-4.6-0.7-6 4.1-1.5 4.9 5.4 2.9l-2.4 7.7q-8 0-8.1 5.2 0 5.2 4.8 5.5z"/><path class="b" d="m284.7 200.9c-0.4-0.1-0.6-0.3-0.5-0.6 0-0.2 2.5-20-8-37.7-14.5-24.2-51-37.3-51.3-37.5-0.3 0-0.4-0.3-0.3-0.6 0.1-0.3 0.3-0.4 0.6-0.3 0.4 0.1 37.2 13.3 51.8 37.9 10.7 18 8.2 38.1 8.2 38.3-0.1 0.3-0.3 0.5-0.5 0.5z"/><path class="a" d="m342.9 171.3q-10.3 9.9-32.9 6.1c-22.6-3.8-11.4-28.9-7-34.9q4.4-5.9 9.3-8.6-4.9 6 1.3 7.1c6.2 1.2 11.1-5.3 8.5-7.1q-2.7-1.8-2.7-1.8 9.3-2.1 17.8-2.6 8.4-0.5 8.4-0.5-10.2 4-7.5 5.4 2.6 1.3 14.2-4.9 9.3 0.3 12.9 1.9 3.5 1.6 3.5 1.6-2.2 6.6-5.3 9.5-3.1 3-3.1 3-4.9-2.7-8.5 2.2-3.5 4.9 4.9 5.3l-5.8 7.7q-8.8-3.2-11.1 2.5-2.2 5.8 3.1 8.1z"/><path class="b" d="m280.2 221.3c-0.3 0-0.5-0.1-0.5-0.4 0-0.2-2.6-20.3 8.1-38.3 14.7-24.6 51.5-37.8 51.9-37.9 0.2-0.1 0.5 0 0.6 0.3 0.1 0.2 0 0.5-0.3 0.6-0.4 0.1-36.9 13.2-51.3 37.5-10.5 17.7-8.1 37.5-8 37.7 0 0.2-0.2 0.5-0.5 0.5q0 0 0 0z"/><path class="b" d="m282.5 175.4c-0.3 0-0.5-0.2-0.5-0.5 2-33.7 25.2-54.5 25.4-54.7 0.2-0.2 0.5-0.2 0.7 0 0.2 0.2 0.2 0.5 0 0.7-0.3 0.2-23.1 20.8-25.1 54.1 0 0.2-0.3 0.4-0.5 0.4z"/><path class="a" d="m229.5 187.2q-4.5-2.6-8.7 4.1l-7.8-2q5.3-4.7 0.5-6.1-4.9-1.4-6.8 3 0 0-3.6-0.4-3.5-0.3-8.4-3.5 0 0 1.5-2.9 1.5-2.9 7.5-8 10.8-1.9 11.9-4.2 1.1-2.2-7.8 0.5 0 0 5.9-4.1 5.8-4.1 13.1-7.5 0 0-0.9 2.5c-0.8 2.6 8.1 4.2 11.6 0.2q3.5-4-5.1-5.3 4.6-0.8 10.6 0.9c6.1 1.6 24.3 14.4 14.3 31.9q-9.5 16.7-25.7 7.9 2.4-4.3-2.1-7z"/><path class="b" d="m283.8 192.8c-0.2 0-0.4-0.1-0.5-0.3-13.1-28.4-60.7-17.6-61.2-17.5-0.2 0.1-0.5-0.1-0.6-0.4 0-0.3 0.1-0.5 0.4-0.6 0.5-0.1 48.9-11.1 62.3 18.1 0.2 0.3 0.1 0.6-0.2 0.7q-0.1 0-0.2 0z"/><path class="l" d="m306.4 239.1h-30.1c-1.6 0-3-1.2-3.2-2.7l-4.6-43.8c-0.1-1.7 1.3-3.3 3.2-3.3h39.3c1.8 0 3.3 1.6 3.1 3.3l-4.6 43.8c-0.1 1.5-1.5 2.7-3.1 2.7z"/><path class="p" d="m299.7 239.1h-30.1c-1.6 0-2.9-1.2-3.1-2.7l-4.6-43.8c-0.2-1.7 1.3-3.3 3.1-3.3h39.3c1.9 0 3.3 1.6 3.2 3.3l-4.6 43.8c-0.2 1.5-1.6 2.7-3.2 2.7z"/><path class="f" d="m221.9 38.9q1.8-6.6 0-12.8-2.4-8.2-9.3-10.2 12.3-1.4 15.5 9.8 2.6 9.4-2 13.7-1.1-1.9-4.2-0.5z"/><path class="f" d="m217.5 17.1q-2.4-3.1-2.2-6.2c0.3-3.2 3.2-11 4.2-11 0.9 0 3.1 8 2.4 11.3q-0.7 3.3-4.4 5.9z"/><path class="f" d="m217.4 18.7q-0.3-3.9 1.7-6.3c2-2.5 8.9-7.3 9.6-6.7 0.8 0.5-1.9 8.3-4.4 10.7q-2.4 2.3-6.9 2.3z"/><path fill-rule="evenodd" class="m" d="m218.7 17c-0.3 0-0.5-0.2-0.5-0.4-0.2-0.6-1.7-6.1-0.5-8q0.3-0.5 0.9-0.6c0.3-0.1 0.7 0 0.9 0.3 1.3 1.2 0 6.7-0.4 8.3 0 0.2-0.2 0.4-0.4 0.4q0 0 0 0zm0.1-8.1c-0.1 0.1-0.2 0.1-0.3 0.3-0.5 0.7-0.2 3 0.1 5 0.6-2.9 0.6-5.1 0.2-5.3z"/></svg>